<svg xmlns="http://www.w3.org/2000/svg" x="0px" y="0px"
width="48" height="48"
viewBox="0 0 172 172"
style=" fill:#000000;"><defs><linearGradient x1="11.03" y1="42.974" x2="22.201" y2="43.615" gradientUnits="userSpaceOnUse" id="color-1_iCwcOoy8tOGw_gr1"><stop offset="0" stop-color="#39393b"></stop><stop offset="0.981" stop-color="#030302"></stop></linearGradient><linearGradient x1="21.979" y1="42.5" x2="47.979" y2="42.5" gradientUnits="userSpaceOnUse" id="color-2_iCwcOoy8tOGw_gr2"><stop offset="0" stop-color="#4d4d4d"></stop><stop offset="1" stop-color="#323233"></stop></linearGradient><linearGradient x1="22" y1="33.819" x2="26" y2="33.819" gradientUnits="userSpaceOnUse" id="color-3_iCwcOoy8tOGw_gr3"><stop offset="0" stop-color="#8d8d8d"></stop><stop offset="0.981" stop-color="#030302"></stop></linearGradient><linearGradient x1="3.248" y1="7.502" x2="45.881" y2="32.15" gradientUnits="userSpaceOnUse" id="color-4_iCwcOoy8tOGw_gr4"><stop offset="0" stop-color="#39393b"></stop><stop offset="0.981" stop-color="#030302"></stop></linearGradient><linearGradient x1="31.289" y1="30.717" x2="15" y2="4.341" gradientUnits="userSpaceOnUse" id="color-5_iCwcOoy8tOGw_gr5"><stop offset="0" stop-color="#000000"></stop><stop offset="0.981" stop-color="#030302"></stop></linearGradient><linearGradient x1="28.397" y1="31.446" x2="19.07" y2="5.046" gradientUnits="userSpaceOnUse" id="color-6_iCwcOoy8tOGw_gr6"><stop offset="0" stop-color="#00349c"></stop><stop offset="1" stop-color="#00b1f2"></stop></linearGradient><linearGradient x1="-2.219" y1="4.473" x2="24.565" y2="24.731" gradientUnits="userSpaceOnUse" id="color-7_iCwcOoy8tOGw_gr7"><stop offset="0.006" stop-color="#ffffff" stop-opacity="0.5"></stop><stop offset="0.952" stop-color="#ffffff" stop-opacity="0"></stop></linearGradient></defs><g fill="none" fill-rule="nonzero" stroke="none" stroke-width="1" stroke-linecap="butt" stroke-linejoin="miter" stroke-miterlimit="10" stroke-dasharray="" stroke-dashoffset="0" font-family="none" font-weight="none" font-size="none" text-anchor="none" style="mix-blend-mode: normal"><g transform="scale(3.58333,3.58333)"><path d="M37,46v-1l-6.8,-1c-2.488,-0.974 -3.268,-2.4 -3.2,-4h-1.057h-3.886h-1.057c0.068,1.6 -0.712,3.026 -3.2,4l-6.8,1v1l2.4,1c5.952,-0.902 7.679,-0.99 10.6,-0.999c2.921,0.009 4.648,0.097 10.6,0.999z" fill="url(#color-1_iCwcOoy8tOGw_gr1)"></path><path d="M37,45l-6.8,-2c-2.488,-0.974 -3.268,-2.4 -3.2,-4h-1.057h-3.886h-1.057c0.068,1.6 -0.712,3.026 -3.2,4l-6.8,2l2.4,1c5.952,-0.902 7.679,-0.99 10.6,-0.999c2.921,0.009 4.648,0.097 10.6,0.999z" fill="url(#color-2_iCwcOoy8tOGw_gr2)"></path><path d="M24.498,42h-0.995c-0.83,0 -1.503,-0.673 -1.503,-1.502v-14.86h4v14.859c0,0.83 -0.673,1.503 -1.502,1.503z" fill="url(#color-3_iCwcOoy8tOGw_gr3)"></path><path d="M46.559,36h-45.118c-0.243,0 -0.441,-0.198 -0.441,-0.441v-32.118c0,-0.243 0.198,-0.441 0.441,-0.441h45.117c0.244,0 0.442,0.198 0.442,0.441v32.117c0,0.244 -0.198,0.442 -0.441,0.442z" fill="url(#color-4_iCwcOoy8tOGw_gr4)"></path><rect x="2.404" y="4.276" width="43.191" height="29.278" fill="url(#color-5_iCwcOoy8tOGw_gr5)"></rect><rect x="3" y="5" width="42" height="28" fill="url(#color-6_iCwcOoy8tOGw_gr6)"></rect><path d="M34,3h-32.495c-0.279,0 -0.505,0.226 -0.505,0.505v32.047c0,0.246 0.2,0.446 0.446,0.446h8.836z" fill="url(#color-7_iCwcOoy8tOGw_gr7)"></path></g></g></svg>