<svg xmlns="http://www.w3.org/2000/svg" x="0px" y="0px"
width="48" height="48"
viewBox="0 0 172 172"
style=" fill:#000000;"><defs><radialGradient cx="86" cy="-888.66667" r="64.5" fx="85.65958" fy="-916.29775" gradientUnits="userSpaceOnUse" id="color-1_GYuFNlTpnzV0_gr1"><stop offset="0" stop-color="#ffe16e"></stop><stop offset="0.629" stop-color="#ffd226"></stop><stop offset="0.75" stop-color="#fdcd23"></stop><stop offset="0.899" stop-color="#f6bd1b"></stop><stop offset="0.999" stop-color="#f0af13"></stop></radialGradient><radialGradient cx="86" cy="95.95808" r="40.02942" fx="85.97133" fy="97.4595" gradientUnits="userSpaceOnUse" id="color-2_GYuFNlTpnzV0_gr2"><stop offset="0.371" stop-color="#ffd226"></stop><stop offset="0.948" stop-color="#ffe16e"></stop><stop offset="1" stop-color="#ffe16e" stop-opacity="0"></stop></radialGradient><radialGradient cx="86.5375" cy="91.69392" r="42.50908" gradientUnits="userSpaceOnUse" id="color-3_GYuFNlTpnzV0_gr3"><stop offset="0" stop-color="#1c1911"></stop><stop offset="0.999" stop-color="#171714"></stop></radialGradient><radialGradient cx="86.00058" cy="138.78608" r="21.1775" gradientUnits="userSpaceOnUse" id="color-4_GYuFNlTpnzV0_gr4"><stop offset="0.456" stop-color="#db4a59"></stop><stop offset="0.602" stop-color="#d84756"></stop><stop offset="0.729" stop-color="#cd3e4d"></stop><stop offset="0.85" stop-color="#bb303e"></stop><stop offset="0.965" stop-color="#a21b29"></stop><stop offset="0.999" stop-color="#991421"></stop></radialGradient><radialGradient cx="86.36192" cy="104.73008" r="37.19858" gradientUnits="userSpaceOnUse" id="color-5_GYuFNlTpnzV0_gr5"><stop offset="0.819" stop-color="#cc9000"></stop><stop offset="0.988" stop-color="#fbbc23" stop-opacity="0.069"></stop><stop offset="1" stop-color="#ffbf26" stop-opacity="0"></stop></radialGradient><linearGradient x1="53.75" y1="102.125" x2="118.25" y2="102.125" gradientUnits="userSpaceOnUse" id="color-6_GYuFNlTpnzV0_gr6"><stop offset="0.001" stop-color="#968f72"></stop><stop offset="0.048" stop-color="#b2ad97"></stop><stop offset="0.098" stop-color="#cac6b7"></stop><stop offset="0.153" stop-color="#dddbd2"></stop><stop offset="0.213" stop-color="#ecebe6"></stop><stop offset="0.281" stop-color="#f7f6f4"></stop><stop offset="0.363" stop-color="#fdfdfc"></stop><stop offset="0.5" stop-color="#ffffff"></stop><stop offset="0.637" stop-color="#fdfdfc"></stop><stop offset="0.719" stop-color="#f7f6f4"></stop><stop offset="0.787" stop-color="#ecebe6"></stop><stop offset="0.847" stop-color="#dddbd2"></stop><stop offset="0.902" stop-color="#cac6b7"></stop><stop offset="0.952" stop-color="#b2ad97"></stop><stop offset="1" stop-color="#968f72"></stop></linearGradient><linearGradient x1="112.90725" y1="42.5915" x2="112.90725" y2="84.13308" gradientUnits="userSpaceOnUse" id="color-7_GYuFNlTpnzV0_gr7"><stop offset="0.001" stop-color="#ff634f"></stop><stop offset="0.628" stop-color="#ee4023"></stop><stop offset="1" stop-color="#e62f0e"></stop></linearGradient><linearGradient x1="59.09275" y1="42.86742" x2="59.09275" y2="85.27258" gradientUnits="userSpaceOnUse" id="color-8_GYuFNlTpnzV0_gr8"><stop offset="0.001" stop-color="#ff634f"></stop><stop offset="0.628" stop-color="#ee4023"></stop><stop offset="1" stop-color="#e62f0e"></stop></linearGradient></defs><g fill="none" fill-rule="nonzero" stroke="none" stroke-width="1" stroke-linecap="butt" stroke-linejoin="miter" stroke-miterlimit="10" stroke-dasharray="" stroke-dashoffset="0" font-family="none" font-weight="none" font-size="none" text-anchor="none" style="mix-blend-mode: normal"><path d="M0,172v-172h172v172z" fill="none"></path><g><circle cx="24" cy="24" transform="scale(3.58333,3.58333)" r="18" fill="url(#color-1_GYuFNlTpnzV0_gr1)"></circle><path d="M125.41667,93.16667c0,0 0.49808,43 -39.41667,43c-39.91475,0 -39.41667,-43 -39.41667,-43c0,0 8.75767,0 39.41667,0c30.659,0 39.41667,0 39.41667,0z" fill="url(#color-2_GYuFNlTpnzV0_gr2)"></path><path d="M125.41667,93.16667c0,21.76875 -17.64792,39.41667 -39.41667,39.41667c-21.76875,0 -39.41667,-17.64792 -39.41667,-39.41667z" fill="url(#color-3_GYuFNlTpnzV0_gr3)"></path><path d="M89.58333,118.25c-1.849,0 -3.58333,1.79167 -3.58333,1.79167c0,0 -1.73433,-1.79167 -3.58333,-1.79167c-7.45692,0 -12.2765,7.01975 -12.2765,7.01975c4.78733,2.37575 10.16592,3.73025 15.85983,3.73025c5.69392,0 11.0725,-1.3545 15.85983,-3.73025c0,0 -4.81958,-7.01975 -12.2765,-7.01975z" fill="url(#color-4_GYuFNlTpnzV0_gr4)"></path><path d="M86,136.16667c-12.48433,0 -23.79333,-4.93783 -32.15683,-12.93225c5.83008,11.8895 18.02058,20.09892 32.15683,20.09892c14.13625,0 26.32675,-8.20942 32.15683,-20.09892c-8.3635,7.99442 -19.6725,12.93225 -32.15683,12.93225z" fill="url(#color-5_GYuFNlTpnzV0_gr5)"></path><path d="M53.75,96.75v3.58333c0,3.95958 3.20708,7.16667 7.16667,7.16667h50.16667c3.95958,0 7.16667,-3.20708 7.16667,-7.16667v-3.58333z" fill="url(#color-6_GYuFNlTpnzV0_gr6)"></path><path d="M115.03575,44.32942l5.55775,11.59567l12.74592,1.70208c1.96725,0.26158 2.752,2.68392 1.31508,4.05275l-9.3095,8.86875l2.31842,12.64558c0.35833,1.94933 -1.70208,3.44717 -3.44717,2.50475l-11.309,-6.11317l-11.309,6.11317c-1.74508,0.94242 -3.8055,-0.55542 -3.44717,-2.50475l2.31842,-12.64558l-9.3095,-8.86875c-1.43692,-1.36883 -0.64858,-3.79117 1.31508,-4.05275l12.74592,-1.70208l5.55775,-11.59567c0.85283,-1.78808 3.40058,-1.78808 4.257,0z" fill="url(#color-7_GYuFNlTpnzV0_gr7)"></path><path d="M56.96425,44.32942l-5.55775,11.59567l-12.74592,1.70208c-1.96725,0.26158 -2.752,2.68392 -1.31508,4.05275l9.3095,8.86875l-2.31842,12.64558c-0.35833,1.94933 1.70208,3.44717 3.44717,2.50475l11.309,-6.11317l11.309,6.11317c1.74508,0.94242 3.8055,-0.55542 3.44717,-2.50475l-2.31842,-12.64558l9.3095,-8.86875c1.43692,-1.36883 0.64858,-3.79117 -1.31508,-4.05275l-12.74592,-1.70208l-5.55775,-11.59567c-0.85283,-1.78808 -3.40058,-1.78808 -4.257,0z" fill="url(#color-8_GYuFNlTpnzV0_gr8)"></path></g></g></svg>