<svg xmlns="http://www.w3.org/2000/svg" x="0px" y="0px"
width="48" height="48"
viewBox="0 0 172 172"
style=" fill:#000000;"><defs><radialGradient cx="39.20861" cy="28.5595" r="2.22663" gradientUnits="userSpaceOnUse" id="color-1_pT5UBaK8aOM__gr1"><stop offset="0" stop-color="#ffe16e"></stop><stop offset="0.461" stop-color="#ffd226"></stop><stop offset="0.741" stop-color="#f8c21d"></stop><stop offset="0.999" stop-color="#f0af13"></stop></radialGradient><radialGradient cx="8.77267" cy="28.53018" r="2.21545" gradientUnits="userSpaceOnUse" id="color-2_pT5UBaK8aOM__gr2"><stop offset="0" stop-color="#ffe16e"></stop><stop offset="0.461" stop-color="#ffd226"></stop><stop offset="0.741" stop-color="#f8c21d"></stop><stop offset="0.999" stop-color="#f0af13"></stop></radialGradient><radialGradient cx="23.99995" cy="25.83249" r="16.22394" fx="23.91439" fy="34.35633" gradientUnits="userSpaceOnUse" id="color-3_pT5UBaK8aOM__gr3"><stop offset="0" stop-color="#ffe16e"></stop><stop offset="0.629" stop-color="#ffd226"></stop><stop offset="0.75" stop-color="#fdcd23"></stop><stop offset="0.899" stop-color="#f6bd1b"></stop><stop offset="0.999" stop-color="#f0af13"></stop></radialGradient><radialGradient cx="24.31521" cy="13.7098" r="14.37397" gradientUnits="userSpaceOnUse" id="color-4_pT5UBaK8aOM__gr4"><stop offset="0" stop-color="#aa8765"></stop><stop offset="0.059" stop-color="#a17c58"></stop><stop offset="0.165" stop-color="#956d47"></stop><stop offset="0.28" stop-color="#8e653c"></stop><stop offset="0.418" stop-color="#8c6239"></stop><stop offset="0.583" stop-color="#875d34"></stop><stop offset="0.789" stop-color="#774e27"></stop><stop offset="0.999" stop-color="#603813"></stop></radialGradient><radialGradient cx="24.09122" cy="14.16717" r="14.40919" gradientUnits="userSpaceOnUse" id="color-5_pT5UBaK8aOM__gr5"><stop offset="0" stop-color="#aa8765"></stop><stop offset="0.059" stop-color="#a17c58"></stop><stop offset="0.165" stop-color="#956d47"></stop><stop offset="0.28" stop-color="#8e653c"></stop><stop offset="0.418" stop-color="#8c6239"></stop><stop offset="0.583" stop-color="#875d34"></stop><stop offset="0.789" stop-color="#774e27"></stop><stop offset="0.999" stop-color="#603813"></stop></radialGradient><radialGradient cx="24.10036" cy="14.27027" r="14.34243" gradientUnits="userSpaceOnUse" id="color-6_pT5UBaK8aOM__gr6"><stop offset="0" stop-color="#a58260"></stop><stop offset="0.048" stop-color="#9e7956"></stop><stop offset="0.158" stop-color="#926b45"></stop><stop offset="0.276" stop-color="#8b623a"></stop><stop offset="0.418" stop-color="#895f37"></stop><stop offset="0.59" stop-color="#845a32"></stop><stop offset="0.804" stop-color="#744b25"></stop><stop offset="0.999" stop-color="#603813"></stop></radialGradient><radialGradient cx="24.11742" cy="14.37337" r="14.28157" gradientUnits="userSpaceOnUse" id="color-7_pT5UBaK8aOM__gr7"><stop offset="0" stop-color="#a17d5b"></stop><stop offset="0.04" stop-color="#9c7653"></stop><stop offset="0.152" stop-color="#906842"></stop><stop offset="0.273" stop-color="#896037"></stop><stop offset="0.418" stop-color="#875d34"></stop><stop offset="0.595" stop-color="#82582f"></stop><stop offset="0.816" stop-color="#724922"></stop><stop offset="0.999" stop-color="#603813"></stop></radialGradient><radialGradient cx="24.13148" cy="14.47748" r="14.23459" gradientUnits="userSpaceOnUse" id="color-8_pT5UBaK8aOM__gr8"><stop offset="0" stop-color="#9c7856"></stop><stop offset="0.027" stop-color="#997451"></stop><stop offset="0.143" stop-color="#8d6540"></stop><stop offset="0.268" stop-color="#865d35"></stop><stop offset="0.418" stop-color="#845a32"></stop><stop offset="0.604" stop-color="#7f552d"></stop><stop offset="0.836" stop-color="#6f4620"></stop><stop offset="0.999" stop-color="#603813"></stop></radialGradient><radialGradient cx="24.13258" cy="14.58158" r="14.19454" gradientUnits="userSpaceOnUse" id="color-9_pT5UBaK8aOM__gr9"><stop offset="0" stop-color="#987351"></stop><stop offset="0.012" stop-color="#96714f"></stop><stop offset="0.132" stop-color="#8a633e"></stop><stop offset="0.262" stop-color="#835b33"></stop><stop offset="0.418" stop-color="#815830"></stop><stop offset="0.614" stop-color="#7c532b"></stop><stop offset="0.858" stop-color="#6c441e"></stop><stop offset="0.999" stop-color="#603813"></stop></radialGradient><radialGradient cx="24.13165" cy="14.68569" r="14.15743" gradientUnits="userSpaceOnUse" id="color-10_pT5UBaK8aOM__gr10"><stop offset="0" stop-color="#936e4b"></stop><stop offset="0.121" stop-color="#87603b"></stop><stop offset="0.256" stop-color="#805830"></stop><stop offset="0.418" stop-color="#7e552d"></stop><stop offset="0.626" stop-color="#795028"></stop><stop offset="0.884" stop-color="#69411b"></stop><stop offset="0.999" stop-color="#603813"></stop></radialGradient><radialGradient cx="24.13268" cy="14.78979" r="14.1173" gradientUnits="userSpaceOnUse" id="color-11_pT5UBaK8aOM__gr11"><stop offset="0" stop-color="#8e6946"></stop><stop offset="0.107" stop-color="#855e39"></stop><stop offset="0.248" stop-color="#7e552e"></stop><stop offset="0.418" stop-color="#7c522b"></stop><stop offset="0.634" stop-color="#774d26"></stop><stop offset="0.903" stop-color="#673f19"></stop><stop offset="0.999" stop-color="#603813"></stop></radialGradient><radialGradient cx="24.13367" cy="14.89389" r="14.07913" gradientUnits="userSpaceOnUse" id="color-12_pT5UBaK8aOM__gr12"><stop offset="0" stop-color="#8a6441"></stop><stop offset="0.096" stop-color="#825b36"></stop><stop offset="0.243" stop-color="#7b532b"></stop><stop offset="0.418" stop-color="#795028"></stop><stop offset="0.649" stop-color="#744b23"></stop><stop offset="0.937" stop-color="#643c17"></stop><stop offset="0.999" stop-color="#603813"></stop></radialGradient><radialGradient cx="24.13363" cy="14.998" r="14.04092" gradientUnits="userSpaceOnUse" id="color-13_pT5UBaK8aOM__gr13"><stop offset="0" stop-color="#85603c"></stop><stop offset="0.078" stop-color="#7f5934"></stop><stop offset="0.233" stop-color="#785029"></stop><stop offset="0.418" stop-color="#764d26"></stop><stop offset="0.668" stop-color="#714821"></stop><stop offset="0.979" stop-color="#613914"></stop><stop offset="0.999" stop-color="#603813"></stop></radialGradient><radialGradient cx="24.13355" cy="15.1021" r="14.00268" gradientUnits="userSpaceOnUse" id="color-14_pT5UBaK8aOM__gr14"><stop offset="0" stop-color="#805b37"></stop><stop offset="0.056" stop-color="#7c5632"></stop><stop offset="0.221" stop-color="#754d27"></stop><stop offset="0.418" stop-color="#734a24"></stop><stop offset="0.691" stop-color="#6e451f"></stop><stop offset="0.999" stop-color="#603813"></stop></radialGradient><radialGradient cx="24.13443" cy="15.20521" r="13.9644" gradientUnits="userSpaceOnUse" id="color-15_pT5UBaK8aOM__gr15"><stop offset="0" stop-color="#7c5632"></stop><stop offset="0.038" stop-color="#7a532f"></stop><stop offset="0.211" stop-color="#734b24"></stop><stop offset="0.418" stop-color="#714821"></stop><stop offset="0.709" stop-color="#6c431d"></stop><stop offset="0.999" stop-color="#603813"></stop></radialGradient><radialGradient cx="24.13528" cy="15.30931" r="13.92609" gradientUnits="userSpaceOnUse" id="color-16_pT5UBaK8aOM__gr16"><stop offset="0" stop-color="#77512d"></stop><stop offset="0.006" stop-color="#77512d"></stop><stop offset="0.193" stop-color="#704822"></stop><stop offset="0.418" stop-color="#6e451f"></stop><stop offset="0.745" stop-color="#69401a"></stop><stop offset="0.999" stop-color="#603813"></stop></radialGradient><radialGradient cx="24.1341" cy="15.41241" r="13.88974" gradientUnits="userSpaceOnUse" id="color-17_pT5UBaK8aOM__gr17"><stop offset="0" stop-color="#734c28"></stop><stop offset="0.178" stop-color="#6d451f"></stop><stop offset="0.418" stop-color="#6b431c"></stop><stop offset="0.796" stop-color="#663e18"></stop><stop offset="0.999" stop-color="#603813"></stop></radialGradient><radialGradient cx="24.13588" cy="15.51652" r="13.85136" gradientUnits="userSpaceOnUse" id="color-18_pT5UBaK8aOM__gr18"><stop offset="0" stop-color="#6e4722"></stop><stop offset="0.132" stop-color="#6a431d"></stop><stop offset="0.418" stop-color="#68401a"></stop><stop offset="0.875" stop-color="#633b15"></stop><stop offset="0.999" stop-color="#603813"></stop></radialGradient><radialGradient cx="24.13662" cy="15.62062" r="13.81394" gradientUnits="userSpaceOnUse" id="color-19_pT5UBaK8aOM__gr19"><stop offset="0" stop-color="#69421d"></stop><stop offset="0.068" stop-color="#68401b"></stop><stop offset="0.418" stop-color="#663d18"></stop><stop offset="0.961" stop-color="#613914"></stop><stop offset="0.999" stop-color="#603813"></stop></radialGradient><radialGradient cx="24.13733" cy="15.72473" r="13.77649" gradientUnits="userSpaceOnUse" id="color-20_pT5UBaK8aOM__gr20"><stop offset="0" stop-color="#653d18"></stop><stop offset="0.418" stop-color="#633b15"></stop><stop offset="0.999" stop-color="#603813"></stop></radialGradient><radialGradient cx="23.95121" cy="38.92013" r="4.14789" gradientUnits="userSpaceOnUse" id="color-21_pT5UBaK8aOM__gr21"><stop offset="0.696" stop-color="#cc9000"></stop><stop offset="0.779" stop-color="#d39806" stop-opacity="0.728"></stop><stop offset="0.909" stop-color="#e7af17" stop-opacity="0.298"></stop><stop offset="1" stop-color="#f8c326" stop-opacity="0"></stop></radialGradient><radialGradient cx="23.99756" cy="38.19601" r="4.63546" fx="23.9944" fy="38.09115" gradientUnits="userSpaceOnUse" id="color-22_pT5UBaK8aOM__gr22"><stop offset="0.371" stop-color="#ffd226"></stop><stop offset="0.948" stop-color="#ffe16e"></stop><stop offset="1" stop-color="#ffe16e" stop-opacity="0"></stop></radialGradient><radialGradient cx="24.06377" cy="36.88673" r="3.90901" gradientUnits="userSpaceOnUse" id="color-23_pT5UBaK8aOM__gr23"><stop offset="0" stop-color="#1c1911"></stop><stop offset="0.999" stop-color="#171714"></stop></radialGradient><linearGradient x1="14" y1="27.5" x2="19" y2="27.5" gradientUnits="userSpaceOnUse" id="color-24_pT5UBaK8aOM__gr24"><stop offset="0" stop-color="#c69c6d"></stop><stop offset="1" stop-color="#754c24"></stop></linearGradient><radialGradient cx="16.5" cy="27.5" r="1.266" gradientUnits="userSpaceOnUse" id="color-25_pT5UBaK8aOM__gr25"><stop offset="0" stop-color="#1c1911"></stop><stop offset="0.999" stop-color="#171714"></stop></radialGradient><linearGradient x1="29" y1="27.5" x2="34" y2="27.5" gradientUnits="userSpaceOnUse" id="color-26_pT5UBaK8aOM__gr26"><stop offset="0" stop-color="#c69c6d"></stop><stop offset="1" stop-color="#754c24"></stop></linearGradient><radialGradient cx="31.5" cy="27.5" r="1.266" gradientUnits="userSpaceOnUse" id="color-27_pT5UBaK8aOM__gr27"><stop offset="0" stop-color="#1c1911"></stop><stop offset="0.999" stop-color="#171714"></stop></radialGradient><radialGradient cx="23.90546" cy="32.51637" r="3.44007" gradientUnits="userSpaceOnUse" id="color-28_pT5UBaK8aOM__gr28"><stop offset="0.62" stop-color="#cc9000"></stop><stop offset="0.862" stop-color="#eebd20" stop-opacity="0.363"></stop><stop offset="1" stop-color="#fed12e" stop-opacity="0"></stop></radialGradient><radialGradient cx="24.1222" cy="31.76146" r="8.9792" gradientUnits="userSpaceOnUse" id="color-29_pT5UBaK8aOM__gr29"><stop offset="0" stop-color="#c69c6d"></stop><stop offset="0.53" stop-color="#956b41"></stop><stop offset="0.626" stop-color="#8c6239"></stop><stop offset="0.849" stop-color="#734a23"></stop><stop offset="0.992" stop-color="#603813"></stop></radialGradient><radialGradient cx="23.9237" cy="31.51993" r="3.25316" gradientUnits="userSpaceOnUse" id="color-30_pT5UBaK8aOM__gr30"><stop offset="0.479" stop-color="#fed53f"></stop><stop offset="0.926" stop-color="#fed53f" stop-opacity="0.141"></stop><stop offset="1" stop-color="#fed53f" stop-opacity="0"></stop></radialGradient><radialGradient cx="23.89" cy="31.5309" r="1.793" gradientUnits="userSpaceOnUse" id="color-31_pT5UBaK8aOM__gr31"><stop offset="0.004" stop-color="#fff4c9"></stop><stop offset="1" stop-color="#fff4c9" stop-opacity="0"></stop></radialGradient></defs><g fill="none" fill-rule="nonzero" stroke="none" stroke-width="1" stroke-linecap="butt" stroke-linejoin="miter" stroke-miterlimit="10" stroke-dasharray="" stroke-dashoffset="0" font-family="none" font-weight="none" font-size="none" text-anchor="none" style="mix-blend-mode: normal"><g transform="scale(3.58333,3.58333)"><path d="M38.442,25.118c1.015,-0.309 3.467,-0.112 3.552,2.722c0.08,2.679 -0.62,3.9 -1.55,5.051c-1.043,1.29 -2.919,1.281 -2.765,0.256c0.154,-1.027 0.763,-8.029 0.763,-8.029z" fill="url(#color-1_pT5UBaK8aOM__gr1)"></path><path d="M9.54,25.118c-1.01,-0.309 -3.527,-0.113 -3.533,2.722c-0.007,2.743 0.616,3.9 1.542,5.05c1.038,1.29 2.904,1.281 2.75,0.256c-0.154,-1.026 -0.759,-8.028 -0.759,-8.028z" fill="url(#color-2_pT5UBaK8aOM__gr2)"></path><path d="M40,25.288c0,3.676 -0.241,8.47 -1.675,11.411c-2.794,5.729 -10.231,9.301 -14.325,9.301c-4.255,0 -11.61,-3.572 -14.404,-9.301c-1.434,-2.941 -1.596,-7.735 -1.596,-11.411c0,-0.807 0.022,-1.57 0.064,-2.293c0.244,-4.161 1.176,-7.029 2.622,-9.682c2.869,-5.268 7.761,-7.647 13.314,-7.647c5.523,0 10.392,2.342 13.267,7.561c1.726,3.132 2.733,6.61 2.733,12.061z" fill="url(#color-3_pT5UBaK8aOM__gr3)"></path><path d="M8.417,26.042c0,0 0.414,-5.022 0.155,-6.488c1.166,-0.829 4.354,-3.309 3.835,-7.198c1.49,1.211 9.136,6.311 21.383,2.295c2.721,3.251 3.24,3.379 5.313,4.59c0.518,1.402 0.713,6.001 0.648,6.766c-0.065,0.765 0.907,1.339 1.361,-0.255c0.143,-0.502 0.787,-4.811 0.878,-7.767c0.198,-6.432 -2.22,-15.983 -18.114,-15.983c-15.418,-0.001 -17.875,9.598 -17.875,16.127c0,3.996 0.707,7.621 0.707,7.621c0.178,0.954 1.499,1.119 1.709,0.292z" fill="url(#color-4_pT5UBaK8aOM__gr4)"></path><path d="M40.541,17.156c-0.038,-0.125 -0.129,-0.227 -0.241,-0.293c-1.853,-1.091 -3.382,-3.422 -5.804,-6.338c-0.135,-0.163 -0.361,-0.23 -0.561,-0.166c-10.308,3.32 -18.961,0.098 -21.866,-1.766c-0.368,-0.236 -0.79,0.057 -0.791,0.496c-0.016,5.348 -2.237,7.762 -3.897,8.629c-0.197,0.103 -0.289,0.301 -0.299,0.524c-0.074,1.726 -0.26,5.289 0.028,7.02c0.051,0.379 0.085,0.609 0.085,0.609c0.175,0.962 1.135,0.787 1.252,0.17c0,0 0.363,-4.507 0.189,-6.256c-0.018,-0.18 0.065,-0.355 0.21,-0.462c1.207,-0.883 3.844,-2.942 4.007,-6.023c0.022,-0.411 0.46,-0.662 0.801,-0.434c2.571,1.73 9.529,5.152 19.884,1.801c0.201,-0.065 0.429,0.003 0.564,0.166c2.407,2.914 2.987,3.151 4.825,4.24c0.112,0.067 0.205,0.169 0.242,0.295c0.465,1.595 0.639,5.891 0.578,6.631c-0.064,0.771 0.894,1.349 1.34,-0.257c0.018,-0.065 0.044,-0.195 0.077,-0.375c0.215,-1.117 -0.145,-6.615 -0.623,-8.211z" fill="url(#color-5_pT5UBaK8aOM__gr5)"></path><path d="M11.316,9.24c0.003,4.696 -1.803,7.137 -3.368,8.211c-0.191,0.131 -0.374,0.251 -0.543,0.352c-0.182,0.109 -0.269,0.305 -0.277,0.527c-0.047,1.395 -0.171,3.938 -0.087,5.67c0.014,0.462 0.027,0.87 0.058,1.196c0.004,0.024 0.007,0.047 0.011,0.07c0.051,0.377 0.084,0.605 0.084,0.605c0.175,0.962 1.13,0.784 1.248,0.163c0,0 0.367,-4.5 0.194,-6.249c-0.018,-0.18 0.065,-0.355 0.21,-0.462c1.207,-0.883 3.844,-2.942 4.007,-6.023c0.022,-0.411 0.46,-0.662 0.801,-0.434c2.571,1.73 9.529,5.152 19.884,1.801c0.201,-0.065 0.429,0.003 0.564,0.166c2.407,2.914 2.987,3.151 4.825,4.24c0.112,0.067 0.205,0.169 0.242,0.295c0.465,1.595 0.639,5.891 0.578,6.631c-0.064,0.771 0.894,1.349 1.34,-0.257c0.018,-0.065 0.044,-0.195 0.077,-0.375c0.024,-0.206 0.024,-0.679 0.023,-1.274c-0.01,-1.985 -0.312,-5.62 -0.69,-6.881c-0.037,-0.124 -0.127,-0.224 -0.237,-0.29c-0.023,-0.014 -0.046,-0.028 -0.069,-0.042c-1.824,-1.107 -3.3,-3.286 -5.694,-6.168c-0.135,-0.163 -0.361,-0.23 -0.561,-0.166c-10.308,3.32 -18.922,0.061 -21.827,-1.803c-0.369,-0.235 -0.794,0.059 -0.793,0.497z" fill="url(#color-6_pT5UBaK8aOM__gr6)"></path><path d="M11.355,9.391c0.021,4.627 -1.828,7.074 -3.399,8.134c-0.192,0.129 -0.37,0.256 -0.527,0.364c-0.168,0.115 -0.249,0.309 -0.255,0.53c-0.039,1.427 -0.156,4.009 -0.077,5.625c0.005,0.462 -0.005,0.857 0.003,1.157c0.004,0.024 0.007,0.047 0.011,0.07c0.051,0.374 0.084,0.601 0.084,0.601c0.175,0.962 1.125,0.781 1.243,0.156c0,0 0.372,-4.493 0.198,-6.242c-0.018,-0.18 0.065,-0.355 0.21,-0.462c1.207,-0.883 3.844,-2.942 4.007,-6.023c0.022,-0.411 0.46,-0.662 0.801,-0.434c2.571,1.73 9.529,5.152 19.884,1.801c0.201,-0.065 0.429,0.003 0.564,0.166c2.407,2.914 2.987,3.151 4.825,4.24c0.112,0.067 0.205,0.169 0.242,0.295c0.465,1.595 0.639,5.891 0.578,6.631c-0.064,0.771 0.894,1.349 1.34,-0.257c0.018,-0.065 0.044,-0.195 0.077,-0.375c0,-0.162 -0.018,-0.639 -0.018,-1.233c0.001,-1.902 -0.309,-5.582 -0.693,-6.866c-0.037,-0.122 -0.124,-0.221 -0.232,-0.287c-0.023,-0.014 -0.046,-0.028 -0.069,-0.042c-1.826,-1.106 -3.258,-3.155 -5.654,-6.039c-0.135,-0.163 -0.361,-0.23 -0.561,-0.166c-10.308,3.32 -18.883,0.024 -21.788,-1.84c-0.37,-0.236 -0.797,0.057 -0.794,0.496z" fill="url(#color-7_pT5UBaK8aOM__gr7)"></path><path d="M11.394,9.541c0.039,4.559 -1.853,7.011 -3.43,8.058c-0.192,0.127 -0.365,0.261 -0.511,0.375c-0.153,0.12 -0.229,0.313 -0.233,0.534c-0.029,1.46 -0.141,4.08 -0.068,5.58c-0.003,0.462 -0.038,0.843 -0.052,1.117c0.004,0.023 0.007,0.047 0.011,0.069c0.05,0.372 0.083,0.597 0.083,0.597c0.175,0.962 1.12,0.778 1.239,0.149c0,0 0.376,-4.486 0.202,-6.235c-0.018,-0.18 0.065,-0.355 0.21,-0.462c1.207,-0.883 3.844,-2.942 4.007,-6.023c0.022,-0.411 0.46,-0.662 0.801,-0.434c2.571,1.73 9.529,5.152 19.884,1.801c0.201,-0.065 0.429,0.003 0.564,0.166c2.407,2.914 2.987,3.151 4.825,4.24c0.112,0.067 0.205,0.169 0.242,0.295c0.465,1.595 0.639,5.891 0.578,6.631c-0.064,0.771 0.894,1.349 1.34,-0.257c0.018,-0.065 0.044,-0.195 0.077,-0.375c-0.025,-0.118 -0.062,-0.598 -0.059,-1.191c0.008,-1.819 -0.306,-5.545 -0.697,-6.851c-0.036,-0.12 -0.122,-0.218 -0.228,-0.284c-0.023,-0.014 -0.046,-0.029 -0.069,-0.043c-1.828,-1.104 -3.216,-3.025 -5.613,-5.911c-0.135,-0.163 -0.361,-0.23 -0.561,-0.166c-10.308,3.32 -18.844,-0.013 -21.749,-1.877c-0.369,-0.235 -0.798,0.059 -0.793,0.497z" fill="url(#color-8_pT5UBaK8aOM__gr8)"></path><path d="M11.433,9.692c0.056,4.491 -1.877,6.948 -3.461,7.981c-0.192,0.126 -0.36,0.265 -0.494,0.386c-0.138,0.125 -0.209,0.317 -0.212,0.537c-0.019,1.493 -0.126,4.151 -0.058,5.536c-0.012,0.462 -0.07,0.829 -0.107,1.078c0.004,0.023 0.007,0.046 0.011,0.069c0.05,0.37 0.083,0.593 0.083,0.593c0.175,0.962 1.115,0.775 1.235,0.142c0,0 0.38,-4.479 0.207,-6.228c-0.018,-0.18 0.065,-0.355 0.21,-0.462c1.207,-0.883 3.844,-2.942 4.007,-6.023c0.022,-0.411 0.46,-0.662 0.801,-0.434c2.571,1.73 9.529,5.152 19.884,1.801c0.201,-0.065 0.429,0.003 0.564,0.166c2.407,2.914 2.987,3.151 4.825,4.24c0.112,0.067 0.205,0.169 0.242,0.295c0.465,1.595 0.639,5.891 0.578,6.631c-0.064,0.771 0.894,1.349 1.34,-0.257c0.018,-0.065 0.044,-0.195 0.077,-0.375c-0.049,-0.074 -0.105,-0.557 -0.1,-1.149c0.015,-1.736 -0.303,-5.508 -0.701,-6.836c-0.036,-0.119 -0.12,-0.215 -0.224,-0.281c-0.023,-0.014 -0.046,-0.029 -0.069,-0.043c-1.83,-1.103 -3.173,-2.894 -5.573,-5.783c-0.135,-0.163 -0.361,-0.23 -0.561,-0.166c-10.308,3.32 -18.804,-0.05 -21.71,-1.914c-0.37,-0.236 -0.801,0.057 -0.794,0.496z" fill="url(#color-9_pT5UBaK8aOM__gr9)"></path><path d="M11.472,9.842c0.074,4.422 -1.902,6.885 -3.492,7.904c-0.193,0.124 -0.356,0.269 -0.478,0.398c-0.124,0.13 -0.189,0.321 -0.19,0.54c-0.008,1.526 -0.111,4.221 -0.049,5.491c-0.02,0.462 -0.102,0.816 -0.162,1.039c0.003,0.023 0.007,0.046 0.01,0.068c0.05,0.367 0.082,0.589 0.082,0.589c0.175,0.962 1.11,0.773 1.23,0.135c0,0 0.385,-4.472 0.211,-6.221c-0.018,-0.18 0.065,-0.355 0.21,-0.462c1.207,-0.883 3.844,-2.942 4.007,-6.023c0.022,-0.411 0.46,-0.662 0.801,-0.434c2.571,1.73 9.529,5.152 19.884,1.801c0.201,-0.065 0.429,0.003 0.564,0.166c2.407,2.914 2.987,3.151 4.825,4.24c0.112,0.067 0.205,0.169 0.242,0.295c0.465,1.595 0.639,5.891 0.578,6.631c-0.064,0.771 0.894,1.349 1.34,-0.257c0.018,-0.065 0.044,-0.195 0.077,-0.375c-0.073,-0.029 -0.149,-0.517 -0.141,-1.108c0.021,-1.653 -0.3,-5.471 -0.705,-6.821c-0.035,-0.117 -0.118,-0.212 -0.219,-0.278c-0.023,-0.015 -0.046,-0.029 -0.069,-0.043c-1.832,-1.102 -3.131,-2.763 -5.532,-5.654c-0.135,-0.163 -0.361,-0.23 -0.561,-0.166c-10.308,3.32 -18.765,-0.087 -21.671,-1.951c-0.368,-0.236 -0.801,0.058 -0.792,0.496z" fill="url(#color-10_pT5UBaK8aOM__gr10)"></path><path d="M11.512,9.993c0.101,4.353 -1.926,6.822 -3.523,7.827c-0.193,0.122 -0.351,0.273 -0.462,0.409c-0.109,0.135 -0.169,0.326 -0.168,0.543c0.003,1.558 -0.096,4.292 -0.039,5.447c-0.029,0.462 -0.134,0.802 -0.217,0.999c0.003,0.023 0.007,0.046 0.01,0.068c0.049,0.365 0.082,0.585 0.082,0.585c0.174,0.962 1.104,0.77 1.225,0.129c0,0 0.389,-4.465 0.215,-6.214c-0.018,-0.18 0.065,-0.355 0.21,-0.462c1.207,-0.883 3.844,-2.942 4.007,-6.023c0.022,-0.411 0.46,-0.662 0.801,-0.434c2.571,1.73 9.529,5.152 19.884,1.801c0.201,-0.065 0.429,0.003 0.564,0.166c2.407,2.914 2.987,3.151 4.825,4.24c0.112,0.067 0.205,0.169 0.242,0.295c0.465,1.595 0.639,5.891 0.578,6.631c-0.064,0.771 0.894,1.349 1.34,-0.257c0.018,-0.065 0.044,-0.195 0.077,-0.375c-0.098,0.015 -0.192,-0.476 -0.182,-1.066c0.027,-1.569 -0.297,-5.434 -0.708,-6.807c-0.034,-0.115 -0.115,-0.21 -0.215,-0.275c-0.023,-0.015 -0.046,-0.03 -0.069,-0.044c-1.834,-1.101 -3.089,-2.633 -5.492,-5.526c-0.135,-0.163 -0.361,-0.23 -0.561,-0.166c-10.308,3.32 -18.726,-0.124 -21.632,-1.988c-0.369,-0.235 -0.803,0.058 -0.792,0.497z" fill="url(#color-11_pT5UBaK8aOM__gr11)"></path><path d="M11.551,10.143c0.119,4.285 -1.951,6.759 -3.554,7.75c-0.193,0.12 -0.346,0.276 -0.446,0.421c-0.095,0.139 -0.148,0.33 -0.146,0.546c0.014,1.591 -0.08,4.363 -0.03,5.402c-0.037,0.461 -0.166,0.789 -0.272,0.96c0.003,0.023 0.007,0.046 0.01,0.068c0.049,0.362 0.081,0.581 0.081,0.581c0.175,0.962 1.099,0.767 1.222,0.121c0,0 0.393,-4.458 0.22,-6.207c-0.018,-0.18 0.065,-0.355 0.21,-0.462c1.207,-0.883 3.844,-2.942 4.007,-6.023c0.022,-0.411 0.46,-0.662 0.801,-0.434c2.571,1.73 9.529,5.152 19.884,1.801c0.201,-0.065 0.429,0.003 0.564,0.166c2.407,2.914 2.987,3.151 4.825,4.24c0.112,0.067 0.205,0.169 0.242,0.295c0.465,1.595 0.639,5.891 0.578,6.631c-0.064,0.771 0.894,1.349 1.34,-0.257c0.018,-0.065 0.044,-0.195 0.077,-0.375c-0.122,0.059 -0.236,-0.435 -0.223,-1.024c0.033,-1.486 -0.294,-5.396 -0.712,-6.792c-0.034,-0.113 -0.113,-0.207 -0.211,-0.272c-0.023,-0.015 -0.046,-0.03 -0.069,-0.044c-1.836,-1.1 -3.047,-2.502 -5.452,-5.398c-0.135,-0.163 -0.361,-0.23 -0.561,-0.166c-10.308,3.32 -18.687,-0.161 -21.592,-2.025c-0.37,-0.235 -0.806,0.059 -0.793,0.497z" fill="url(#color-12_pT5UBaK8aOM__gr12)"></path><path d="M11.59,10.294c0.137,4.216 -1.976,6.696 -3.585,7.673c-0.194,0.118 -0.342,0.279 -0.429,0.432c-0.081,0.143 -0.128,0.334 -0.125,0.55c0.025,1.624 -0.065,4.434 -0.02,5.357c-0.046,0.461 -0.198,0.775 -0.327,0.921c0.003,0.023 0.007,0.045 0.01,0.067c0.049,0.36 0.08,0.577 0.08,0.577c0.175,0.962 1.094,0.764 1.217,0.114c0,0 0.398,-4.451 0.224,-6.2c-0.018,-0.18 0.065,-0.355 0.21,-0.462c1.207,-0.883 3.844,-2.942 4.007,-6.023c0.022,-0.411 0.46,-0.662 0.801,-0.434c2.571,1.73 9.529,5.152 19.884,1.801c0.201,-0.065 0.429,0.003 0.564,0.166c2.407,2.914 2.987,3.151 4.825,4.24c0.112,0.067 0.205,0.169 0.242,0.295c0.465,1.595 0.639,5.891 0.578,6.631c-0.064,0.771 0.894,1.349 1.34,-0.257c0.018,-0.065 0.044,-0.195 0.077,-0.375c-0.146,0.103 -0.279,-0.395 -0.264,-0.983c0.038,-1.403 -0.292,-5.359 -0.716,-6.777c-0.033,-0.112 -0.111,-0.204 -0.206,-0.269c-0.023,-0.015 -0.046,-0.03 -0.069,-0.045c-1.838,-1.099 -3.004,-2.372 -5.411,-5.269c-0.135,-0.163 -0.361,-0.23 -0.561,-0.166c-10.308,3.32 -18.648,-0.198 -21.553,-2.062c-0.37,-0.234 -0.807,0.06 -0.793,0.498z" fill="url(#color-13_pT5UBaK8aOM__gr13)"></path><path d="M11.629,10.444c0.154,4.148 -2,6.633 -3.616,7.596c-0.194,0.116 -0.338,0.282 -0.413,0.444c-0.067,0.146 -0.108,0.338 -0.103,0.553c0.037,1.657 -0.05,4.505 -0.011,5.313c-0.054,0.461 -0.23,0.761 -0.382,0.881c0.003,0.023 0.007,0.045 0.01,0.067c0.048,0.358 0.08,0.573 0.08,0.573c0.175,0.962 1.089,0.761 1.213,0.107c0,0 0.402,-4.444 0.228,-6.193c-0.018,-0.18 0.065,-0.355 0.21,-0.462c1.207,-0.883 3.844,-2.942 4.007,-6.023c0.022,-0.411 0.46,-0.662 0.801,-0.434c2.571,1.73 9.529,5.152 19.884,1.801c0.201,-0.065 0.429,0.003 0.564,0.166c2.407,2.914 2.987,3.151 4.825,4.24c0.112,0.067 0.205,0.169 0.242,0.295c0.465,1.595 0.639,5.891 0.578,6.631c-0.064,0.771 0.894,1.349 1.34,-0.257c0.018,-0.065 0.044,-0.195 0.077,-0.375c-0.171,0.147 -0.323,-0.354 -0.305,-0.941c0.042,-1.32 -0.289,-5.322 -0.72,-6.762c-0.033,-0.11 -0.108,-0.201 -0.202,-0.266c-0.023,-0.016 -0.046,-0.031 -0.069,-0.045c-1.84,-1.098 -2.962,-2.241 -5.371,-5.141c-0.135,-0.163 -0.361,-0.23 -0.561,-0.166c-10.308,3.32 -18.609,-0.235 -21.514,-2.099c-0.368,-0.235 -0.808,0.059 -0.792,0.497z" fill="url(#color-14_pT5UBaK8aOM__gr14)"></path><path d="M11.668,10.595c0.171,4.079 -2.025,6.57 -3.647,7.519c-0.195,0.114 -0.335,0.284 -0.397,0.455c-0.054,0.15 -0.087,0.342 -0.081,0.556c0.049,1.69 -0.035,4.576 -0.001,5.268c-0.063,0.461 -0.262,0.748 -0.437,0.842c0.003,0.023 0.006,0.045 0.01,0.067c0.048,0.355 0.079,0.569 0.079,0.569c0.175,0.962 1.084,0.758 1.209,0.1c0,0 0.406,-4.437 0.233,-6.186c-0.018,-0.18 0.065,-0.355 0.21,-0.462c1.207,-0.883 3.844,-2.942 4.007,-6.023c0.022,-0.411 0.46,-0.662 0.801,-0.434c2.571,1.73 9.529,5.152 19.884,1.801c0.201,-0.065 0.429,0.003 0.564,0.166c2.407,2.914 2.987,3.151 4.825,4.24c0.112,0.067 0.205,0.169 0.242,0.295c0.465,1.595 0.639,5.891 0.578,6.631c-0.064,0.771 0.894,1.349 1.34,-0.257c0.018,-0.065 0.044,-0.195 0.077,-0.375c-0.195,0.191 -0.367,-0.313 -0.346,-0.899c0.046,-1.237 -0.286,-5.285 -0.724,-6.747c-0.032,-0.108 -0.106,-0.198 -0.198,-0.263c-0.022,-0.016 -0.046,-0.031 -0.069,-0.045c-1.842,-1.097 -2.92,-2.11 -5.331,-5.013c-0.135,-0.163 -0.361,-0.23 -0.561,-0.166c-10.308,3.32 -18.57,-0.272 -21.475,-2.136c-0.368,-0.235 -0.81,0.059 -0.792,0.497z" fill="url(#color-15_pT5UBaK8aOM__gr15)"></path><path d="M11.707,10.745c0.188,4.011 -2.05,6.507 -3.678,7.443c-0.195,0.112 -0.332,0.287 -0.38,0.467c-0.041,0.153 -0.067,0.346 -0.059,0.559c0.061,1.722 -0.02,4.647 0.008,5.224c-0.072,0.461 -0.294,0.734 -0.492,0.803c0.003,0.023 0.006,0.045 0.01,0.066c0.048,0.353 0.079,0.565 0.079,0.565c0.175,0.962 1.079,0.755 1.204,0.093c0,0 0.411,-4.43 0.237,-6.179c-0.018,-0.18 0.065,-0.355 0.21,-0.462c1.207,-0.883 3.844,-2.942 4.007,-6.023c0.022,-0.411 0.46,-0.662 0.801,-0.434c2.571,1.73 9.529,5.152 19.884,1.801c0.201,-0.065 0.429,0.003 0.564,0.166c2.407,2.914 2.987,3.151 4.825,4.24c0.112,0.067 0.205,0.169 0.242,0.295c0.465,1.595 0.639,5.891 0.578,6.631c-0.064,0.771 0.894,1.349 1.34,-0.257c0.018,-0.065 0.044,-0.195 0.077,-0.375c-0.219,0.236 -0.412,-0.273 -0.386,-0.858c0.05,-1.154 -0.283,-5.248 -0.727,-6.732c-0.032,-0.107 -0.104,-0.196 -0.193,-0.26c-0.022,-0.016 -0.046,-0.032 -0.069,-0.046c-1.844,-1.096 -2.878,-1.98 -5.29,-4.884c-0.135,-0.163 -0.361,-0.23 -0.561,-0.166c-10.308,3.32 -18.531,-0.309 -21.436,-2.173c-0.371,-0.236 -0.815,0.058 -0.795,0.496z" fill="url(#color-16_pT5UBaK8aOM__gr16)"></path><path d="M11.746,10.896c0.197,3.943 -2.074,6.444 -3.709,7.366c-0.195,0.11 -0.33,0.289 -0.364,0.478c-0.029,0.157 -0.046,0.35 -0.038,0.563c0.073,1.755 -0.005,4.717 0.018,5.179c-0.08,0.461 -0.326,0.721 -0.547,0.763c0.003,0.022 0.006,0.044 0.009,0.066c0.047,0.35 0.078,0.561 0.078,0.561c0.175,0.962 1.074,0.752 1.2,0.086c0,0 0.415,-4.423 0.241,-6.172c-0.018,-0.18 0.065,-0.355 0.21,-0.462c1.207,-0.883 3.844,-2.942 4.007,-6.023c0.022,-0.411 0.46,-0.662 0.801,-0.434c2.571,1.73 9.529,5.152 19.884,1.801c0.201,-0.065 0.429,0.003 0.564,0.166c2.407,2.914 2.987,3.151 4.825,4.24c0.112,0.067 0.205,0.169 0.242,0.295c0.465,1.595 0.639,5.891 0.578,6.631c-0.064,0.771 0.894,1.349 1.34,-0.257c0.018,-0.065 0.044,-0.195 0.077,-0.375c-0.244,0.28 -0.456,-0.232 -0.427,-0.816c0.053,-1.071 -0.28,-5.21 -0.731,-6.717c-0.031,-0.105 -0.101,-0.193 -0.189,-0.257c-0.022,-0.016 -0.046,-0.032 -0.069,-0.046c-1.846,-1.095 -2.835,-1.849 -5.25,-4.756c-0.135,-0.163 -0.361,-0.23 -0.561,-0.166c-10.308,3.32 -18.491,-0.346 -21.397,-2.21c-0.368,-0.236 -0.815,0.058 -0.792,0.496z" fill="url(#color-17_pT5UBaK8aOM__gr17)"></path><path d="M11.785,11.046c0.215,3.874 -2.099,6.38 -3.74,7.289c-0.196,0.108 -0.328,0.292 -0.348,0.49c-0.016,0.16 -0.026,0.354 -0.016,0.566c0.086,1.788 0.011,4.788 0.028,5.135c-0.089,0.461 -0.358,0.707 -0.602,0.724c0.003,0.022 0.006,0.044 0.009,0.066c0.047,0.348 0.078,0.557 0.078,0.557c0.175,0.962 1.069,0.749 1.196,0.079c0,0 0.419,-4.416 0.246,-6.165c-0.018,-0.18 0.065,-0.355 0.21,-0.462c1.207,-0.883 3.844,-2.942 4.007,-6.023c0.022,-0.411 0.46,-0.662 0.801,-0.434c2.571,1.73 9.529,5.152 19.884,1.801c0.201,-0.065 0.429,0.003 0.564,0.166c2.407,2.914 2.987,3.151 4.825,4.24c0.112,0.067 0.205,0.169 0.242,0.295c0.465,1.595 0.639,5.891 0.578,6.631c-0.064,0.771 0.894,1.349 1.34,-0.257c0.018,-0.065 0.044,-0.195 0.077,-0.375c-0.268,0.324 -0.501,-0.191 -0.468,-0.774c0.056,-0.988 -0.277,-5.173 -0.735,-6.702c-0.031,-0.103 -0.099,-0.19 -0.185,-0.254c-0.022,-0.017 -0.045,-0.032 -0.069,-0.047c-1.848,-1.094 -2.793,-1.718 -5.209,-4.627c-0.135,-0.163 -0.361,-0.23 -0.561,-0.166c-10.308,3.32 -18.452,-0.383 -21.358,-2.247c-0.37,-0.238 -0.819,0.056 -0.794,0.494z" fill="url(#color-18_pT5UBaK8aOM__gr18)"></path><path d="M11.825,11.197c0.232,3.806 -2.124,6.317 -3.771,7.212c-0.196,0.107 -0.326,0.295 -0.331,0.501c-0.004,0.164 -0.006,0.358 0.006,0.569c0.099,1.821 0.026,4.859 0.037,5.09c-0.097,0.46 -0.391,0.694 -0.657,0.685c0.003,0.022 0.006,0.044 0.009,0.065c0.047,0.345 0.077,0.553 0.077,0.553c0.175,0.962 1.063,0.746 1.191,0.072c0,0 0.424,-4.409 0.25,-6.158c-0.018,-0.18 0.065,-0.355 0.21,-0.462c1.207,-0.883 3.844,-2.942 4.007,-6.023c0.022,-0.411 0.46,-0.662 0.801,-0.434c2.571,1.73 9.529,5.152 19.884,1.801c0.201,-0.065 0.429,0.003 0.564,0.166c2.407,2.914 2.987,3.151 4.825,4.24c0.112,0.067 0.205,0.169 0.242,0.295c0.465,1.595 0.639,5.891 0.578,6.631c-0.064,0.771 0.894,1.349 1.34,-0.257c0.018,-0.065 0.044,-0.195 0.077,-0.375c-0.292,0.368 -0.547,-0.151 -0.509,-0.733c0.058,-0.905 -0.274,-5.136 -0.739,-6.687c-0.03,-0.102 -0.097,-0.187 -0.18,-0.251c-0.022,-0.017 -0.045,-0.033 -0.07,-0.047c-1.85,-1.093 -2.751,-1.588 -5.169,-4.499c-0.135,-0.163 -0.361,-0.23 -0.561,-0.166c-10.308,3.32 -18.413,-0.42 -21.319,-2.284c-0.369,-0.236 -0.82,0.058 -0.792,0.496z" fill="url(#color-19_pT5UBaK8aOM__gr19)"></path><path d="M11.864,11.347c0.25,3.737 -2.148,6.254 -3.802,7.135c-0.196,0.105 -0.325,0.299 -0.315,0.512c0.007,0.168 0.015,0.362 0.028,0.572c0.115,1.853 0.041,4.93 0.047,5.045c-0.106,0.46 -0.423,0.68 -0.712,0.646c0.003,0.022 0.006,0.044 0.009,0.065c0.047,0.343 0.077,0.549 0.077,0.549c0.175,0.962 1.058,0.743 1.187,0.065c0,0 0.428,-4.402 0.254,-6.151c-0.018,-0.18 0.065,-0.355 0.21,-0.462c1.207,-0.883 3.844,-2.942 4.007,-6.023c0.022,-0.411 0.46,-0.662 0.801,-0.434c2.571,1.73 9.529,5.152 19.884,1.801c0.201,-0.065 0.429,0.003 0.564,0.166c2.407,2.914 2.987,3.151 4.825,4.24c0.112,0.067 0.205,0.169 0.242,0.295c0.465,1.595 0.639,5.891 0.578,6.631c-0.064,0.771 0.894,1.349 1.34,-0.257c0.018,-0.065 0.044,-0.195 0.077,-0.375c-0.316,0.412 -0.592,-0.11 -0.55,-0.691c0.06,-0.823 -0.271,-5.099 -0.743,-6.673c-0.03,-0.1 -0.094,-0.185 -0.176,-0.248c-0.022,-0.017 -0.045,-0.033 -0.07,-0.047c-1.852,-1.092 -2.709,-1.457 -5.129,-4.371c-0.135,-0.163 -0.361,-0.23 -0.561,-0.166c-10.308,3.32 -18.374,-0.457 -21.279,-2.321c-0.37,-0.235 -0.823,0.06 -0.793,0.497z" fill="url(#color-20_pT5UBaK8aOM__gr20)"></path><path d="M40.572,24.719c0.061,-0.74 -0.268,-5.061 -0.746,-6.658c-0.038,-0.125 -0.129,-0.227 -0.241,-0.293c-1.853,-1.091 -2.666,-1.326 -5.088,-4.242c-0.135,-0.163 -0.361,-0.23 -0.561,-0.166c-10.308,3.32 -18.335,-0.494 -21.24,-2.358c-0.368,-0.236 -0.823,0.058 -0.791,0.496c0.267,3.669 -2.173,6.191 -3.833,7.058c-0.197,0.103 -0.323,0.302 -0.299,0.524c0.192,1.733 0.106,5.576 0.106,5.576c-0.114,0.46 -0.455,0.666 -0.767,0.606c0.051,0.379 0.085,0.609 0.085,0.609c0.175,0.962 1.053,0.74 1.183,0.058c0,0 0.432,-4.395 0.259,-6.144c-0.018,-0.18 0.065,-0.355 0.21,-0.462c1.207,-0.883 3.844,-2.942 4.007,-6.023c0.022,-0.411 0.46,-0.662 0.801,-0.434c2.571,1.73 9.529,5.152 19.884,1.801c0.201,-0.065 0.429,0.003 0.564,0.166c2.407,2.914 2.987,3.151 4.825,4.24c0.112,0.067 0.205,0.169 0.242,0.295c0.465,1.595 0.639,5.891 0.578,6.631c-0.064,0.771 0.894,1.349 1.34,-0.257c0.018,-0.065 0.044,-0.195 0.077,-0.375c-0.345,0.458 -0.643,-0.069 -0.595,-0.648z" fill="#603813"></path><g><path d="M38.554,18.981c-1.83,-1.086 -2.214,-1.247 -4.592,-4.127c-0.152,-0.185 -0.366,-0.119 -0.593,-0.046c-10.185,3.283 -16.776,0.17 -19.343,-1.499c-0.368,-0.239 -0.874,-0.005 -0.904,0.434c-0.201,2.918 -2.754,4.555 -3.975,5.386c-0.183,0.125 -0.269,0.336 -0.249,0.557c0.14,1.544 -0.146,6.155 -0.297,6.232c0.271,-0.065 1.17,-4.203 1.349,-5.642c0.022,-0.176 0.104,-0.331 0.252,-0.429c1.128,-0.741 3.054,-1.861 3.775,-3.832c0.12,-0.328 0.498,-0.474 0.806,-0.312c2.326,1.224 8.897,3.821 17.973,1.097c0.223,-0.067 0.468,0.009 0.619,0.186c1.913,2.252 3.034,2.465 4.523,3.127c0.131,0.058 0.246,0.165 0.306,0.295c0.777,1.671 0.389,5.766 1.585,6.167c-0.521,-0.826 -0.235,-5.614 -0.982,-7.319c-0.05,-0.114 -0.145,-0.211 -0.253,-0.275z" fill="#fccd2c"></path><path d="M13.101,13.711c-0.197,2.925 -2.748,4.588 -3.971,5.425c-0.038,0.026 -0.073,0.056 -0.103,0.088c-0.115,0.123 -0.166,0.292 -0.15,0.468c0.115,1.244 -0.055,4.492 -0.191,5.704c-0.04,0.334 -0.087,0.541 -0.127,0.561c0.088,-0.021 0.224,-0.34 0.365,-0.823c0.362,-1.273 0.845,-3.816 0.971,-4.881c0.021,-0.174 0.102,-0.328 0.248,-0.424c1.123,-0.743 3.051,-1.888 3.775,-3.89c0.119,-0.328 0.476,-0.481 0.77,-0.355c0.094,0.04 0.205,0.084 0.32,0.142c2.532,1.292 9.001,3.635 17.78,0.98c0.177,-0.054 0.37,-0.016 0.515,0.093c0.038,0.029 0.074,0.062 0.106,0.099c1.868,2.204 2.934,2.47 4.365,3.105c0.057,0.025 0.115,0.052 0.172,0.08c0.043,0.021 0.083,0.047 0.12,0.077c0.074,0.061 0.137,0.139 0.177,0.227c0.536,1.201 0.505,3.645 0.842,5.047c0.143,0.602 0.376,1.061 0.737,1.152c-0.124,-0.16 -0.21,-0.51 -0.261,-0.968c-0.185,-1.662 -0.151,-5.003 -0.732,-6.355c-0.05,-0.115 -0.144,-0.213 -0.252,-0.277c-1.831,-1.086 -2.227,-1.252 -4.608,-4.135c-0.151,-0.183 -0.365,-0.126 -0.59,-0.053c-10.201,3.289 -16.817,0.153 -19.383,-1.519c-0.365,-0.238 -0.866,-0.004 -0.895,0.432z" fill="#f0c22a"></path><path d="M13.08,13.68c-0.192,2.932 -2.743,4.621 -3.968,5.464c-0.038,0.026 -0.073,0.056 -0.103,0.088c-0.117,0.122 -0.17,0.291 -0.153,0.467c0.118,1.265 -0.064,4.61 -0.191,5.74c-0.042,0.33 -0.1,0.533 -0.148,0.557c0.101,-0.024 0.252,-0.337 0.394,-0.812c0.352,-1.248 0.808,-3.868 0.931,-4.952c0.02,-0.172 0.1,-0.324 0.244,-0.42c1.118,-0.744 3.048,-1.916 3.775,-3.948c0.118,-0.327 0.455,-0.488 0.735,-0.399c0.089,0.028 0.205,0.061 0.321,0.122c2.494,1.312 9.038,3.728 17.908,1.026c0.179,-0.054 0.373,-0.015 0.518,0.097c0.038,0.029 0.073,0.063 0.105,0.1c1.899,2.244 2.923,2.494 4.379,3.158c0.057,0.026 0.115,0.054 0.171,0.084c0.042,0.022 0.082,0.05 0.117,0.082c0.071,0.063 0.132,0.143 0.171,0.233c0.525,1.225 0.497,3.733 0.815,5.095c0.14,0.598 0.388,1.073 0.757,1.138c-0.138,-0.147 -0.237,-0.497 -0.283,-0.953c-0.164,-1.601 -0.148,-5.015 -0.722,-6.374c-0.049,-0.116 -0.143,-0.213 -0.251,-0.277c-1.832,-1.087 -2.241,-1.257 -4.624,-4.143c-0.15,-0.181 -0.364,-0.132 -0.587,-0.06c-10.216,3.294 -16.858,0.136 -19.423,-1.54c-0.364,-0.24 -0.859,-0.006 -0.888,0.427z" fill="#e5b828"></path><path d="M13.06,13.649c-0.188,2.939 -2.737,4.654 -3.964,5.502c-0.038,0.026 -0.073,0.056 -0.104,0.087c-0.119,0.121 -0.173,0.29 -0.156,0.466c0.122,1.286 -0.073,4.727 -0.191,5.777c-0.044,0.326 -0.112,0.524 -0.168,0.553c0.114,-0.027 0.28,-0.335 0.423,-0.802c0.342,-1.222 0.768,-3.919 0.89,-5.024c0.019,-0.17 0.098,-0.32 0.24,-0.415c1.112,-0.745 3.045,-1.943 3.774,-4.006c0.116,-0.327 0.435,-0.495 0.699,-0.442c0.084,0.017 0.204,0.037 0.321,0.101c2.456,1.33 9.076,3.822 18.035,1.071c0.18,-0.055 0.376,-0.013 0.52,0.102c0.038,0.03 0.073,0.064 0.104,0.101c1.929,2.283 2.91,2.521 4.392,3.211c0.058,0.027 0.115,0.056 0.17,0.088c0.041,0.024 0.08,0.053 0.115,0.086c0.068,0.065 0.127,0.146 0.165,0.238c0.514,1.25 0.487,3.821 0.789,5.142c0.136,0.594 0.401,1.086 0.778,1.123c-0.153,-0.133 -0.263,-0.484 -0.305,-0.939c-0.143,-1.54 -0.145,-5.028 -0.712,-6.393c-0.048,-0.116 -0.142,-0.214 -0.25,-0.278c-1.833,-1.087 -2.254,-1.262 -4.64,-4.151c-0.148,-0.179 -0.363,-0.139 -0.585,-0.067c-10.232,3.3 -16.899,0.119 -19.462,-1.56c-0.36,-0.234 -0.85,-0.002 -0.878,0.429z" fill="#d9ad26"></path><path d="M13.039,13.618c-0.183,2.946 -2.731,4.687 -3.961,5.541c-0.038,0.027 -0.073,0.056 -0.104,0.087c-0.121,0.12 -0.176,0.289 -0.16,0.465c0.125,1.306 -0.082,4.844 -0.191,5.814c-0.046,0.322 -0.124,0.516 -0.188,0.549c0.128,-0.031 0.308,-0.332 0.452,-0.791c0.331,-1.196 0.73,-3.97 0.85,-5.096c0.018,-0.168 0.096,-0.317 0.236,-0.411c1.107,-0.747 3.041,-1.97 3.774,-4.064c0.115,-0.326 0.416,-0.465 0.663,-0.485c0.08,-0.007 0.204,0.014 0.322,0.08c2.419,1.348 9.113,3.915 18.162,1.117c0.181,-0.056 0.38,-0.012 0.523,0.106c0.037,0.031 0.072,0.065 0.103,0.102c1.959,2.322 2.898,2.546 4.406,3.264c0.058,0.028 0.115,0.058 0.169,0.092c0.041,0.025 0.078,0.056 0.112,0.091c0.065,0.067 0.121,0.15 0.158,0.243c0.503,1.274 0.477,3.91 0.762,5.189c0.131,0.59 0.413,1.098 0.798,1.109c-0.167,-0.12 -0.29,-0.471 -0.327,-0.924c-0.123,-1.478 -0.143,-5.041 -0.701,-6.412c-0.048,-0.117 -0.141,-0.214 -0.249,-0.278c-1.834,-1.088 -2.267,-1.267 -4.656,-4.159c-0.147,-0.178 -0.362,-0.145 -0.582,-0.075c-10.247,3.306 -16.939,0.103 -19.502,-1.58c-0.357,-0.234 -0.842,-0.002 -0.869,0.426z" fill="#cea224"></path><path d="M13.019,13.586c-0.179,2.954 -2.725,4.72 -3.957,5.58c-0.038,0.027 -0.073,0.056 -0.105,0.087c-0.123,0.119 -0.18,0.288 -0.163,0.465c0.129,1.327 -0.091,4.962 -0.191,5.85c-0.047,0.318 -0.136,0.508 -0.209,0.545c0.141,-0.034 0.336,-0.33 0.48,-0.781c0.321,-1.171 0.692,-4.022 0.809,-5.168c0.017,-0.166 0.095,-0.313 0.233,-0.406c1.102,-0.748 3.038,-1.997 3.774,-4.122c0.114,-0.326 0.407,-0.466 0.627,-0.529c0.074,-0.021 0.203,-0.009 0.322,0.059c2.383,1.365 9.151,4.008 18.289,1.163c0.182,-0.057 0.383,-0.011 0.525,0.111c0.037,0.031 0.071,0.066 0.103,0.103c1.989,2.362 2.886,2.571 4.42,3.317c0.058,0.028 0.115,0.061 0.168,0.096c0.04,0.027 0.077,0.059 0.109,0.095c0.062,0.069 0.116,0.154 0.152,0.248c0.492,1.299 0.467,3.999 0.736,5.237c0.127,0.586 0.426,1.111 0.818,1.094c-0.181,-0.106 -0.316,-0.458 -0.349,-0.909c-0.104,-1.417 -0.14,-5.053 -0.691,-6.43c-0.047,-0.117 -0.14,-0.215 -0.248,-0.279c-1.835,-1.088 -2.281,-1.272 -4.672,-4.167c-0.146,-0.176 -0.362,-0.152 -0.579,-0.082c-10.263,3.311 -16.98,0.086 -19.541,-1.6c-0.354,-0.233 -0.834,-0.002 -0.86,0.423z" fill="#c29722"></path><path d="M12.999,13.555c-0.174,2.961 -2.72,4.753 -3.954,5.619c-0.038,0.027 -0.073,0.056 -0.105,0.086c-0.125,0.118 -0.183,0.287 -0.166,0.464c0.133,1.347 -0.1,5.079 -0.191,5.887c-0.049,0.314 -0.148,0.499 -0.229,0.54c0.155,-0.037 0.365,-0.327 0.509,-0.77c0.31,-1.145 0.654,-4.073 0.769,-5.24c0.016,-0.164 0.093,-0.309 0.229,-0.402c1.097,-0.749 3.035,-2.024 3.773,-4.18c0.112,-0.325 0.383,-0.518 0.592,-0.572c0.074,-0.019 0.203,-0.032 0.323,0.039c2.346,1.381 9.188,4.101 18.416,1.209c0.184,-0.058 0.386,-0.01 0.528,0.115c0.036,0.032 0.07,0.067 0.102,0.104c2.02,2.401 2.875,2.595 4.434,3.37c0.058,0.029 0.115,0.063 0.168,0.1c0.04,0.028 0.075,0.062 0.106,0.099c0.059,0.071 0.111,0.157 0.146,0.253c0.481,1.323 0.456,4.088 0.709,5.284c0.123,0.582 0.438,1.123 0.838,1.08c-0.196,-0.093 -0.343,-0.445 -0.372,-0.895c-0.085,-1.355 -0.138,-5.066 -0.681,-6.449c-0.046,-0.117 -0.139,-0.215 -0.247,-0.28c-1.836,-1.089 -2.294,-1.277 -4.688,-4.174c-0.144,-0.174 -0.361,-0.158 -0.576,-0.089c-10.278,3.317 -17.021,0.069 -19.581,-1.62c-0.353,-0.231 -0.827,0 -0.852,0.422z" fill="#b68d20"></path><path d="M12.978,13.524c-0.17,2.968 -2.714,4.786 -3.951,5.658c-0.038,0.027 -0.074,0.056 -0.106,0.086c-0.127,0.117 -0.186,0.286 -0.169,0.463c0.136,1.368 -0.11,5.197 -0.191,5.924c-0.051,0.31 -0.16,0.491 -0.25,0.536c0.168,-0.04 0.393,-0.325 0.538,-0.76c0.3,-1.119 0.617,-4.124 0.728,-5.312c0.015,-0.162 0.091,-0.306 0.225,-0.397c1.092,-0.751 3.032,-2.052 3.773,-4.238c0.111,-0.324 0.367,-0.53 0.556,-0.616c0.071,-0.032 0.202,-0.055 0.323,0.018c2.31,1.396 9.226,4.194 18.543,1.255c0.185,-0.058 0.39,-0.009 0.53,0.12c0.036,0.033 0.07,0.068 0.101,0.105c2.05,2.441 2.863,2.62 4.448,3.423c0.059,0.03 0.115,0.065 0.167,0.104c0.039,0.03 0.074,0.065 0.103,0.104c0.056,0.073 0.106,0.161 0.14,0.259c0.47,1.347 0.446,4.176 0.683,5.331c0.118,0.577 0.451,1.136 0.859,1.066c-0.21,-0.079 -0.37,-0.432 -0.394,-0.88c-0.067,-1.294 -0.135,-5.078 -0.671,-6.468c-0.045,-0.118 -0.138,-0.216 -0.246,-0.28c-1.838,-1.089 -2.308,-1.282 -4.704,-4.182c-0.143,-0.173 -0.36,-0.165 -0.573,-0.096c-10.294,3.323 -17.061,0.052 -19.62,-1.64c-0.349,-0.233 -0.818,-0.002 -0.842,0.417z" fill="#ab821e"></path><path d="M12.958,13.493c-0.165,2.975 -2.708,4.819 -3.947,5.697c-0.038,0.027 -0.074,0.056 -0.107,0.085c-0.129,0.115 -0.189,0.285 -0.172,0.462c0.14,1.388 -0.119,5.314 -0.191,5.96c-0.053,0.306 -0.173,0.483 -0.27,0.532c0.181,-0.043 0.421,-0.323 0.567,-0.75c0.29,-1.094 0.579,-4.176 0.688,-5.384c0.014,-0.16 0.089,-0.302 0.221,-0.393c1.087,-0.752 3.028,-2.079 3.772,-4.296c0.11,-0.324 0.351,-0.544 0.52,-0.659c0.068,-0.046 0.202,-0.079 0.324,-0.003c2.274,1.411 9.264,4.287 18.67,1.3c0.186,-0.059 0.393,-0.008 0.533,0.124c0.035,0.033 0.069,0.069 0.1,0.106c2.08,2.48 2.851,2.644 4.462,3.476c0.059,0.03 0.115,0.067 0.166,0.108c0.038,0.031 0.072,0.068 0.1,0.108c0.053,0.075 0.101,0.164 0.134,0.264c0.459,1.372 0.435,4.265 0.656,5.379c0.114,0.573 0.463,1.148 0.879,1.051c-0.224,-0.065 -0.398,-0.419 -0.416,-0.865c-0.05,-1.232 -0.133,-5.091 -0.66,-6.487c-0.045,-0.118 -0.137,-0.216 -0.245,-0.281c-1.839,-1.09 -2.321,-1.287 -4.72,-4.19c-0.141,-0.171 -0.359,-0.171 -0.57,-0.103c-10.309,3.328 -17.102,0.036 -19.66,-1.66c-0.347,-0.228 -0.811,0.002 -0.834,0.419z" fill="#9f771c"></path><path d="M12.937,13.461c-0.161,2.982 -2.703,4.852 -3.944,5.736c-0.038,0.027 -0.074,0.056 -0.107,0.085c-0.131,0.114 -0.193,0.284 -0.175,0.461c0.143,1.409 -0.128,5.431 -0.191,5.997c-0.055,0.302 -0.185,0.475 -0.291,0.528c0.195,-0.047 0.449,-0.32 0.595,-0.739c0.279,-1.068 0.542,-4.227 0.647,-5.455c0.014,-0.158 0.087,-0.298 0.217,-0.388c1.082,-0.753 3.025,-2.106 3.772,-4.354c0.109,-0.323 0.333,-0.559 0.484,-0.702c0.064,-0.061 0.202,-0.102 0.324,-0.024c2.239,1.425 9.301,4.38 18.798,1.346c0.188,-0.06 0.397,-0.007 0.535,0.129c0.035,0.034 0.068,0.069 0.1,0.107c2.11,2.52 2.84,2.668 4.476,3.529c0.059,0.031 0.115,0.069 0.165,0.113c0.038,0.033 0.07,0.071 0.097,0.113c0.05,0.077 0.095,0.168 0.128,0.269c0.448,1.396 0.424,4.354 0.629,5.426c0.109,0.569 0.476,1.16 0.899,1.037c-0.238,-0.052 -0.425,-0.406 -0.438,-0.851c-0.033,-1.17 -0.13,-5.103 -0.65,-6.506c-0.044,-0.118 -0.136,-0.217 -0.244,-0.281c-1.84,-1.09 -2.334,-1.292 -4.736,-4.198c-0.14,-0.169 -0.358,-0.178 -0.567,-0.11c-10.325,3.334 -17.143,0.019 -19.699,-1.68c-0.343,-0.231 -0.801,-0.001 -0.824,0.412z" fill="#936c19"></path><path d="M12.917,13.43c-0.156,2.989 -2.697,4.885 -3.94,5.775c-0.038,0.027 -0.074,0.056 -0.108,0.084c-0.133,0.113 -0.196,0.283 -0.178,0.461c0.147,1.429 -0.137,5.549 -0.192,6.033c-0.057,0.298 -0.197,0.466 -0.311,0.524c0.208,-0.05 0.477,-0.318 0.624,-0.729c0.269,-1.042 0.505,-4.278 0.606,-5.527c0.013,-0.156 0.085,-0.294 0.214,-0.384c1.077,-0.755 3.022,-2.133 3.772,-4.412c0.107,-0.323 0.313,-0.575 0.449,-0.746c0.06,-0.075 0.201,-0.125 0.325,-0.044c2.204,1.439 9.339,4.473 18.925,1.392c0.189,-0.061 0.4,-0.006 0.538,0.133c0.034,0.035 0.067,0.07 0.099,0.108c2.14,2.559 2.829,2.692 4.49,3.582c0.059,0.032 0.115,0.071 0.164,0.117c0.037,0.034 0.069,0.074 0.094,0.117c0.048,0.079 0.09,0.172 0.122,0.274c0.437,1.421 0.412,4.443 0.603,5.473c0.105,0.565 0.488,1.173 0.919,1.022c-0.253,-0.038 -0.453,-0.393 -0.46,-0.836c-0.018,-1.109 -0.128,-5.116 -0.64,-6.525c-0.043,-0.119 -0.135,-0.217 -0.243,-0.282c-1.841,-1.091 -2.348,-1.297 -4.752,-4.206c-0.139,-0.168 -0.357,-0.184 -0.564,-0.118c-10.34,3.34 -17.183,0.002 -19.739,-1.7c-0.342,-0.226 -0.795,0.003 -0.817,0.414z" fill="#886217"></path><path d="M12.896,13.399c-0.152,2.996 -2.691,4.918 -3.937,5.814c-0.038,0.028 -0.074,0.055 -0.108,0.084c-0.135,0.112 -0.199,0.282 -0.181,0.46c0.151,1.45 -0.146,5.666 -0.192,6.07c-0.059,0.294 -0.209,0.458 -0.332,0.52c0.221,-0.053 0.505,-0.315 0.653,-0.718c0.258,-1.017 0.468,-4.33 0.566,-5.599c0.012,-0.154 0.084,-0.291 0.21,-0.379c1.072,-0.756 3.018,-2.16 3.771,-4.47c0.106,-0.322 0.292,-0.59 0.413,-0.789c0.054,-0.09 0.201,-0.148 0.326,-0.065c2.17,1.452 9.376,4.566 19.052,1.438c0.19,-0.061 0.403,-0.005 0.54,0.138c0.034,0.035 0.067,0.071 0.098,0.109c2.171,2.599 2.817,2.716 4.503,3.635c0.06,0.032 0.115,0.074 0.163,0.121c0.036,0.036 0.067,0.077 0.091,0.121c0.045,0.081 0.085,0.175 0.116,0.279c0.426,1.445 0.401,4.532 0.576,5.521c0.1,0.561 0.501,1.185 0.939,1.008c-0.267,-0.025 -0.481,-0.38 -0.482,-0.821c-0.003,-1.047 -0.125,-5.128 -0.63,-6.543c-0.043,-0.119 -0.134,-0.218 -0.242,-0.282c-1.842,-1.091 -2.361,-1.302 -4.769,-4.214c-0.137,-0.166 -0.356,-0.191 -0.561,-0.125c-10.356,3.345 -17.224,-0.015 -19.778,-1.721c-0.336,-0.229 -0.784,0 -0.805,0.408z" fill="#7c5715"></path><path d="M12.876,13.368c-0.147,3.003 -2.685,4.951 -3.933,5.853c-0.038,0.028 -0.075,0.055 -0.109,0.083c-0.137,0.111 -0.203,0.281 -0.184,0.459c0.154,1.47 -0.155,5.784 -0.192,6.107c-0.061,0.29 -0.221,0.45 -0.352,0.516c0.235,-0.056 0.534,-0.313 0.682,-0.708c0.248,-0.991 0.431,-4.381 0.525,-5.671c0.011,-0.152 0.082,-0.287 0.206,-0.375c1.067,-0.757 3.015,-2.187 3.771,-4.528c0.105,-0.322 0.27,-0.604 0.377,-0.833c0.049,-0.104 0.201,-0.172 0.326,-0.086c2.136,1.464 9.414,4.659 19.179,1.483c0.191,-0.062 0.407,-0.004 0.543,0.142c0.033,0.036 0.066,0.072 0.097,0.11c2.201,2.638 2.808,2.736 4.517,3.688c0.06,0.033 0.115,0.076 0.163,0.125c0.036,0.037 0.066,0.08 0.089,0.126c0.042,0.083 0.08,0.179 0.11,0.284c0.415,1.469 0.389,4.621 0.55,5.568c0.095,0.557 0.513,1.198 0.96,0.993c-0.281,-0.011 -0.509,-0.366 -0.504,-0.807c0.012,-0.985 -0.123,-5.141 -0.619,-6.562c-0.042,-0.119 -0.133,-0.218 -0.241,-0.283c-1.843,-1.092 -2.374,-1.307 -4.785,-4.221c-0.136,-0.164 -0.355,-0.197 -0.558,-0.132c-10.371,3.351 -17.265,-0.032 -19.818,-1.741c-0.337,-0.223 -0.78,0.005 -0.8,0.41z" fill="#714c13"></path><path d="M12.855,13.336c-0.143,3.01 -2.68,4.984 -3.93,5.892c-0.038,0.028 -0.075,0.055 -0.109,0.083c-0.139,0.11 -0.206,0.28 -0.187,0.458c0.158,1.491 -0.165,5.901 -0.192,6.143c-0.063,0.286 -0.233,0.441 -0.372,0.512c0.248,-0.059 0.562,-0.31 0.711,-0.697c0.238,-0.965 0.395,-4.432 0.485,-5.743c0.01,-0.15 0.08,-0.283 0.202,-0.371c1.062,-0.759 3.012,-2.215 3.771,-4.586c0.103,-0.321 0.248,-0.618 0.341,-0.876c0.043,-0.118 0.2,-0.195 0.327,-0.107c2.102,1.476 9.451,4.752 19.306,1.529c0.193,-0.063 0.411,-0.003 0.545,0.147c0.033,0.036 0.065,0.073 0.096,0.111c2.231,2.678 2.797,2.76 4.531,3.741c0.06,0.034 0.116,0.078 0.162,0.129c0.035,0.039 0.064,0.083 0.086,0.13c0.039,0.085 0.075,0.183 0.104,0.29c0.404,1.494 0.377,4.711 0.523,5.615c0.089,0.553 0.526,1.21 0.98,0.979c-0.296,0.002 -0.538,-0.353 -0.526,-0.792c0.025,-0.923 -0.12,-5.153 -0.609,-6.581c-0.041,-0.12 -0.132,-0.219 -0.241,-0.283c-1.844,-1.092 -2.388,-1.312 -4.801,-4.229c-0.135,-0.163 -0.354,-0.204 -0.555,-0.139c-10.387,3.356 -17.305,-0.048 -19.857,-1.761c-0.334,-0.223 -0.771,0.004 -0.791,0.406z" fill="#654111"></path><path d="M12.835,13.305c-0.138,3.017 -2.674,5.017 -3.926,5.93c-0.038,0.028 -0.075,0.055 -0.11,0.082c-0.141,0.108 -0.209,0.279 -0.19,0.458c0.161,1.511 -0.174,6.019 -0.192,6.18c-0.065,0.282 -0.246,0.433 -0.393,0.508c0.262,-0.063 0.59,-0.308 0.739,-0.687c0.227,-0.94 0.361,-4.483 0.444,-5.815c0.01,-0.148 0.078,-0.28 0.198,-0.366c1.057,-0.76 3.009,-2.242 3.77,-4.644c0.102,-0.321 0.225,-0.631 0.306,-0.919c0.037,-0.132 0.2,-0.219 0.327,-0.127c2.069,1.488 9.489,4.845 19.433,1.575c0.194,-0.064 0.414,-0.002 0.548,0.151c0.033,0.037 0.065,0.074 0.096,0.112c2.261,2.717 2.785,2.785 4.545,3.794c0.06,0.034 0.116,0.08 0.161,0.133c0.035,0.041 0.063,0.086 0.083,0.135c0.036,0.087 0.069,0.186 0.098,0.295c0.392,1.518 0.365,4.8 0.497,5.663c0.084,0.549 0.539,1.223 1,0.964c-0.31,0.016 -0.568,-0.34 -0.548,-0.777c0.038,-0.862 -0.118,-5.166 -0.599,-6.6c-0.04,-0.12 -0.131,-0.219 -0.24,-0.284c-1.846,-1.093 -2.401,-1.317 -4.817,-4.237c-0.133,-0.161 -0.354,-0.21 -0.552,-0.146c-10.402,3.362 -17.346,-0.065 -19.897,-1.781c-0.33,-0.223 -0.763,0.004 -0.781,0.403z" fill="#59370f"></path><path d="M12.815,13.274c-0.134,3.024 -2.668,5.05 -3.923,5.969c-0.038,0.028 -0.075,0.055 -0.111,0.082c-0.143,0.107 -0.213,0.278 -0.193,0.457c0.165,1.532 -0.183,6.136 -0.192,6.217c-0.066,0.278 -0.258,0.425 -0.413,0.504c0.275,-0.066 0.618,-0.306 0.768,-0.677c0.217,-0.914 0.323,-4.534 0.404,-5.886c0.009,-0.146 0.076,-0.276 0.195,-0.362c1.052,-0.761 3.005,-2.269 3.77,-4.702c0.101,-0.32 0.202,-0.643 0.27,-0.963c0.031,-0.146 0.2,-0.242 0.328,-0.148c2.038,1.496 9.526,4.938 19.561,1.621c0.195,-0.065 0.417,-0.001 0.55,0.156c0.032,0.038 0.064,0.075 0.095,0.113c2.292,2.757 2.774,2.809 4.559,3.847c0.061,0.035 0.116,0.082 0.16,0.137c0.034,0.042 0.061,0.089 0.08,0.139c0.033,0.089 0.064,0.19 0.092,0.3c0.381,1.543 0.352,4.889 0.47,5.71c0.078,0.546 0.551,1.235 1.02,0.95c-0.324,0.029 -0.598,-0.327 -0.57,-0.763c0.05,-0.8 -0.115,-5.179 -0.588,-6.619c-0.04,-0.121 -0.13,-0.22 -0.239,-0.284c-1.847,-1.093 -2.415,-1.322 -4.833,-4.245c-0.132,-0.159 -0.353,-0.217 -0.549,-0.153c-10.418,3.368 -17.387,-0.082 -19.936,-1.801c-0.331,-0.222 -0.758,0.004 -0.775,0.401z" fill="#4e2c0d"></path><path d="M39.744,26c0.061,-0.739 -0.113,-5.191 -0.578,-6.638c-0.039,-0.121 -0.129,-0.22 -0.238,-0.285c-1.848,-1.094 -2.428,-1.327 -4.849,-4.253c-0.131,-0.158 -0.352,-0.223 -0.546,-0.161c-10.433,3.373 -17.428,-0.099 -19.976,-1.821c-0.326,-0.22 -0.747,0.006 -0.764,0.4c-0.133,3.124 -2.819,5.206 -4.031,6.09c-0.146,0.106 -0.216,0.276 -0.196,0.456c0.168,1.552 -0.192,6.253 -0.192,6.253c-0.068,0.274 -0.27,0.417 -0.434,0.5c0.288,-0.069 0.646,-0.303 0.797,-0.666c0.206,-0.888 0.286,-4.586 0.363,-5.958c0.008,-0.144 0.074,-0.272 0.191,-0.357c1.182,-0.862 3.525,-2.707 4.004,-5.766c0.025,-0.159 0.2,-0.266 0.328,-0.169c2.003,1.511 9.564,5.031 19.688,1.667c0.196,-0.065 0.421,0 0.553,0.16c2.404,2.909 2.832,2.932 4.667,4.014c0.107,0.063 0.197,0.166 0.236,0.285c0.461,1.373 0.417,5.228 0.529,6.063c0.073,0.542 0.564,1.248 1.041,0.936c-0.339,0.041 -0.628,-0.316 -0.593,-0.75z" fill="#42210b"></path></g><path d="M23.951,40.813c-4.158,0 -4.299,-2.43 -4.299,-2.43c0,0 0.102,4.86 4.299,4.86c4.197,0 4.299,-4.86 4.299,-4.86c0,0 -0.141,2.43 -4.299,2.43z" fill="url(#color-21_pT5UBaK8aOM__gr21)"></path><path d="M28.562,38c0,0 0.058,3 -4.564,3c-4.622,0 -4.564,-3 -4.564,-3c0,0 1.014,0.914 4.564,0.914c3.55,0 4.564,-0.914 4.564,-0.914z" fill="url(#color-22_pT5UBaK8aOM__gr22)"></path><path d="M19.75,37c-0.249,0 -0.394,0.313 -0.271,0.565c0.911,1.87 2.998,2.435 4.52,2.435c1.654,0 3.609,-0.565 4.519,-2.435c0.123,-0.252 -0.022,-0.565 -0.271,-0.565c-3.216,0 -5.216,0 -8.497,0z" fill="url(#color-23_pT5UBaK8aOM__gr23)"></path><path d="M12.005,27.542c-0.029,0.438 0.069,0.401 0.246,0.62c0,0 2.001,2.631 8.038,0.83c0.436,-0.148 0.751,-0.43 0.706,-0.769c-0.774,-5.83 -7.995,-5.121 -8.99,-0.681z" fill="#805b2a"></path><path d="M12.096,27.484c-0.151,0.309 -0.103,0.557 0,0.806c0.43,1.087 3.887,4.957 8.551,0.894c0.348,-0.287 0.403,-0.54 0.317,-0.898c-0.086,-0.358 -1.295,-3.286 -4.461,-3.286c-3.135,0 -4.145,2.063 -4.407,2.484z" fill="#ffffff"></path><circle cx="16.5" cy="27.5" r="2.5" fill="url(#color-24_pT5UBaK8aOM__gr24)"></circle><circle cx="16.5" cy="27.5" r="1.266" fill="url(#color-25_pT5UBaK8aOM__gr25)"></circle><path d="M35.995,27.53c0.029,0.44 -0.069,0.403 -0.246,0.623c0,0 -2.001,2.646 -8.038,0.834c-0.436,-0.149 -0.751,-0.433 -0.706,-0.773c0.774,-5.861 7.995,-5.149 8.99,-0.684z" fill="#805b2a"></path><path d="M35.904,27.484c0.151,0.309 0.103,0.557 0,0.806c-0.43,1.087 -3.887,4.957 -8.551,0.894c-0.348,-0.287 -0.403,-0.54 -0.317,-0.898c0.086,-0.358 1.295,-3.286 4.461,-3.286c3.135,0 4.145,2.063 4.407,2.484z" fill="#ffffff"></path><circle cx="31.5" cy="27.5" r="2.5" fill="url(#color-26_pT5UBaK8aOM__gr26)"></circle><circle cx="31.5" cy="27.5" r="1.266" fill="url(#color-27_pT5UBaK8aOM__gr27)"></circle><circle cx="15.5" cy="26.5" r="0.5" fill="#ffffff"></circle><circle cx="30.5" cy="26.5" r="0.5" fill="#ffffff"></circle><g fill="#805b2a"><path d="M13.592,22.088c0.472,-0.19 0.899,-0.319 1.354,-0.446c0.449,-0.123 0.902,-0.228 1.358,-0.321c0.911,-0.182 1.832,-0.313 2.759,-0.4l0.006,-0.001c0.562,-0.052 1.059,0.36 1.112,0.922c0.053,0.562 -0.36,1.059 -0.922,1.112c-0.064,0.006 -0.134,0.005 -0.196,-0.001c-0.862,-0.086 -1.73,-0.129 -2.597,-0.125c-0.433,0.004 -0.867,0.019 -1.299,0.052c-0.424,0.033 -0.875,0.084 -1.258,0.156l-0.037,0.007c-0.271,0.051 -0.533,-0.127 -0.584,-0.399c-0.046,-0.238 0.087,-0.469 0.304,-0.556z"></path></g><g fill="#805b2a"><path d="M33.967,22.921c-0.399,-0.052 -0.852,-0.084 -1.283,-0.102c-0.437,-0.018 -0.875,-0.022 -1.312,-0.017c-0.876,0.013 -1.751,0.065 -2.621,0.151c-0.561,0.055 -1.061,-0.355 -1.116,-0.916c-0.055,-0.561 0.355,-1.061 0.916,-1.116c0.064,-0.006 0.138,-0.005 0.2,0c0.922,0.086 1.84,0.209 2.75,0.371c0.455,0.083 0.908,0.175 1.359,0.281c0.456,0.11 0.889,0.222 1.361,0.38c0.262,0.088 0.404,0.371 0.316,0.634c-0.077,0.231 -0.307,0.368 -0.539,0.338z"></path></g><path d="M23.88,33.517c-1.157,0 -2.099,-0.294 -2.681,-0.613c-0.428,-0.235 -0.861,-0.127 -0.578,0.609c0.384,0.998 1.26,2.174 3.258,2.174c1.964,0 2.844,-1.136 3.238,-2.123c0.302,-0.758 -0.134,-0.834 -0.506,-0.66c-0.716,0.336 -1.602,0.613 -2.731,0.613z" fill="url(#color-28_pT5UBaK8aOM__gr28)"></path><path d="M24.02,35.003v0c-0.007,0 -0.013,0 -0.02,0c-0.007,0 -0.013,0 -0.02,0v0c-6.93,-0.098 -7.98,2.468 -7.98,3.613c0,0.449 0.571,0.518 0.833,0.137c0.199,-0.278 1.003,-0.704 2.079,-0.717c2.91,-0.036 2.389,-0.036 4.92,-0.036c2.33,0 3.016,0 5.027,0c1.076,0 2.109,0.474 2.308,0.752c0.262,0.381 0.833,0.313 0.833,-0.136c0,-1.145 -1.05,-3.711 -7.98,-3.613z" fill="url(#color-29_pT5UBaK8aOM__gr29)"></path><path d="M27.376,31.604c-0.027,1.111 -1.61,1.974 -3.535,1.927c-1.925,-0.047 -3.464,-0.985 -3.437,-2.096c0.027,-1.111 1.61,-1.974 3.535,-1.927c1.925,0.047 3.464,0.985 3.437,2.096z" fill="url(#color-30_pT5UBaK8aOM__gr30)"></path><ellipse cx="23.89" cy="31.531" rx="1.793" ry="1" fill="url(#color-31_pT5UBaK8aOM__gr31)"></ellipse></g></g></svg>