<svg xmlns="http://www.w3.org/2000/svg" x="0px" y="0px"
width="48" height="48"
viewBox="0 0 172 172"
style=" fill:#000000;"><defs><linearGradient x1="89.58333" y1="-46.36833" x2="89.58333" y2="229.13267" gradientUnits="userSpaceOnUse" id="color-1_jDDj4ExfgPZV_gr1"><stop offset="0.252" stop-color="#efebe9"></stop><stop offset="0.584" stop-color="#e4e1da"></stop><stop offset="1" stop-color="#d9d8cb"></stop></linearGradient><linearGradient x1="103.44367" y1="72.13967" x2="157.06467" y2="18.51867" gradientUnits="userSpaceOnUse" id="color-2_jDDj4ExfgPZV_gr2"><stop offset="0" stop-color="#efebe9" stop-opacity="0"></stop><stop offset="0.235" stop-color="#d1cfc9" stop-opacity="0.323"></stop><stop offset="0.385" stop-color="#c3c1ba" stop-opacity="0.529"></stop><stop offset="0.403" stop-color="#c0beb5" stop-opacity="0.542"></stop><stop offset="0.514" stop-color="#b0ae9e" stop-opacity="0.618"></stop><stop offset="0.633" stop-color="#a5a28d" stop-opacity="0.699"></stop><stop offset="0.763" stop-color="#9e9b83" stop-opacity="0.788"></stop><stop offset="0.927" stop-color="#9c9980" stop-opacity="0.9"></stop></linearGradient><linearGradient x1="133.82675" y1="32.79825" x2="16.31133" y2="150.31367" gradientUnits="userSpaceOnUse" id="color-3_jDDj4ExfgPZV_gr3"><stop offset="0" stop-color="#968c88" stop-opacity="0.8"></stop><stop offset="0.126" stop-color="#a19692" stop-opacity="0.8"></stop><stop offset="0.288" stop-color="#b5a9a5" stop-opacity="0.8"></stop></linearGradient><linearGradient x1="107.71142" y1="49.95525" x2="142.2655" y2="15.40117" gradientUnits="userSpaceOnUse" id="color-4_jDDj4ExfgPZV_gr4"><stop offset="0.07" stop-color="#fdfdfd"></stop><stop offset="0.167" stop-color="#f9f9f7"></stop><stop offset="0.29" stop-color="#eeede8"></stop><stop offset="0.408" stop-color="#dedcd2"></stop><stop offset="0.46" stop-color="#dfddd4"></stop><stop offset="0.479" stop-color="#e4e2db"></stop><stop offset="0.492" stop-color="#ede9e6"></stop><stop offset="0.494" stop-color="#efebe9"></stop></linearGradient></defs><g fill="none" fill-rule="nonzero" stroke="none" stroke-width="1" stroke-linecap="butt" stroke-linejoin="miter" stroke-miterlimit="10" stroke-dasharray="" stroke-dashoffset="0" font-family="none" font-weight="none" font-size="none" text-anchor="none" style="mix-blend-mode: normal"><path d="M0,172v-172h172v172z" fill="none"></path><g><path d="M143.83142,53.61742l-39.78217,-39.78217c-4.26775,-4.27133 -10.05842,-6.66858 -16.09633,-6.66858h-59.28625v157.66667h121.83333v-95.11958c0,-6.03792 -2.39725,-11.82858 -6.66858,-16.09633z" fill="url(#color-1_jDDj4ExfgPZV_gr1)"></path><path d="M143.83142,53.61742l-39.78217,-39.78217c-4.26775,-4.27133 -10.05842,-6.66858 -16.09633,-6.66858h-59.28625v157.66667h121.83333v-95.11958c0,-6.03792 -2.39725,-11.82858 -6.66858,-16.09633z" fill="url(#color-2_jDDj4ExfgPZV_gr2)"></path><path d="M64.5,46.58333v-3.58333h21.5v3.58333zM82.41667,64.5v3.58333h25.08333v-3.58333zM71.66667,32.25h-25.08333v3.58333h25.08333zM93.16667,78.83333v-3.58333h-21.5v3.58333zM96.75,75.25v3.58333h17.91667v-3.58333zM100.33333,53.75v3.58333h14.33333v-3.58333zM89.58333,43v3.58333h28.66667v-3.58333zM136.16667,64.5h-25.08333v3.58333h25.08333zM93.16667,57.33333v-3.58333h-25.08333v3.58333zM107.5,118.25v3.58333h25.08333v-3.58333zM93.16667,107.5v3.58333h28.66667v-3.58333zM82.41667,121.83333v-3.58333h-17.91667v3.58333zM103.91667,121.83333v-3.58333h-17.91667v3.58333zM78.83333,68.08333v-3.58333h-17.91667v3.58333zM82.41667,86v3.58333h25.08333v-3.58333zM103.91667,100.33333h14.33333v-3.58333h-14.33333zM100.33333,100.33333v-3.58333h-32.25v3.58333zM125.41667,111.08333h7.16667v-3.58333h-7.16667zM121.83333,100.33333h10.75v-3.58333h-10.75zM111.08333,89.58333h14.33333v-3.58333h-14.33333zM118.25,77.04167h17.91667v-3.58333h-17.91667zM60.91667,43h-14.33333v3.58333h14.33333zM118.25,57.33333h10.75v-3.58333h-10.75zM78.83333,86h-32.25v3.58333h32.25zM57.33333,64.5h-10.75v3.58333h10.75zM68.08333,75.25h-21.5v3.58333h21.5zM64.5,53.75h-17.91667v3.58333h17.91667zM60.91667,118.25h-14.33333v3.58333h14.33333zM93.16667,132.58333v-3.58333h-17.91667v3.58333zM114.66667,132.58333v-3.58333h-17.91667v3.58333zM71.66667,129h-25.08333v3.58333h25.08333zM60.91667,143.33333h-14.33333v3.58333h14.33333zM89.58333,143.33333h-25.08333v3.58333h25.08333zM64.5,96.75h-17.91667v3.58333h17.91667zM89.58333,107.5h-43v3.58333h43z" fill="url(#color-3_jDDj4ExfgPZV_gr3)"></path><path d="M143.83142,53.61742l-39.78217,-39.78217c-1.90633,-1.90633 -4.128,-3.4185 -6.52883,-4.52933c7.33867,4.7945 9.97958,10.69983 9.97958,40.86075c30.16092,0 36.06625,2.64092 40.86433,9.97958c-1.11442,-2.40083 -2.623,-4.6225 -4.53292,-6.52883z" fill="url(#color-4_jDDj4ExfgPZV_gr4)"></path></g></g></svg>