<svg xmlns="http://www.w3.org/2000/svg" x="0px" y="0px"
width="64" height="64"
viewBox="0 0 172 172"
style=" fill:#000000;"><defs><radialGradient cx="85.65869" cy="95.59169" r="135.07644" gradientUnits="userSpaceOnUse" id="color-1_119305_gr1"></radialGradient><linearGradient x1="83.3125" y1="-36.8725" x2="83.3125" y2="123.0015" gradientUnits="userSpaceOnUse" id="color-2_119305_gr2"><stop offset="0" stop-color="#42d778"></stop><stop offset="0.996" stop-color="#34b171"></stop></linearGradient></defs><g fill="none" fill-rule="nonzero" stroke="none" stroke-width="1" stroke-linecap="butt" stroke-linejoin="miter" stroke-miterlimit="10" stroke-dasharray="" stroke-dashoffset="0" font-family="none" font-weight="none" font-size="none" text-anchor="none" style="mix-blend-mode: normal"><path d="M0,172v-172h172v172z"></path><g><path d="M157.21875,102.125h5.375c5.17344,0 9.40625,-4.23281 9.40625,-9.40625c0,-5.17344 -4.23281,-9.40625 -9.40625,-9.40625h-17.46875c-2.95625,0 -5.375,-2.41875 -5.375,-5.375c0,-2.95625 2.41875,-5.375 5.375,-5.375h14.78125c5.17344,0 9.40625,-4.23281 9.40625,-9.40625c0,-5.17344 -4.23281,-9.40625 -9.40625,-9.40625h-1.34375c-2.96969,0 -5.375,-2.40531 -5.375,-5.375c0,-2.96969 2.40531,-5.375 5.375,-5.375h5.375c4.9665,0 8.91981,-4.54994 7.90125,-9.68844c-0.76056,-3.82431 -4.35375,-6.43656 -8.25331,-6.43656h-21.14794c-2.22525,0 -4.03125,-1.806 -4.03125,-4.03125c0,-2.22525 1.806,-4.03125 4.03125,-4.03125h9.16975c3.06106,0 5.91788,-1.93769 6.71069,-4.89394c1.19862,-4.46931 -2.18494,-8.54356 -6.47419,-8.54356h-60.46875h-4.03125h-64.5c-5.17344,0 -9.40625,4.23281 -9.40625,9.40625c0,5.17344 4.23281,9.40625 9.40625,9.40625h4.03125c2.96969,0 5.375,2.40531 5.375,5.375c0,2.96969 -2.40531,5.375 -5.375,5.375h-14.47219c-4.48812,0 -8.58656,3.01537 -9.50569,7.40944c-1.26313,6.03344 3.37012,11.40306 9.19662,11.40306h20.15625l-8.0625,32.25h-14.47219c-4.48812,0 -8.58656,3.01538 -9.50569,7.40944c-1.26313,6.03344 3.37012,11.40306 9.19662,11.40306h1.34375c2.96969,0 5.375,2.40531 5.375,5.375c0,2.96969 -2.40531,5.375 -5.375,5.375h-1.34375c-5.8265,0 -10.45975,5.36962 -9.19663,11.40306c0.91913,4.39406 5.01756,7.40944 9.50569,7.40944h14.47219c2.96969,0 5.375,2.40531 5.375,5.375c0,2.96969 -2.40531,5.375 -5.375,5.375h-3.72219c-4.48812,0 -8.58656,3.01538 -9.50569,7.40944c-1.26313,6.03344 3.37012,11.40306 9.19662,11.40306h63.14013h4.04738h4.03125h59.125c4.45319,0 8.0625,-3.60931 8.0625,-8.0625c0,-4.45319 -3.60931,-8.0625 -8.0625,-8.0625h-1.34375c-3.71144,0 -6.71875,-3.00731 -6.71875,-6.71875c0,-3.71144 3.00731,-6.71875 6.71875,-6.71875h8.0625c5.17344,0 9.40625,-4.23281 9.40625,-9.40625c0,-5.17344 -4.23281,-9.40625 -9.40625,-9.40625c-3.69531,0 -6.71875,-3.02344 -6.71875,-6.71875c0,-3.69531 3.02344,-6.71875 6.71875,-6.71875z" fill="url(#color-1_119305_gr1)"></path><path d="M138.72875,20.382l-10.59412,10.578c-11.75512,-9.48956 -26.49606,-14.835 -42.13462,-14.835c-37.04719,0 -67.1875,30.14031 -67.1875,67.1875c0,37.04719 30.14031,67.1875 67.1875,67.1875c23.85962,0 46.15513,-12.58825 58.18437,-32.852c1.89469,-3.19275 0.84119,-7.31538 -2.34887,-9.20738c-3.18469,-1.89469 -7.31,-0.84387 -9.20738,2.34619c-9.61856,16.20831 -27.48506,26.27569 -46.62812,26.27569c-29.63775,0 -53.75,-24.11225 -53.75,-53.75c0,-29.63775 24.11225,-53.75 53.75,-53.75c12.00238,0 23.34094,3.94525 32.54831,10.96769l-12.17706,12.15556c-3.3325,3.35938 -0.9675,9.08375 3.7625,9.08375h32.30375c2.95625,0 5.375,-2.41875 5.375,-5.375v-32.25c0,-4.73 -5.72438,-7.12187 -9.08375,-3.7625z" fill="url(#color-2_119305_gr2)"></path></g></g></svg>