<svg xmlns="http://www.w3.org/2000/svg" x="0px" y="0px"
width="48" height="48"
viewBox="0 0 172 172"
style=" fill:#000000;"><g fill="none" fill-rule="nonzero" stroke="none" stroke-width="1" stroke-linecap="butt" stroke-linejoin="miter" stroke-miterlimit="10" stroke-dasharray="" stroke-dashoffset="0" font-family="none" font-weight="none" font-size="none" text-anchor="none" style="mix-blend-mode: normal"><path d="M0,172v-172h172v172z" fill="none"></path><g><path d="M116.54075,29.28658l-8.63942,3.76967l-12.19767,30.79875l6.89433,4.04917l18.318,18.75517l29.6485,-1.28642z" fill="#a3a3a3"></path><path d="M127.753,139.97217l21.34233,-20.18492l-8.21658,-1.6985l-33.2175,3.13542l-9.93658,5.6115l3.77683,4.41825l18.60108,7.73283z" fill="#575757"></path><path d="M56.36942,121.22417l-5.47892,-0.8385l-11.98625,9.7825l0.86717,6.07733l8.91533,6.46792l75.10667,-0.88508l3.95958,-1.85617l-30.02833,-13.1365l-1.78092,-5.6115l-38.04783,-4.58308z" fill="#2e2e2e"></path><path d="M97.72467,126.83567l51.37067,-7.04842l1.46917,-34.41433l-29.6485,1.28642l-7.095,-0.65933l-21.13808,34.62575z" fill="#7d7d7d"></path><path d="M22.2955,88.70542l-0.86,2.16433l7.09142,37.22008l11.2445,8.15567l16.598,-15.02133l-3.42567,-13.16158l-22.34567,-21.40325z" fill="#404040"></path><path d="M102.598,67.90417l13.94275,-38.61758l-62.23533,18.95942l-3.77683,10.90767l3.02075,28.37642l8.43158,1.49425l6.30308,2.49042l37.80775,-14.01083z" fill="#7d7d7d"></path><path d="M61.98092,89.02433l-7.6755,-40.77833l-32.00992,40.45942l34.07392,32.51875l8.65375,-4.58308l3.26083,-22.34567z" fill="#575757"></path><path d="M56.36942,121.22417l41.35525,5.6115l23.19133,-40.17633l-18.318,-18.75517l-40.61708,21.12017z" fill="#696969"></path></g></g></svg>