<svg xmlns="http://www.w3.org/2000/svg" x="0px" y="0px"
width="48" height="48"
viewBox="0 0 172 172"
style=" fill:#000000;"><defs><radialGradient cx="86" cy="86" r="64.5" fx="86.34042" fy="58.36892" gradientUnits="userSpaceOnUse" id="color-1_WR9uFQWeKCoy_gr1"><stop offset="0" stop-color="#ffe16e"></stop><stop offset="0.629" stop-color="#ffd426"></stop><stop offset="0.72" stop-color="#fdcd23"></stop><stop offset="0.854" stop-color="#f8b919"></stop><stop offset="1" stop-color="#f09c0c"></stop></radialGradient><radialGradient cx="85.97591" cy="113.63016" r="13.30199" gradientUnits="userSpaceOnUse" id="color-2_WR9uFQWeKCoy_gr2"><stop offset="0.629" stop-color="#ffe16e"></stop><stop offset="0.871" stop-color="#ffe16e" stop-opacity="0"></stop></radialGradient><radialGradient cx="85.95723" cy="117.49118" r="18.32942" gradientUnits="userSpaceOnUse" id="color-3_WR9uFQWeKCoy_gr3"><stop offset="0.284" stop-color="#cc9000"></stop><stop offset="1" stop-color="#cc9000" stop-opacity="0"></stop></radialGradient><radialGradient cx="85.92636" cy="120.1995" r="19.63273" gradientUnits="userSpaceOnUse" id="color-4_WR9uFQWeKCoy_gr4"><stop offset="0" stop-color="#1c1911"></stop><stop offset="0.999" stop-color="#171714"></stop></radialGradient></defs><g fill="none" fill-rule="nonzero" stroke="none" stroke-width="1" stroke-linecap="butt" stroke-linejoin="miter" stroke-miterlimit="10" stroke-dasharray="" stroke-dashoffset="0" font-family="none" font-weight="none" font-size="none" text-anchor="none" style="mix-blend-mode: normal"><path d="M0,172v-172h172v172z" fill="none"></path><g><circle cx="24" cy="24" transform="scale(3.58333,3.58333)" r="18" fill="url(#color-1_WR9uFQWeKCoy_gr1)"></circle><circle cx="27.5" cy="24.5" transform="scale(3.58333,3.58333)" r="0.5" fill="#212121"></circle><path d="M122.75783,86.21858c0,0 -6.18483,3.38267 -11.6745,3.38267c-5.48967,0 -11.6745,-3.38267 -11.6745,-3.38267l-2.26108,2.70183c0,0 6.32458,7.82958 13.93558,7.82958c7.611,0 13.93558,-7.82958 13.93558,-7.82958z" fill="#212121"></path><circle cx="34.5" cy="24.5" transform="scale(3.58333,3.58333)" r="0.5" fill="#212121"></circle><circle cx="13.5" cy="24.5" transform="scale(3.58333,3.58333)" r="0.5" fill="#212121"></circle><path d="M72.59117,86.21858c0,0 -6.18483,3.38267 -11.6745,3.38267c-5.48967,0 -11.6745,-3.38267 -11.6745,-3.38267l-2.26108,2.70183c0,0 6.32458,7.82958 13.93558,7.82958c7.611,0 13.93558,-7.82958 13.93558,-7.82958z" fill="#212121"></path><circle cx="20.5" cy="24.5" transform="scale(3.58333,3.58333)" r="0.5" fill="#212121"></circle><path d="M130.63758,71.6595c-2.96342,-0.15767 -5.75842,-0.53033 -8.61075,-1.04633c-2.838,-0.52317 -5.6545,-1.21475 -8.44592,-2.09267c-5.55775,-1.79525 -11.06533,-4.41825 -15.81325,-8.60717c-1.51217,-1.333 -1.6555,-3.63708 -0.3225,-5.14925c1.333,-1.51217 3.63708,-1.6555 5.14925,-0.3225c0.10392,0.09317 0.20067,0.18633 0.29025,0.28667l0.0215,0.02508c3.28233,3.62992 7.74358,6.51808 12.60258,8.68958c4.859,2.14283 10.18025,3.75175 15.44058,4.64758l0.086,0.01433c0.97467,0.16842 1.63042,1.09292 1.46558,2.06758c-0.15767,0.90658 -0.9675,1.53725 -1.86333,1.48708z" fill="#805b2a"></path><path d="M41.05425,68.0905c5.26033,-0.89942 10.58158,-2.50833 15.44058,-4.64758c4.859,-2.1715 9.32383,-5.05967 12.60258,-8.68958l0.01792,-0.0215c1.35092,-1.49425 3.65858,-1.6125 5.15283,-0.26158c1.49425,1.35092 1.6125,3.65858 0.26158,5.15283c-0.09317,0.10392 -0.1935,0.20067 -0.29383,0.29025c-4.7515,4.18892 -10.25908,6.81192 -15.81325,8.60717c-2.79142,0.87792 -5.6115,1.57308 -8.44592,2.09267c-2.85233,0.516 -5.65092,0.88867 -8.61075,1.04633c-0.989,0.05375 -1.83108,-0.70592 -1.88483,-1.69492c-0.05017,-0.91733 0.602,-1.70925 1.48708,-1.85975z" fill="#805b2a"></path><path d="M68.6925,122.73633c0,0 3.999,2.68033 17.3075,2.68033c12.32667,0 17.29675,-2.68033 17.29675,-2.68033c0,0 -3.09242,-5.32125 -17.29675,-5.32125c-14.20433,0 -17.3075,5.32125 -17.3075,5.32125z" fill="url(#color-2_WR9uFQWeKCoy_gr2)"></path><path d="M86,121.83333c12.15467,0 15.44417,2.18225 15.44417,2.18225c0,0 -3.15333,4.98442 -15.44417,4.98442c-12.29083,0 -15.44417,-4.98442 -15.44417,-4.98442c0,0 3.2895,-2.18225 15.44417,-2.18225z" fill="url(#color-3_WR9uFQWeKCoy_gr3)"></path><path d="M102.84525,122.53208c1.79525,0.989 3.56542,-1.28283 2.17867,-2.79142c-4.02767,-4.37883 -10.21608,-8.65733 -19.02392,-8.65733c-8.80783,0 -14.99625,4.2785 -19.02392,8.65733c-1.38675,1.50858 0.38342,3.78042 2.17867,2.79142c4.12442,-2.279 9.76458,-4.28208 16.84525,-4.28208c7.08067,0 12.72083,2.00308 16.84525,4.28208z" fill="url(#color-4_WR9uFQWeKCoy_gr4)"></path></g></g></svg>