<svg xmlns="http://www.w3.org/2000/svg" x="0px" y="0px"
width="48" height="48"
viewBox="0 0 172 172"
style=" fill:#000000;"><defs><linearGradient x1="54.43083" y1="86.94242" x2="105.17083" y2="200.02525" gradientUnits="userSpaceOnUse" id="color-1_A7egVNynrr0h_gr1"><stop offset="0" stop-color="#b8b8b8"></stop><stop offset="0.226" stop-color="#b1b1b1"></stop><stop offset="0.565" stop-color="#9c9c9c"></stop><stop offset="0.975" stop-color="#7a7a7a"></stop><stop offset="1" stop-color="#787878"></stop></linearGradient><linearGradient x1="107.57883" y1="65.89033" x2="67.43833" y2="96.13725" gradientUnits="userSpaceOnUse" id="color-2_A7egVNynrr0h_gr2"><stop offset="0" stop-color="#b8b8b8" stop-opacity="0"></stop><stop offset="0.5" stop-color="#000000"></stop><stop offset="0.919" stop-color="#b8b8b8" stop-opacity="0"></stop></linearGradient><linearGradient x1="73.08208" y1="111.82508" x2="134.97342" y2="111.82508" gradientUnits="userSpaceOnUse" id="color-3_A7egVNynrr0h_gr3"><stop offset="0" stop-color="#d1d1d1"></stop><stop offset="0.362" stop-color="#cecece"></stop><stop offset="0.652" stop-color="#c4c4c4"></stop><stop offset="0.917" stop-color="#b3b3b3"></stop><stop offset="1" stop-color="#acacac"></stop></linearGradient><radialGradient cx="86" cy="78.83333" r="3.58333" gradientUnits="userSpaceOnUse" id="color-4_A7egVNynrr0h_gr4"><stop offset="0" stop-color="#b8b8b8" stop-opacity="0"></stop><stop offset="1" stop-color="#787878"></stop></radialGradient><linearGradient x1="81.19833" y1="122.66825" x2="134.98417" y2="122.66825" gradientUnits="userSpaceOnUse" id="color-5_A7egVNynrr0h_gr5"><stop offset="0" stop-color="#919191"></stop><stop offset="1" stop-color="#b2b2b2"></stop></linearGradient></defs><g fill="none" fill-rule="nonzero" stroke="none" stroke-width="1" stroke-linecap="butt" stroke-linejoin="miter" stroke-miterlimit="10" stroke-dasharray="" stroke-dashoffset="0" font-family="none" font-weight="none" font-size="none" text-anchor="none" style="mix-blend-mode: normal"><path d="M0,172v-172h172v172z" fill="none"></path><g><g><path d="M37.02658,156.55942c21.43192,-24.36667 61.89133,-77.43225 61.89133,-77.43225l-4.69775,-12.03642l-11.8035,0.99258c-5.22808,8.62508 -53.75,75.25 -45.39008,88.47608z" fill="url(#color-1_A7egVNynrr0h_gr1)"></path><path d="M98.9,79.12c0,0 -7.91917,10.39167 -18.63333,24.11583c-5.95042,-1.36948 -11.18364,-4.89233 -14.69167,-9.89c8.02667,-12.29083 15.05,-22.2525 16.84167,-25.2625l11.78917,-1.00333z" fill="url(#color-2_A7egVNynrr0h_gr2)"></path><path d="M134.97342,156.55942c-21.43192,-24.36308 -61.87342,-77.43225 -61.87342,-77.43225l4.69775,-12.03642c3.94948,-0.00197 7.89206,0.33008 11.78558,0.99258c7.16667,7.16667 36.57867,50.90125 45.39008,88.47608z" fill="url(#color-3_A7egVNynrr0h_gr3)"></path><circle cx="24" cy="22" transform="scale(3.58333,3.58333)" r="1" fill="url(#color-4_A7egVNynrr0h_gr4)"></circle><path d="M134.98417,156.55583c-15.48,-17.59417 -40.88583,-50.16667 -53.78583,-66.90083l11.86083,-0.86c2.54147,-0.18139 4.98662,1.00703 6.41417,3.1175c13.5393,20.56787 25.41401,42.18439 35.51083,64.64333z" fill="url(#color-5_A7egVNynrr0h_gr5)"></path><path d="M62.565,38.27c-1.21833,-1.89917 -5.12417,-7.34583 -5.12417,-7.34583c-6.26885,-8.84533 -18.50484,-10.96647 -27.38515,-4.74729c-8.88032,6.21918 -11.07,18.44309 -4.90068,27.35812l4.12083,5.87667c5.87667,8.42083 15.8025,8.0625 24.47417,8.67167c5.66167,0.39417 7.16667,0 19.35,11.03667l4.69417,-12.04c-9.63917,-13.76 -11.0725,-22.43167 -15.22917,-28.81zM58.91,56.8675c-0.74062,1.11769 -1.99169,1.79031 -3.3325,1.79167h-0.43l-3.5475,-0.215c-5.84083,-0.3225 -11.89667,-0.68083 -14.5125,-4.44333l-4.12083,-5.9125c-1.57571,-2.20966 -2.19563,-4.96057 -1.72,-7.6325c0.87894,-4.84295 5.07562,-8.3778 9.9975,-8.42083c3.33666,-0.0162 6.46946,1.60375 8.385,4.33583c0.68083,0.86 3.94167,5.4825 4.945,7.05917c1.31383,2.18229 2.44063,4.47185 3.36833,6.84417l1.21833,2.9025c0.54856,1.19305 0.4541,2.58297 -0.25083,3.69083z" fill="#07a056"></path><path d="M65.8975,47.085c-1.1309,-2.89015 -2.49715,-5.68259 -4.085,-8.34917c-1.21833,-1.86333 -5.08833,-7.27417 -5.08833,-7.31c-3.55633,-5.01923 -9.32857,-7.99888 -15.48,-7.99083c-7.00682,0.01526 -13.42456,3.92335 -16.6541,10.14153c-3.22954,6.21819 -2.73567,13.71596 1.2816,19.4568l4.15667,5.87667c5.01667,7.16667 13.15083,7.66833 21.03417,8.09833l3.51167,0.215c5.16,0.35833 7.16667,0.50167 18.1675,10.35583l4.04917,-10.39167c-4.3605,-6.27912 -8.01378,-13.02087 -10.89333,-20.1025zM58.91,56.8675c-0.74062,1.11769 -1.99169,1.79031 -3.3325,1.79167h-0.43l-3.5475,-0.215c-5.84083,-0.3225 -11.89667,-0.68083 -14.5125,-4.44333l-4.12083,-5.9125c-1.57571,-2.20966 -2.19563,-4.96057 -1.72,-7.6325c0.87894,-4.84295 5.07562,-8.3778 9.9975,-8.42083c3.33666,-0.0162 6.46946,1.60375 8.385,4.33583c0.68083,0.86 3.94167,5.4825 4.945,7.05917c1.31383,2.18229 2.44063,4.47185 3.36833,6.84417l1.21833,2.9025c0.54856,1.19305 0.4541,2.58297 -0.25083,3.69083z" fill="#0aad60"></path><path d="M65.10917,47.44333c-1.12566,-2.84025 -2.47982,-5.58452 -4.04917,-8.20583c-1.14667,-1.75583 -4.6225,-6.665 -5.08833,-7.27417c-3.3682,-4.79654 -8.86649,-7.64602 -14.7275,-7.6325c-6.6692,0.01045 -12.77903,3.72943 -15.85162,9.64868c-3.07259,5.91925 -2.59788,13.05616 1.23162,18.51632l4.12083,5.87667c4.76583,6.84417 12.72083,7.31 20.38917,7.74l3.47583,0.25083c5.16,0.3225 7.34583,0.46583 17.77333,9.71083l3.40417,-8.74333c-4.25642,-6.23064 -7.83611,-12.89752 -10.67833,-19.8875zM58.91,56.8675c-0.74062,1.11769 -1.99169,1.79031 -3.3325,1.79167h-0.43l-3.5475,-0.215c-5.84083,-0.3225 -11.89667,-0.68083 -14.5125,-4.44333l-4.12083,-5.9125c-1.57571,-2.20966 -2.19563,-4.96057 -1.72,-7.6325c0.87894,-4.84295 5.07562,-8.3778 9.9975,-8.42083c3.33666,-0.0162 6.46946,1.60375 8.385,4.33583c0.68083,0.86 3.94167,5.4825 4.945,7.05917c1.31383,2.18229 2.44063,4.47185 3.36833,6.84417l1.21833,2.9025c0.54856,1.19305 0.4541,2.58297 -0.25083,3.69083z" fill="#11b96b"></path><path d="M64.285,47.76583c-1.11604,-2.77449 -2.44587,-5.45811 -3.9775,-8.02667c-1.14667,-1.79167 -4.6225,-6.62917 -5.0525,-7.27417c-3.21002,-4.55371 -8.43946,-7.25537 -14.01083,-7.23833c-8.23116,0.02644 -15.26294,5.94158 -16.69833,14.04667c-0.79045,4.44311 0.2148,9.01831 2.795,12.72083l4.15667,5.87667c4.515,6.48583 12.21917,6.91583 19.70833,7.38167l3.47583,0.215c5.08833,0.3225 7.48917,0.46583 17.3075,9.06583l2.795,-7.095c-4.20354,-6.15689 -7.72402,-12.75328 -10.49917,-19.6725zM58.91,56.8675c-0.74062,1.11769 -1.99169,1.79031 -3.3325,1.79167h-0.43l-3.5475,-0.215c-5.84083,-0.3225 -11.89667,-0.68083 -14.5125,-4.44333l-4.12083,-5.9125c-1.57571,-2.20966 -2.19563,-4.96057 -1.72,-7.6325c0.87894,-4.84295 5.07562,-8.3778 9.9975,-8.42083c3.33666,-0.0162 6.46946,1.60375 8.385,4.33583c0.68083,0.86 3.94167,5.4825 4.945,7.05917c1.31383,2.18229 2.44063,4.47185 3.36833,6.84417l1.21833,2.9025c0.54856,1.19305 0.4541,2.58297 -0.25083,3.69083z" fill="#15c26e"></path><path d="M63.46083,48.12417c-1.09246,-2.73798 -2.39842,-5.38585 -3.90583,-7.91917c-1.11083,-1.75583 -4.58667,-6.5575 -5.0525,-7.23833c-5.11577,-7.29269 -15.17481,-9.05743 -22.4675,-3.94167c-7.29269,5.11577 -9.05743,15.17481 -3.94167,22.4675l4.12083,5.87667c4.26417,6.1275 11.78917,6.5575 19.0275,6.9875l3.51167,0.215c5.01667,0.3225 7.6325,0.50167 16.8775,8.45667l2.15,-5.4825c-4.11343,-6.09295 -7.57258,-12.60287 -10.32,-19.42167zM58.91,56.8675c-0.74062,1.11769 -1.99169,1.79031 -3.3325,1.79167h-0.43l-3.5475,-0.215c-5.84083,-0.3225 -11.89667,-0.68083 -14.5125,-4.44333l-4.12083,-5.9125c-1.57571,-2.20966 -2.19563,-4.96057 -1.72,-7.6325c0.87894,-4.84295 5.07562,-8.3778 9.9975,-8.42083c3.33666,-0.0162 6.46946,1.60375 8.385,4.33583c0.68083,0.86 3.94167,5.4825 4.945,7.05917c1.31383,2.18229 2.44063,4.47185 3.36833,6.84417l1.21833,2.9025c0.54856,1.19305 0.4541,2.58297 -0.25083,3.69083z" fill="#15c26e"></path><path d="M62.60083,48.44667c-1.04969,-2.68069 -2.32017,-5.26958 -3.79833,-7.74c-1.075,-1.68417 -4.44333,-6.37833 -5.0525,-7.2025c-2.84841,-4.08692 -7.5243,-6.51195 -12.50583,-6.48583c-3.1089,-0.01582 -6.14352,0.94974 -8.67167,2.75917c-3.30838,2.30849 -5.56369,5.83717 -6.26936,9.80914c-0.70568,3.97197 0.19613,8.06156 2.50686,11.36836l4.15667,5.87667c4.01333,5.76917 11.2875,6.19917 18.34667,6.62917l3.47583,0.215c4.945,0.3225 7.74,0.50167 16.4475,7.8475l1.54083,-3.87c-4.02681,-6.0453 -7.43614,-12.47983 -10.17667,-19.20667zM58.91,56.8675c-0.74062,1.11769 -1.99169,1.79031 -3.3325,1.79167h-0.43l-3.5475,-0.215c-5.84083,-0.3225 -11.89667,-0.68083 -14.5125,-4.44333l-4.12083,-5.9125c-1.57571,-2.20966 -2.19563,-4.96057 -1.72,-7.6325c0.87894,-4.84295 5.07562,-8.3778 9.9975,-8.42083c3.33666,-0.0162 6.46946,1.60375 8.385,4.33583c0.68083,0.86 3.94167,5.4825 4.945,7.05917c1.31383,2.18229 2.44063,4.47185 3.36833,6.84417l1.21833,2.9025c0.54856,1.19305 0.4541,2.58297 -0.25083,3.69083z" fill="#15c26e"></path><path d="M61.77667,48.805c-1.04063,-2.63774 -2.28668,-5.18975 -3.72667,-7.6325c-1.03917,-1.6125 -4.33583,-6.19917 -5.01667,-7.16667c-2.70148,-3.83124 -7.10129,-6.10469 -11.78917,-6.09167c-5.32889,0.02609 -10.20339,3.00639 -12.65553,7.73764c-2.45213,4.73126 -2.07703,10.43233 0.97386,14.80152l4.12083,5.87667c3.7625,5.41083 10.82167,5.84083 17.66583,6.235l3.51167,0.215c4.8375,0.3225 7.81167,0.50167 16.0175,7.27417l0.89583,-2.29333c-3.9436,-5.97693 -7.2921,-12.32587 -9.9975,-18.95583zM58.91,56.8675c-0.74062,1.11769 -1.99169,1.79031 -3.3325,1.79167h-0.43l-3.5475,-0.215c-5.84083,-0.3225 -11.89667,-0.68083 -14.5125,-4.44333l-4.12083,-5.9125c-1.57571,-2.20966 -2.19563,-4.96057 -1.72,-7.6325c0.87894,-4.84295 5.07562,-8.3778 9.9975,-8.42083c3.33666,-0.0162 6.46946,1.60375 8.385,4.33583c0.68083,0.86 3.94167,5.4825 4.945,7.05917c1.31383,2.18229 2.44063,4.47185 3.36833,6.84417l1.21833,2.9025c0.54856,1.19305 0.4541,2.58297 -0.25083,3.69083z" fill="#15c26e"></path><path d="M60.9525,49.1275c-1.02381,-2.5752 -2.24581,-5.06712 -3.655,-7.45333c-1.03917,-1.6125 -4.33583,-6.235 -5.01667,-7.16667c-2.5282,-3.58699 -6.64827,-5.71391 -11.03667,-5.6975c-2.7383,-0.01846 -5.41144,0.83493 -7.6325,2.43667c-2.93738,2.02778 -4.93968,5.14808 -5.55921,8.66323c-0.61953,3.51515 0.19539,7.13197 2.26254,10.04177l4.12083,5.87667c3.51167,5.0525 10.35583,5.44667 16.985,5.84083l3.51167,0.215c4.65833,0.28667 7.81167,0.50167 15.55167,6.70083l0.28667,-0.71667c-3.87588,-5.91194 -7.1643,-12.18876 -9.81833,-18.74083zM58.91,56.8675c-0.74062,1.11769 -1.99169,1.79031 -3.3325,1.79167h-0.43l-3.5475,-0.215c-5.84083,-0.3225 -11.89667,-0.68083 -14.5125,-4.44333l-4.12083,-5.9125c-1.57571,-2.20966 -2.19563,-4.96057 -1.72,-7.6325c0.87894,-4.84295 5.07562,-8.3778 9.9975,-8.42083c3.33666,-0.0162 6.46946,1.60375 8.385,4.33583c0.68083,0.86 3.94167,5.4825 4.945,7.05917c1.31383,2.18229 2.44063,4.47185 3.36833,6.84417l1.21833,2.9025c0.54856,1.19305 0.4541,2.58297 -0.25083,3.69083z" fill="#15c26e"></path><path d="M63.21,56.36583c-1.21833,-2.50833 -2.18583,-4.80167 -3.08167,-6.88c-1.00029,-2.53865 -2.19842,-4.99481 -3.58333,-7.34583c-1.00333,-1.57667 -4.3,-6.19917 -4.98083,-7.095c-2.35505,-3.36582 -6.21214,-5.36132 -10.32,-5.33917c-4.66222,0.01691 -8.92911,2.62222 -11.07413,6.76172c-2.14501,4.1395 -1.81303,9.12787 0.86163,12.94661l4.12083,5.9125c3.26083,4.65833 9.89,5.0525 16.30417,5.44667l3.5475,0.215c1.47824,0.07459 2.95031,0.24214 4.4075,0.50167c1.32652,0.22015 2.66463,-0.32088 3.46537,-1.40112c0.80074,-1.08024 0.92931,-2.51786 0.33296,-3.72305zM58.91,56.8675c-0.74062,1.11769 -1.99169,1.79031 -3.3325,1.79167h-0.43l-3.5475,-0.215c-5.84083,-0.3225 -11.89667,-0.68083 -14.5125,-4.44333l-4.12083,-5.9125c-1.57571,-2.20966 -2.19563,-4.96057 -1.72,-7.6325c0.87894,-4.84295 5.07562,-8.3778 9.9975,-8.42083c3.33666,-0.0162 6.46946,1.60375 8.385,4.33583c0.68083,0.86 3.94167,5.4825 4.945,7.05917c1.31383,2.18229 2.44063,4.47185 3.36833,6.84417l1.21833,2.9025c0.54856,1.19305 0.4541,2.58297 -0.25083,3.69083z" fill="#11b96b"></path><path d="M61.705,55.29083c-0.93167,-1.97083 -1.68417,-3.79833 -2.40083,-5.44667c-0.96907,-2.49394 -2.14367,-4.90306 -3.51167,-7.2025c-1.00333,-1.54083 -4.22833,-6.09167 -4.98083,-7.095c-2.19254,-3.10924 -5.76297,-4.95463 -9.5675,-4.945c-2.37696,-0.00923 -4.69643,0.73049 -6.62917,2.11417c-3.1763,2.23237 -5.03084,5.90113 -4.945,9.7825c0.09691,2.44253 0.92036,4.8006 2.365,6.7725l3.87,5.51833c3.01,4.33583 9.42417,4.73 15.62333,5.08833l3.51167,0.215c1.00333,0.07167 1.97083,0.1075 2.93833,0.25083c1.2949,0.17229 2.58096,-0.37373 3.35637,-1.425c0.77541,-1.05128 0.9173,-2.44122 0.3703,-3.6275zM58.91,56.8675c-0.74062,1.11769 -1.99169,1.79031 -3.3325,1.79167h-0.43l-3.5475,-0.215c-5.84083,-0.3225 -11.89667,-0.68083 -14.5125,-4.44333l-4.12083,-5.9125c-1.57571,-2.20966 -2.19563,-4.96057 -1.72,-7.6325c0.87894,-4.84295 5.07562,-8.3778 9.9975,-8.42083c3.33666,-0.0162 6.46946,1.60375 8.385,4.33583c0.68083,0.86 3.94167,5.4825 4.945,7.05917c1.31383,2.18229 2.44063,4.47185 3.36833,6.84417l1.21833,2.9025c0.54856,1.19305 0.4541,2.58297 -0.25083,3.69083z" fill="#0aad60"></path><path d="M60.27167,54.2875c-0.645,-1.505 -1.25417,-2.9025 -1.8275,-4.1925c-0.94799,-2.4156 -2.08629,-4.75211 -3.40417,-6.9875c-1.00333,-1.505 -4.22833,-6.09167 -4.945,-7.02333c-2.49027,-3.55599 -6.87499,-5.26512 -11.11489,-4.3325c-4.2399,0.93262 -7.50271,4.32392 -8.27095,8.59667c-0.50824,2.80766 0.13774,5.70163 1.79167,8.02667l4.12083,5.9125c2.795,3.9775 8.95833,4.33583 14.97833,4.69417l3.51167,0.215l1.6125,0.1075c1.2598,0.10942 2.48303,-0.458 3.21314,-1.49048c0.73011,-1.03248 0.8574,-2.37488 0.33436,-3.52619zM55.32667,58.30083h-0.17917l-3.51167,-0.215c-5.76917,-0.3225 -11.75333,-0.68083 -14.26167,-4.3l-4.12083,-5.9125c-2.09548,-2.99539 -2.35767,-6.90557 -0.68087,-10.15391c1.67681,-3.24834 5.0162,-5.29937 8.6717,-5.32609c3.22259,-0.01077 6.24682,1.55487 8.09833,4.1925c0.68083,0.89583 3.94167,5.4825 4.945,7.02333c1.29436,2.17492 2.4089,4.45194 3.3325,6.80833c0.39417,0.93167 0.78833,1.89917 1.21833,2.9025c0.50859,1.14154 0.37902,2.46648 -0.34109,3.48786c-0.72011,1.02138 -1.92452,1.58852 -3.17058,1.49297z" fill="#07a056"></path><path d="M94.20583,67.08l4.69417,12.04c12.18333,-11.03667 13.68833,-10.6425 19.35,-11.03667c8.67167,-0.60917 18.5975,-0.25083 24.47417,-8.67167l4.12083,-5.87667c4.08657,-5.76614 4.77279,-13.27902 1.79848,-19.6901c-2.97431,-6.41108 -9.15376,-10.73875 -16.19537,-11.34215c-7.04162,-0.60341 -13.86725,2.60984 -17.88894,8.42142c0,0 -3.90583,5.44667 -5.12417,7.34583c-4.15667,6.37833 -5.59,15.05 -15.22917,28.81zM112.83917,53.17667l1.21833,-2.9025c0.9277,-2.37232 2.0545,-4.66188 3.36833,-6.84417c1.00333,-1.57667 4.26417,-6.19917 4.945,-7.05917c1.91554,-2.73209 5.04834,-4.35204 8.385,-4.33583c4.92188,0.04304 9.11856,3.57788 9.9975,8.42083c0.47563,2.67193 -0.14429,5.42284 -1.72,7.6325l-4.12083,5.9125c-2.61583,3.7625 -8.67167,4.12083 -14.5125,4.44333l-3.5475,0.215h-0.43c-1.34081,-0.00135 -2.59188,-0.67397 -3.3325,-1.79167c-0.70493,-1.10786 -0.79939,-2.49778 -0.25083,-3.69083z" fill="#07a056"></path><path d="M95.20917,67.1875l4.04917,10.39167c11.00083,-9.85417 13.0075,-9.9975 18.1675,-10.35583l3.51167,-0.215c7.88333,-0.43 16.0175,-0.93167 21.03417,-8.09833l4.15667,-5.87667c5.8514,-8.51886 3.74495,-20.16166 -4.72034,-26.0903c-8.46528,-5.92865 -20.12676,-3.9282 -26.13216,4.4828c0,0.03583 -3.87,5.44667 -5.08833,7.31c-1.58785,2.66658 -2.9541,5.45901 -4.085,8.34917c-2.87955,7.08163 -6.53283,13.82338 -10.89333,20.1025zM112.83917,53.17667l1.21833,-2.9025c0.9277,-2.37232 2.0545,-4.66188 3.36833,-6.84417c1.00333,-1.57667 4.26417,-6.19917 4.945,-7.05917c1.91554,-2.73209 5.04834,-4.35204 8.385,-4.33583c4.92188,0.04304 9.11856,3.57788 9.9975,8.42083c0.47563,2.67193 -0.14429,5.42284 -1.72,7.6325l-4.12083,5.9125c-2.61583,3.7625 -8.67167,4.12083 -14.5125,4.44333l-3.5475,0.215h-0.43c-1.34081,-0.00135 -2.59188,-0.67397 -3.3325,-1.79167c-0.70493,-1.10786 -0.79939,-2.49778 -0.25083,-3.69083z" fill="#0aad60"></path><path d="M96.2125,67.33083l3.40417,8.74333c10.4275,-9.245 12.61333,-9.38833 17.77333,-9.71083l3.47583,-0.25083c7.66833,-0.43 15.62333,-0.89583 20.38917,-7.74l4.12083,-5.87667c3.82675,-5.4607 4.29999,-12.59615 1.22792,-18.5144c-3.07207,-5.91825 -9.17986,-9.63759 -15.84792,-9.6506c-5.86101,-0.01352 -11.3593,2.83596 -14.7275,7.6325c-0.46583,0.60917 -3.94167,5.51833 -5.08833,7.27417c-1.56934,2.62131 -2.9235,5.36559 -4.04917,8.20583c-2.84222,6.98998 -6.42191,13.65686 -10.67833,19.8875zM112.83917,53.17667l1.21833,-2.9025c0.9277,-2.37232 2.0545,-4.66188 3.36833,-6.84417c1.00333,-1.57667 4.26417,-6.19917 4.945,-7.05917c1.91554,-2.73209 5.04834,-4.35204 8.385,-4.33583c4.92188,0.04304 9.11856,3.57788 9.9975,8.42083c0.47563,2.67193 -0.14429,5.42284 -1.72,7.6325l-4.12083,5.9125c-2.61583,3.7625 -8.67167,4.12083 -14.5125,4.44333l-3.5475,0.215h-0.43c-1.34081,-0.00135 -2.59188,-0.67397 -3.3325,-1.79167c-0.70493,-1.10786 -0.79939,-2.49778 -0.25083,-3.69083z" fill="#11b96b"></path><path d="M97.21583,67.43833l2.795,7.095c9.81833,-8.6 12.21917,-8.74333 17.3075,-9.06583l3.47583,-0.215c7.48917,-0.46583 15.19333,-0.89583 19.70833,-7.38167l4.15667,-5.87667c2.5802,-3.70252 3.58545,-8.27772 2.795,-12.72083c-1.43539,-8.10509 -8.46717,-14.02023 -16.69833,-14.04667c-5.57137,-0.01703 -10.80082,2.68462 -14.01083,7.23833c-0.43,0.645 -3.90583,5.4825 -5.0525,7.27417c-1.53163,2.56855 -2.86146,5.25218 -3.9775,8.02667c-2.77514,6.91922 -6.29562,13.51561 -10.49917,19.6725zM112.83917,53.17667l1.21833,-2.9025c0.9277,-2.37232 2.0545,-4.66188 3.36833,-6.84417c1.00333,-1.57667 4.26417,-6.19917 4.945,-7.05917c1.91554,-2.73209 5.04834,-4.35204 8.385,-4.33583c4.92188,0.04304 9.11856,3.57788 9.9975,8.42083c0.47563,2.67193 -0.14429,5.42284 -1.72,7.6325l-4.12083,5.9125c-2.61583,3.7625 -8.67167,4.12083 -14.5125,4.44333l-3.5475,0.215h-0.43c-1.34081,-0.00135 -2.59188,-0.67397 -3.3325,-1.79167c-0.70493,-1.10786 -0.79939,-2.49778 -0.25083,-3.69083z" fill="#15c26e"></path><path d="M98.21917,67.54583l2.15,5.4825c9.245,-7.955 11.86083,-8.13417 16.8775,-8.45667l3.51167,-0.215c7.23833,-0.43 14.76333,-0.86 19.0275,-6.9875l4.12083,-5.87667c5.11577,-7.29269 3.35102,-17.35173 -3.94167,-22.4675c-7.29269,-5.11577 -17.35173,-3.35102 -22.4675,3.94167c-0.46583,0.68083 -3.94167,5.4825 -5.0525,7.23833c-1.50741,2.53331 -2.81338,5.18119 -3.90583,7.91917c-2.74742,6.8188 -6.20657,13.32872 -10.32,19.42167zM112.83917,53.17667l1.21833,-2.9025c0.9277,-2.37232 2.0545,-4.66188 3.36833,-6.84417c1.00333,-1.57667 4.26417,-6.19917 4.945,-7.05917c1.91554,-2.73209 5.04834,-4.35204 8.385,-4.33583c4.92188,0.04304 9.11856,3.57788 9.9975,8.42083c0.47563,2.67193 -0.14429,5.42284 -1.72,7.6325l-4.12083,5.9125c-2.61583,3.7625 -8.67167,4.12083 -14.5125,4.44333l-3.5475,0.215h-0.43c-1.34081,-0.00135 -2.59188,-0.67397 -3.3325,-1.79167c-0.70493,-1.10786 -0.79939,-2.49778 -0.25083,-3.69083z" fill="#15c26e"></path><path d="M99.2225,67.65333l1.54083,3.87c8.7075,-7.34583 11.5025,-7.525 16.4475,-7.8475l3.47583,-0.215c7.05917,-0.43 14.33333,-0.86 18.34667,-6.62917l4.15667,-5.87667c2.31074,-3.30681 3.21254,-7.3964 2.50686,-11.36836c-0.70568,-3.97197 -2.96098,-7.50065 -6.26936,-9.80914c-2.52814,-1.80942 -5.56277,-2.77498 -8.67167,-2.75917c-4.98153,-0.02611 -9.65742,2.39891 -12.50583,6.48583c-0.60917,0.82417 -3.9775,5.51833 -5.0525,7.2025c-1.47816,2.47042 -2.74864,5.05931 -3.79833,7.74c-2.74052,6.72684 -6.14986,13.16137 -10.17667,19.20667zM112.83917,53.17667l1.21833,-2.9025c0.9277,-2.37232 2.0545,-4.66188 3.36833,-6.84417c1.00333,-1.57667 4.26417,-6.19917 4.945,-7.05917c1.91554,-2.73209 5.04834,-4.35204 8.385,-4.33583c4.92188,0.04304 9.11856,3.57788 9.9975,8.42083c0.47563,2.67193 -0.14429,5.42284 -1.72,7.6325l-4.12083,5.9125c-2.61583,3.7625 -8.67167,4.12083 -14.5125,4.44333l-3.5475,0.215h-0.43c-1.34081,-0.00135 -2.59188,-0.67397 -3.3325,-1.79167c-0.70493,-1.10786 -0.79939,-2.49778 -0.25083,-3.69083z" fill="#15c26e"></path><path d="M100.22583,67.76083l0.89583,2.29333c8.20583,-6.7725 11.18,-6.95167 16.0175,-7.27417l3.51167,-0.215c6.84417,-0.39417 13.90333,-0.82417 17.66583,-6.235l4.12083,-5.87667c3.06732,-4.36595 3.45123,-10.07571 0.99598,-14.81299c-2.45525,-4.73727 -7.34193,-7.71538 -12.67764,-7.72618c-4.68788,-0.01303 -9.08768,2.26043 -11.78917,6.09167c-0.68083,0.9675 -3.9775,5.55417 -5.01667,7.16667c-1.43999,2.44275 -2.68603,4.99476 -3.72667,7.6325c-2.7054,6.62996 -6.0539,12.97891 -9.9975,18.95583zM112.83917,53.17667l1.21833,-2.9025c0.9277,-2.37232 2.0545,-4.66188 3.36833,-6.84417c1.00333,-1.57667 4.26417,-6.19917 4.945,-7.05917c1.91554,-2.73209 5.04834,-4.35204 8.385,-4.33583c4.92188,0.04304 9.11856,3.57788 9.9975,8.42083c0.47563,2.67193 -0.14429,5.42284 -1.72,7.6325l-4.12083,5.9125c-2.61583,3.7625 -8.67167,4.12083 -14.5125,4.44333l-3.5475,0.215h-0.43c-1.34081,-0.00135 -2.59188,-0.67397 -3.3325,-1.79167c-0.70493,-1.10786 -0.79939,-2.49778 -0.25083,-3.69083z" fill="#15c26e"></path><path d="M101.22917,67.86833l0.28667,0.71667c7.74,-6.19917 10.89333,-6.41417 15.55167,-6.70083l3.51167,-0.215c6.62917,-0.39417 13.47333,-0.78833 16.985,-5.84083l4.12083,-5.87667c2.06716,-2.90981 2.88207,-6.52662 2.26254,-10.04177c-0.61953,-3.51515 -2.62183,-6.63545 -5.55921,-8.66323c-2.22106,-1.60173 -4.8942,-2.45513 -7.6325,-2.43667c-4.3884,-0.01641 -8.50847,2.11051 -11.03667,5.6975c-0.68083,0.93167 -3.9775,5.55417 -5.01667,7.16667c-1.40919,2.38621 -2.63119,4.87813 -3.655,7.45333c-2.65403,6.55207 -5.94246,12.82889 -9.81833,18.74083zM112.83917,53.17667l1.21833,-2.9025c0.9277,-2.37232 2.0545,-4.66188 3.36833,-6.84417c1.00333,-1.57667 4.26417,-6.19917 4.945,-7.05917c1.91554,-2.73209 5.04834,-4.35204 8.385,-4.33583c4.92188,0.04304 9.11856,3.57788 9.9975,8.42083c0.47563,2.67193 -0.14429,5.42284 -1.72,7.6325l-4.12083,5.9125c-2.61583,3.7625 -8.67167,4.12083 -14.5125,4.44333l-3.5475,0.215h-0.43c-1.34081,-0.00135 -2.59188,-0.67397 -3.3325,-1.79167c-0.70493,-1.10786 -0.79939,-2.49778 -0.25083,-3.69083z" fill="#15c26e"></path><path d="M112.58833,61.49c1.45719,-0.25953 2.92926,-0.42708 4.4075,-0.50167l3.5475,-0.215c6.41417,-0.39417 13.04333,-0.78833 16.30417,-5.44667l4.12083,-5.9125c2.67739,-3.8182 3.01085,-8.80802 0.86532,-12.94852c-2.14553,-4.1405 -6.41446,-6.74545 -11.07782,-6.75981c-4.10786,-0.02216 -7.96495,1.97335 -10.32,5.33917c-0.68083,0.89583 -3.9775,5.51833 -4.98083,7.095c-1.38492,2.35102 -2.58304,4.80719 -3.58333,7.34583c-0.89583,2.07833 -1.86333,4.37167 -3.08167,6.88c-0.59635,1.20519 -0.46778,2.6428 0.33296,3.72305c0.80074,1.08024 2.13886,1.62127 3.46537,1.40112zM112.83917,53.17667l1.21833,-2.9025c0.9277,-2.37232 2.0545,-4.66188 3.36833,-6.84417c1.00333,-1.57667 4.26417,-6.19917 4.945,-7.05917c1.91554,-2.73209 5.04834,-4.35204 8.385,-4.33583c4.92188,0.04304 9.11856,3.57788 9.9975,8.42083c0.47563,2.67193 -0.14429,5.42284 -1.72,7.6325l-4.12083,5.9125c-2.61583,3.7625 -8.67167,4.12083 -14.5125,4.44333l-3.5475,0.215h-0.43c-1.34081,-0.00135 -2.59188,-0.67397 -3.3325,-1.79167c-0.70493,-1.10786 -0.79939,-2.49778 -0.25083,-3.69083z" fill="#11b96b"></path><path d="M114.02167,60.34333c0.9675,-0.14333 1.935,-0.17917 2.93833,-0.25083l3.51167,-0.215c6.19917,-0.35833 12.61333,-0.7525 15.62333,-5.08833l3.87,-5.51833c1.44464,-1.9719 2.26809,-4.32997 2.365,-6.7725c0.08584,-3.88137 -1.7687,-7.55013 -4.945,-9.7825c-1.93273,-1.38367 -4.25221,-2.1234 -6.62917,-2.11417c-3.80453,-0.00963 -7.37496,1.83576 -9.5675,4.945c-0.7525,1.00333 -3.9775,5.55417 -4.98083,7.095c-1.368,2.29944 -2.5426,4.70856 -3.51167,7.2025c-0.71667,1.64833 -1.46917,3.47583 -2.40083,5.44667c-0.547,1.18627 -0.40511,2.57622 0.3703,3.6275c0.77541,1.05128 2.06147,1.5973 3.35637,1.425zM112.83917,53.17667l1.21833,-2.9025c0.9277,-2.37232 2.0545,-4.66188 3.36833,-6.84417c1.00333,-1.57667 4.26417,-6.19917 4.945,-7.05917c1.91554,-2.73209 5.04834,-4.35204 8.385,-4.33583c4.92188,0.04304 9.11856,3.57788 9.9975,8.42083c0.47563,2.67193 -0.14429,5.42284 -1.72,7.6325l-4.12083,5.9125c-2.61583,3.7625 -8.67167,4.12083 -14.5125,4.44333l-3.5475,0.215h-0.43c-1.34081,-0.00135 -2.59188,-0.67397 -3.3325,-1.79167c-0.70493,-1.10786 -0.79939,-2.49778 -0.25083,-3.69083z" fill="#0aad60"></path><path d="M115.27583,59.30417l1.6125,-0.1075l3.51167,-0.215c6.02,-0.35833 12.18333,-0.71667 14.97833,-4.69417l4.12083,-5.9125c1.65393,-2.32504 2.29991,-5.219 1.79167,-8.02667c-0.76824,-4.27275 -4.03105,-7.66405 -8.27095,-8.59667c-4.2399,-0.93262 -8.62462,0.77651 -11.11489,4.3325c-0.71667,0.93167 -3.94167,5.51833 -4.945,7.02333c-1.31788,2.23539 -2.45618,4.5719 -3.40417,6.9875c-0.57333,1.29 -1.1825,2.6875 -1.8275,4.1925c-0.52304,1.15131 -0.39575,2.49371 0.33436,3.52619c0.73011,1.03248 1.95334,1.5999 3.21314,1.49048zM113.16167,53.32c0.43,-1.00333 0.82417,-1.97083 1.21833,-2.9025c0.9236,-2.3564 2.03814,-4.63341 3.3325,-6.80833c1.00333,-1.54083 4.26417,-6.1275 4.945,-7.02333c1.85151,-2.63763 4.87575,-4.20327 8.09833,-4.1925c3.66121,0.01401 7.01073,2.06323 8.69012,5.31658c1.67939,3.25335 1.40986,7.17074 -0.69928,10.16342l-4.12083,5.9125c-2.50833,3.61917 -8.4925,3.9775 -14.26167,4.3l-3.51167,0.215h-0.17917c-1.24606,0.09555 -2.45047,-0.47159 -3.17058,-1.49297c-0.72011,-1.02138 -0.84968,-2.34632 -0.34109,-3.48786z" fill="#07a056"></path></g></g></g></svg>