<svg xmlns="http://www.w3.org/2000/svg" x="0px" y="0px"
width="48" height="48"
viewBox="0 0 226 226"
style=" fill:#000000;"><defs><radialGradient cx="113" cy="113" r="84.75" fx="112.55271" fy="76.69404" gradientUnits="userSpaceOnUse" id="color-1_hDFADUfzhkqV_gr1"><stop offset="0" stop-color="#ffe16e"></stop><stop offset="0.629" stop-color="#ffd226"></stop><stop offset="0.75" stop-color="#fdcd23"></stop><stop offset="0.899" stop-color="#f6bd1b"></stop><stop offset="0.999" stop-color="#f0af13"></stop></radialGradient><radialGradient cx="169.5" cy="127.125" r="23.54167" gradientUnits="userSpaceOnUse" id="color-2_hDFADUfzhkqV_gr2"><stop offset="0" stop-color="#ff8400" stop-opacity="0.6"></stop><stop offset="0.999" stop-color="#ff8400" stop-opacity="0"></stop></radialGradient><radialGradient cx="56.5" cy="127.125" r="23.54167" gradientUnits="userSpaceOnUse" id="color-3_hDFADUfzhkqV_gr3"><stop offset="0" stop-color="#ff8400" stop-opacity="0.5"></stop><stop offset="0.999" stop-color="#ff8400" stop-opacity="0"></stop></radialGradient><radialGradient cx="112.9435" cy="138.56625" r="26.25837" fx="112.92467" fy="139.55029" gradientUnits="userSpaceOnUse" id="color-4_hDFADUfzhkqV_gr4"><stop offset="0.914" stop-color="#ffe16e"></stop><stop offset="1" stop-color="#ffe16e" stop-opacity="0"></stop></radialGradient><radialGradient cx="113.21658" cy="149.62142" r="23.74883" gradientUnits="userSpaceOnUse" id="color-5_hDFADUfzhkqV_gr5"><stop offset="0.696" stop-color="#cc9000"></stop><stop offset="1" stop-color="#cc9000" stop-opacity="0"></stop></radialGradient><radialGradient cx="113" cy="148.1099" r="25.79649" gradientUnits="userSpaceOnUse" id="color-6_hDFADUfzhkqV_gr6"><stop offset="0" stop-color="#1c1911"></stop><stop offset="0.999" stop-color="#171714"></stop></radialGradient><radialGradient cx="164.97529" cy="38.73546" r="27.02112" gradientUnits="userSpaceOnUse" id="color-7_hDFADUfzhkqV_gr7"><stop offset="0" stop-color="#ff7666"></stop><stop offset="0.126" stop-color="#fb6c59"></stop><stop offset="0.714" stop-color="#ec4023"></stop><stop offset="1" stop-color="#e62f0e"></stop></radialGradient><radialGradient cx="176.23762" cy="164.34437" r="22.26571" gradientUnits="userSpaceOnUse" id="color-8_hDFADUfzhkqV_gr8"><stop offset="0" stop-color="#ff7666"></stop><stop offset="0.126" stop-color="#fb6c59"></stop><stop offset="0.714" stop-color="#ec4023"></stop><stop offset="1" stop-color="#e62f0e"></stop></radialGradient><radialGradient cx="31.29158" cy="149.12233" r="32.42629" gradientUnits="userSpaceOnUse" id="color-9_hDFADUfzhkqV_gr9"><stop offset="0" stop-color="#ff7666"></stop><stop offset="0.126" stop-color="#fb6c59"></stop><stop offset="0.714" stop-color="#ec4023"></stop><stop offset="1" stop-color="#e62f0e"></stop></radialGradient></defs><g fill="none" fill-rule="nonzero" stroke="none" stroke-width="1" stroke-linecap="butt" stroke-linejoin="miter" stroke-miterlimit="10" stroke-dasharray="" stroke-dashoffset="0" font-family="none" font-weight="none" font-size="none" text-anchor="none" style="mix-blend-mode: normal"><path d="M0,226v-226h226v226z" fill="none"></path><g><circle cx="24" cy="24" transform="scale(4.70833,4.70833)" r="18" fill="url(#color-1_hDFADUfzhkqV_gr1)"></circle><circle cx="36" cy="27" transform="scale(4.70833,4.70833)" r="5" fill="url(#color-2_hDFADUfzhkqV_gr2)"></circle><circle cx="12" cy="27" transform="scale(4.70833,4.70833)" r="5" fill="url(#color-3_hDFADUfzhkqV_gr3)"></circle><path d="M113,155.375c-19.33242,0 -25.12367,-6.85533 -25.12367,-6.85533c0,0 6.19617,16.272 25.12367,16.272v-0.00471v0.00471c18.9275,0 25.12367,-16.272 25.12367,-16.272c0,0 -5.79125,6.85533 -25.12367,6.85533z" fill="url(#color-4_hDFADUfzhkqV_gr4)"></path><path d="M113,164.79167c-16.52625,0 -23.54167,-13.02796 -23.54167,-13.02796c0,0 4.98142,22.44463 23.54167,22.44463c18.56025,0 23.54167,-22.44462 23.54167,-22.44462c0,0 -7.01542,13.02796 -23.54167,13.02796z" fill="url(#color-5_hDFADUfzhkqV_gr5)"></path><path d="M90.86613,145.04021c-2.35888,-1.2995 -4.68479,1.68558 -2.86267,3.66779c5.29217,5.75358 13.42346,11.37533 24.99654,11.37533c11.57308,0 19.70438,-5.62175 24.99654,-11.37533c1.82212,-1.98221 -0.50379,-4.96729 -2.86267,-3.66779c-5.41929,2.9945 -12.83021,5.62646 -22.13387,5.62646c-9.30367,0 -16.71458,-2.63196 -22.13388,-5.62646z" fill="url(#color-6_hDFADUfzhkqV_gr6)"></path><path d="M184.91038,28.25c-6.37038,0 -10.70204,4.27987 -10.70204,4.27987c0,0 -4.30812,-4.27987 -10.70204,-4.27987c-7.09075,0 -12.83962,5.74887 -12.83962,12.83962c0,12.83962 23.54167,25.68396 23.54167,25.68396c0,0 23.54167,-12.83963 23.54167,-25.68396c0,-7.09075 -5.74887,-12.83962 -12.83962,-12.83962z" fill="url(#color-7_hDFADUfzhkqV_gr7)"></path><path d="M192.18475,155.375c-5.09442,0 -8.55975,3.42296 -8.55975,3.42296c0,0 -3.4465,-3.42296 -8.55975,-3.42296c-5.67354,0 -10.27358,4.60004 -10.27358,10.27358c0,10.27358 18.83333,22.68475 18.83333,22.68475c0,0 18.83333,-12.41117 18.83333,-22.68475c0,-5.67354 -4.60004,-10.27358 -10.27358,-10.27358z" fill="url(#color-8_hDFADUfzhkqV_gr8)"></path><path d="M55.21463,136.54167c-7.64163,0 -12.83962,5.13679 -12.83962,5.13679c0,0 -5.16975,-5.13679 -12.83963,-5.13679c-8.51267,0 -15.41037,6.89771 -15.41037,15.41038c0,15.41038 28.25,30.81604 28.25,30.81604c0,0 28.25,-15.41038 28.25,-30.81604c0,-8.51267 -6.89771,-15.41038 -15.41038,-15.41038z" fill="url(#color-9_hDFADUfzhkqV_gr9)"></path><circle cx="34.5" cy="22.5" transform="scale(4.70833,4.70833)" r="0.5" fill="#212121"></circle><path d="M130.61858,108.00446c0,0 8.12658,-4.44467 15.33975,-4.44467c7.21317,0 15.33975,4.44467 15.33975,4.44467l2.97096,-3.55008c0,0 -8.31021,-10.28771 -18.31071,-10.28771c-10.0005,0 -18.31071,10.28771 -18.31071,10.28771z" fill="#212121"></path><circle cx="27.5" cy="22.5" transform="scale(4.70833,4.70833)" r="0.5" fill="#212121"></circle><g fill="#212121"><circle cx="20.5" cy="22.5" transform="scale(4.70833,4.70833)" r="0.5"></circle><path d="M64.70192,108.00446c0,0 8.12658,-4.44467 15.33975,-4.44467c7.21317,0 15.33975,4.44467 15.33975,4.44467l2.97096,-3.55008c0,0 -8.31021,-10.28771 -18.31071,-10.28771c-10.0005,0 -18.31071,10.28771 -18.31071,10.28771z"></path><circle cx="13.5" cy="22.5" transform="scale(4.70833,4.70833)" r="0.5"></circle></g></g></g></svg>