<svg xmlns="http://www.w3.org/2000/svg" x="0px" y="0px"
width="48" height="48"
viewBox="0 0 172 172"
style=" fill:#000000;"><defs><linearGradient x1="85.98925" y1="159.80233" x2="85.98925" y2="114.896" gradientUnits="userSpaceOnUse" id="color-1_kuU7I7uPlHfo_gr1"><stop offset="0" stop-color="#b65000"></stop><stop offset="0.342" stop-color="#a44200"></stop><stop offset="0.974" stop-color="#782100"></stop></linearGradient><linearGradient x1="85.65242" y1="127.43767" x2="86.71667" y2="178.97675" gradientUnits="userSpaceOnUse" id="color-2_kuU7I7uPlHfo_gr2"><stop offset="0" stop-color="#b65000"></stop><stop offset="0.277" stop-color="#983900"></stop><stop offset="0.549" stop-color="#812700"></stop><stop offset="0.719" stop-color="#782100"></stop></linearGradient><linearGradient x1="85.82442" y1="144.21483" x2="87.27567" y2="121.96592" gradientUnits="userSpaceOnUse" id="color-3_kuU7I7uPlHfo_gr3"><stop offset="0" stop-color="#b65000"></stop><stop offset="0.342" stop-color="#a44200"></stop><stop offset="0.974" stop-color="#782100"></stop></linearGradient><linearGradient x1="85.65958" y1="137.471" x2="86.93525" y2="199.09" gradientUnits="userSpaceOnUse" id="color-4_kuU7I7uPlHfo_gr4"><stop offset="0" stop-color="#b65000"></stop><stop offset="0.277" stop-color="#983900"></stop><stop offset="0.549" stop-color="#812700"></stop><stop offset="0.719" stop-color="#782100"></stop></linearGradient><linearGradient x1="30.79517" y1="24.08" x2="51.79708" y2="75.77675" gradientUnits="userSpaceOnUse" id="color-5_kuU7I7uPlHfo_gr5"><stop offset="0" stop-color="#f2ac32"></stop><stop offset="1" stop-color="#de9104"></stop></linearGradient><radialGradient cx="44.52423" cy="50.62451" r="28.16882" gradientUnits="userSpaceOnUse" id="color-6_kuU7I7uPlHfo_gr6"><stop offset="0" stop-color="#e37900"></stop><stop offset="0.875" stop-color="#e37900" stop-opacity="0.125"></stop><stop offset="1" stop-color="#e37900" stop-opacity="0"></stop></radialGradient><radialGradient cx="71.89633" cy="65.02738" r="28.1764" gradientUnits="userSpaceOnUse" id="color-7_kuU7I7uPlHfo_gr7"><stop offset="0" stop-color="#e37900"></stop><stop offset="1" stop-color="#e37900" stop-opacity="0"></stop></radialGradient><radialGradient cx="30.11599" cy="25.15881" r="10.65337" gradientUnits="userSpaceOnUse" id="color-8_kuU7I7uPlHfo_gr8"><stop offset="0" stop-color="#ffeeb3"></stop><stop offset="1" stop-color="#ffeeb3" stop-opacity="0"></stop></radialGradient><linearGradient x1="141.20483" y1="24.08" x2="120.20292" y2="75.77675" gradientUnits="userSpaceOnUse" id="color-9_kuU7I7uPlHfo_gr9"><stop offset="0" stop-color="#f2ac32"></stop><stop offset="1" stop-color="#de9104"></stop></linearGradient><radialGradient cx="127.47577" cy="50.62451" r="28.16882" gradientUnits="userSpaceOnUse" id="color-10_kuU7I7uPlHfo_gr10"><stop offset="0" stop-color="#e37900"></stop><stop offset="0.875" stop-color="#e37900" stop-opacity="0.125"></stop><stop offset="1" stop-color="#e37900" stop-opacity="0"></stop></radialGradient><radialGradient cx="100.10505" cy="65.03068" r="28.17282" gradientUnits="userSpaceOnUse" id="color-11_kuU7I7uPlHfo_gr11"><stop offset="0" stop-color="#e37900"></stop><stop offset="1" stop-color="#e37900" stop-opacity="0"></stop></radialGradient><radialGradient cx="142.72581" cy="24.24531" r="8.10908" gradientUnits="userSpaceOnUse" id="color-12_kuU7I7uPlHfo_gr12"><stop offset="0" stop-color="#ffeeb3"></stop><stop offset="1" stop-color="#ffeeb3" stop-opacity="0"></stop></radialGradient><radialGradient cx="83.82069" cy="119.9342" r="24.24925" fx="83.806" fy="117.24997" gradientUnits="userSpaceOnUse" id="color-13_kuU7I7uPlHfo_gr13"><stop offset="0" stop-color="#fedd30"></stop><stop offset="0.126" stop-color="#facb27"></stop><stop offset="0.378" stop-color="#ef9b10"></stop><stop offset="0.392" stop-color="#ee980f"></stop><stop offset="0.474" stop-color="#df8808"></stop><stop offset="0.588" stop-color="#ce7500"></stop></radialGradient><radialGradient cx="83.32675" cy="117.92056" r="27.13035" fx="83.30854" fy="114.91736" gradientUnits="userSpaceOnUse" id="color-14_kuU7I7uPlHfo_gr14"><stop offset="0" stop-color="#fedd30"></stop><stop offset="0.126" stop-color="#facb27"></stop><stop offset="0.378" stop-color="#ef9b10"></stop><stop offset="0.392" stop-color="#ee980f"></stop><stop offset="0.474" stop-color="#df8808"></stop><stop offset="0.588" stop-color="#ce7500"></stop></radialGradient><linearGradient x1="44.1395" y1="133.09217" x2="106.22075" y2="134.41083" gradientUnits="userSpaceOnUse" id="color-15_kuU7I7uPlHfo_gr15"><stop offset="0.153" stop-color="#f1b133"></stop><stop offset="0.301" stop-color="#e19925"></stop><stop offset="0.447" stop-color="#d7881b"></stop><stop offset="0.557" stop-color="#d38218"></stop><stop offset="0.974" stop-color="#ba6000"></stop></linearGradient><radialGradient cx="75.90511" cy="136.07999" r="15.81045" fx="75.64926" fy="134.12036" gradientUnits="userSpaceOnUse" id="color-16_kuU7I7uPlHfo_gr16"><stop offset="0" stop-color="#fedd30"></stop><stop offset="0.183" stop-color="#facb27"></stop><stop offset="0.552" stop-color="#ef9b10"></stop><stop offset="0.573" stop-color="#ee980f"></stop><stop offset="0.627" stop-color="#df8808"></stop><stop offset="0.702" stop-color="#ce7500"></stop></radialGradient><radialGradient cx="80.28216" cy="133.0472" r="10.51333" gradientUnits="userSpaceOnUse" id="color-17_kuU7I7uPlHfo_gr17"><stop offset="0" stop-color="#ffeeb3"></stop><stop offset="1" stop-color="#ffeeb3" stop-opacity="0"></stop></radialGradient><radialGradient cx="82.76676" cy="99.64452" r="33.74571" fx="82.7593" fy="98.89758" gradientUnits="userSpaceOnUse" id="color-18_kuU7I7uPlHfo_gr18"><stop offset="0" stop-color="#fedd30"></stop><stop offset="0.123" stop-color="#facb27"></stop><stop offset="0.371" stop-color="#ef9b10"></stop><stop offset="0.385" stop-color="#ee980f"></stop><stop offset="0.496" stop-color="#df8808"></stop><stop offset="0.649" stop-color="#ce7500"></stop></radialGradient><radialGradient cx="81.49387" cy="124.87898" r="7.21975" fx="81.35506" fy="124.07709" gradientUnits="userSpaceOnUse" id="color-19_kuU7I7uPlHfo_gr19"><stop offset="0" stop-color="#fedd30"></stop><stop offset="0.08" stop-color="#facb27"></stop><stop offset="0.242" stop-color="#ef9b10"></stop><stop offset="0.251" stop-color="#ee980f"></stop><stop offset="0.383" stop-color="#df8808"></stop><stop offset="0.565" stop-color="#ce7500"></stop></radialGradient><radialGradient cx="83.80378" cy="99.10114" r="9.96187" gradientUnits="userSpaceOnUse" id="color-20_kuU7I7uPlHfo_gr20"><stop offset="0" stop-color="#ffeeb3"></stop><stop offset="1" stop-color="#ffeeb3" stop-opacity="0"></stop></radialGradient><radialGradient cx="83.14377" cy="124.80433" r="8.60336" gradientUnits="userSpaceOnUse" id="color-21_kuU7I7uPlHfo_gr21"><stop offset="0" stop-color="#ffeeb3"></stop><stop offset="1" stop-color="#ffeeb3" stop-opacity="0"></stop></radialGradient><linearGradient x1="81.03708" y1="351.03408" x2="81.03708" y2="-3.53675" gradientUnits="userSpaceOnUse" id="color-22_kuU7I7uPlHfo_gr22"><stop offset="0" stop-color="#ffeeb3" stop-opacity="0.5"></stop><stop offset="1" stop-color="#ffeeb3" stop-opacity="0"></stop></linearGradient><radialGradient cx="83.65217" cy="114.45332" r="8.64644" gradientUnits="userSpaceOnUse" id="color-23_kuU7I7uPlHfo_gr23"><stop offset="0" stop-color="#ffeeb3" stop-opacity="0.5"></stop><stop offset="1" stop-color="#ffeeb3" stop-opacity="0"></stop></radialGradient><radialGradient cx="70.47259" cy="41.06227" r="65.17958" fx="70.93107" fy="32.97152" gradientUnits="userSpaceOnUse" id="color-24_kuU7I7uPlHfo_gr24"><stop offset="0" stop-color="#fedd30"></stop><stop offset="0.264" stop-color="#facb27"></stop><stop offset="0.793" stop-color="#ef9b10"></stop><stop offset="0.823" stop-color="#ee980f"></stop><stop offset="0.886" stop-color="#df8808"></stop><stop offset="0.974" stop-color="#ce7500"></stop></radialGradient><radialGradient cx="77.1884" cy="34.56078" r="43.37645" gradientUnits="userSpaceOnUse" id="color-25_kuU7I7uPlHfo_gr25"><stop offset="0" stop-color="#ffde6e"></stop><stop offset="1" stop-color="#ffde6c" stop-opacity="0"></stop></radialGradient><radialGradient cx="72.15299" cy="34.61352" r="22.69005" gradientUnits="userSpaceOnUse" id="color-26_kuU7I7uPlHfo_gr26"><stop offset="0" stop-color="#ffeeb3"></stop><stop offset="1" stop-color="#ffeeb3" stop-opacity="0"></stop></radialGradient><radialGradient cx="86.49085" cy="62.7914" r="69.2408" gradientUnits="userSpaceOnUse" id="color-27_kuU7I7uPlHfo_gr27"><stop offset="0" stop-color="#ce7500" stop-opacity="0"></stop><stop offset="0.777" stop-color="#ce7500" stop-opacity="0"></stop><stop offset="0.91" stop-color="#ce7500" stop-opacity="0"></stop><stop offset="1" stop-color="#ce7500" stop-opacity="0.7"></stop></radialGradient><radialGradient cx="67.59141" cy="11.64834" r="28.59255" gradientUnits="userSpaceOnUse" id="color-28_kuU7I7uPlHfo_gr28"><stop offset="0" stop-color="#ffeeb3"></stop><stop offset="1" stop-color="#ffeeb3" stop-opacity="0"></stop></radialGradient><radialGradient cx="109.82843" cy="1.83592" r="26.48374" gradientUnits="userSpaceOnUse" id="color-29_kuU7I7uPlHfo_gr29"><stop offset="0" stop-color="#ffeeb3"></stop><stop offset="1" stop-color="#ffeeb3" stop-opacity="0"></stop></radialGradient><radialGradient cx="73.19377" cy="34.09823" r="114.46422" gradientUnits="userSpaceOnUse" id="color-30_kuU7I7uPlHfo_gr30"><stop offset="0" stop-color="#d58619" stop-opacity="0"></stop><stop offset="0.323" stop-color="#d58619" stop-opacity="0"></stop><stop offset="0.491" stop-color="#d98107" stop-opacity="0.68"></stop><stop offset="0.495" stop-color="#d98106" stop-opacity="0.7"></stop><stop offset="0.681" stop-color="#d58618" stop-opacity="0.02"></stop><stop offset="0.686" stop-color="#d58619" stop-opacity="0"></stop><stop offset="1" stop-color="#d58619" stop-opacity="0"></stop></radialGradient><radialGradient cx="82.87816" cy="33.1231" r="132.6985" gradientUnits="userSpaceOnUse" id="color-31_kuU7I7uPlHfo_gr31"><stop offset="0" stop-color="#ffeeb3" stop-opacity="0.043"></stop><stop offset="0.173" stop-color="#ffeeb3" stop-opacity="0.043"></stop><stop offset="0.25" stop-color="#ffeeb3" stop-opacity="0.043"></stop><stop offset="0.391" stop-color="#ffeeb3" stop-opacity="0.043"></stop><stop offset="0.495" stop-color="#ffeeb3" stop-opacity="0.7"></stop><stop offset="0.6" stop-color="#ffeeb3" stop-opacity="0"></stop><stop offset="0.795" stop-color="#ffeeb3" stop-opacity="0"></stop><stop offset="0.859" stop-color="#ffeeb3" stop-opacity="0"></stop><stop offset="1" stop-color="#ffeeb3" stop-opacity="0"></stop></radialGradient></defs><g fill="none" fill-rule="nonzero" stroke="none" stroke-width="1" stroke-linecap="butt" stroke-linejoin="miter" stroke-miterlimit="10" stroke-dasharray="" stroke-dashoffset="0" font-family="none" font-weight="none" font-size="none" text-anchor="none" style="mix-blend-mode: normal"><path d="M0,172v-172h172v172z" fill="none"></path><g><path d="M116.46192,143.33333h-60.92383l-4.88408,5.56492c-0.50883,1.00692 -0.50883,2.193 0,3.2035l2.80575,5.56492h65.06258l2.80575,-5.56492c0.50883,-1.00692 0.50883,-2.19658 0,-3.2035z" fill="url(#color-1_kuU7I7uPlHfo_gr1)"></path><path d="M112.97892,150.5h-53.95783c-1.92425,0 -3.483,-1.55875 -3.483,-3.483v-5.47533h60.92383v5.47533c0,1.92425 -1.55875,3.483 -3.483,3.483z" fill="url(#color-2_kuU7I7uPlHfo_gr2)"></path><path d="M114.66667,143.33333h-57.33333c-1.47633,0 -2.31842,-1.68417 -1.43333,-2.86667l7.525,-10.03333c0.67725,-0.903 1.73792,-1.43333 2.86667,-1.43333h39.41667c1.12875,0 2.18942,0.53033 2.86667,1.43333l7.525,10.03333c0.88508,1.1825 0.043,2.86667 -1.43333,2.86667z" fill="url(#color-3_kuU7I7uPlHfo_gr3)"></path><path d="M120.68667,158.80258l-1.10725,1.3975c-0.67725,0.67367 -1.59817,1.04992 -2.55492,1.04992h-62.10633c-0.9675,0 -1.89558,-0.387 -2.57642,-1.07142l-1.118,-1.42975c-0.57333,-0.81342 -0.95317,-1.60892 -0.95317,-2.55133v-5.6975l2.25392,2.57283c0.67367,0.64858 1.57667,1.0105 2.5155,1.0105h62.06333c0.97825,0 1.91708,-0.39417 2.59792,-1.08933l2.00667,-2.494v5.68317c0,0.94958 -0.43717,1.85975 -1.02125,2.61942z" fill="url(#color-4_kuU7I7uPlHfo_gr4)"></path><path d="M65.6395,74.78417v1.3975c-1.8275,1.03917 -3.83417,0.82417 -5.01667,1.505c0,-0.1075 0,-0.215 -0.03583,-0.28667c-14.62,-2.23242 -6.31742,0.95317 -20.22433,-7.63608c-6.59333,-3.9775 -11.825,-14.0825 -13.40167,-21.24917c-0.86,-3.5475 -1.075,-7.13083 -0.89583,-10.6425c0.03583,-0.86 0.1075,-1.72 0.215,-2.58c0.14333,-0.93167 0.14333,-1.54083 0.46583,-2.9025c0.60917,-2.365 2.2575,-4.515 4.55083,-5.87667c1.14667,-0.68083 2.4725,-1.1825 3.83417,-1.3975c1.29,-0.25083 3.01,-0.14333 3.90583,0.03583c1.505,0.215 3.04583,0.43 4.87333,0.93167c-0.645,1.64833 -1.68417,4.1925 -2.32917,5.76917c-1.075,-0.1075 -2.32917,-0.17917 -3.58333,-0.3225c-0.86,-0.07167 -0.9675,-0.03583 -1.46917,0.03583c-0.39417,0.1075 -0.78833,0.215 -1.14667,0.46583c-0.71667,0.43 -1.29,1.11083 -1.505,1.935c-0.07167,0.25083 -0.17917,1.29 -0.25083,1.97083c-0.1075,0.7525 -0.14333,1.505 -0.17917,2.2575c-0.17917,3.04583 0.02867,8.00875 0.74533,10.83958c1.634,6.70442 4.84467,13.59875 10.18383,17.03875c5.23167,3.47583 12.26933,6.59692 19.04183,8.06608l0.35833,0.07167c1.00333,0.25083 1.72,-0.3225 1.86333,0.57333z" fill="url(#color-5_kuU7I7uPlHfo_gr5)"></path><path d="M63.32467,75.852v0c-0.17917,-1.06783 -1.01767,-1.96008 -2.14283,-2.14642c-6.91583,-1.15383 -13.55217,-3.76608 -18.7695,-8.00517c-5.16717,-4.32508 -8.45308,-10.4275 -9.57467,-17.04592c-0.59125,-3.30025 -0.79908,-6.70083 -0.59842,-10.11217c0.1075,-1.70208 0.20067,-3.41133 0.43358,-5.11342c0.129,-1.02483 0.5805,-1.82392 1.27567,-2.408c0.69517,-0.55542 1.52292,-0.82775 2.3865,-0.77758c1.69492,0.215 3.70158,0.31175 5.02383,0.5375c0.17558,0.01433 0.33325,0.04658 0.473,0.07883c-0.4085,1.10008 -1.25058,2.4295 -2.021,3.73025l-0.04658,0.07883c-0.35833,0.602 -0.34758,1.38317 0.086,1.98875c0.58767,0.817 1.72358,1.00333 2.54058,0.41925c1.59817,-1.14667 3.09958,-2.28975 4.48992,-4.37883c0.32608,-0.55542 0.66292,-1.22192 0.83492,-2.1715c0.20067,-0.92092 0,-2.365 -0.72742,-3.37908c-1.53367,-1.97083 -2.90967,-2.20017 -3.98108,-2.64092c-2.22883,-0.65933 -3.87717,-0.91733 -5.79783,-1.23983c-2.76992,-0.43717 -5.73333,0.44433 -7.83317,2.23958c-2.14283,1.7415 -3.50808,4.41108 -3.80908,7.01617c-0.22933,1.92783 -0.43,3.87 -0.42283,5.82292c-0.02508,3.90225 0.35833,7.84392 1.30075,11.69958c1.86333,7.68983 6.26008,15.007 12.58108,19.83375c5.70467,4.61892 12.54525,7.11292 19.36075,8.70033c0.10033,0.78117 0.13617,1.5695 0.04658,2.36142c-0.07167,0.69158 -0.24725,1.37242 -0.47658,2.03533c-0.21142,0.63425 -0.60558,1.36883 -0.86717,1.77733l-0.172,0.26517c-0.44433,0.688 -0.3655,1.61608 0.2365,2.21808c0.69158,0.69517 1.82033,0.69875 2.5155,0.00358c0.87433,-0.87075 1.38317,-1.60533 1.91708,-2.50833c0.50167,-0.87792 0.9245,-1.80958 1.21475,-2.79142c0.59842,-1.95292 0.74892,-4.05633 0.52317,-6.08808z" fill="#fedd30"></path><path d="M63.32467,75.852v0c-0.17917,-1.06783 -1.01767,-1.96008 -2.14283,-2.14642c-6.91583,-1.15383 -13.55217,-3.76608 -18.7695,-8.00517c-5.16717,-4.32508 -8.45308,-10.4275 -9.57467,-17.04592c-0.59125,-3.30025 -0.79908,-6.70083 -0.59842,-10.11217c0.1075,-1.70208 0.20067,-3.41133 0.43358,-5.11342c0.129,-1.02483 0.5805,-1.82392 1.27567,-2.408c0.69517,-0.55542 1.52292,-0.82775 2.3865,-0.77758c1.69492,0.215 3.70158,0.31175 5.02383,0.5375c0.17558,0.01433 0.33325,0.04658 0.473,0.07883c-0.4085,1.10008 -1.25058,2.4295 -2.021,3.73025l-0.04658,0.07883c-0.35833,0.602 -0.34758,1.38317 0.086,1.98875c0.58767,0.817 1.72358,1.00333 2.54058,0.41925c1.59817,-1.14667 3.09958,-2.28975 4.48992,-4.37883c0.32608,-0.55542 0.66292,-1.22192 0.83492,-2.1715c0.20067,-0.92092 0,-2.365 -0.72742,-3.37908c-1.53367,-1.97083 -2.90967,-2.20017 -3.98108,-2.64092c-2.22883,-0.65933 -3.87717,-0.91733 -5.79783,-1.23983c-2.76992,-0.43717 -5.73333,0.44433 -7.83317,2.23958c-2.14283,1.7415 -3.50808,4.41108 -3.80908,7.01617c-0.22933,1.92783 -0.43,3.87 -0.42283,5.82292c-0.02508,3.90225 0.35833,7.84392 1.30075,11.69958c1.86333,7.68983 6.26008,15.007 12.58108,19.83375c5.70467,4.61892 12.54525,7.11292 19.36075,8.70033c0.10033,0.78117 0.13617,1.5695 0.04658,2.36142c-0.07167,0.69158 -0.24725,1.37242 -0.47658,2.03533c-0.21142,0.63425 -0.60558,1.36883 -0.86717,1.77733l-0.172,0.26517c-0.44433,0.688 -0.3655,1.61608 0.2365,2.21808c0.69158,0.69517 1.82033,0.69875 2.5155,0.00358c0.87433,-0.87075 1.38317,-1.60533 1.91708,-2.50833c0.50167,-0.87792 0.9245,-1.80958 1.21475,-2.79142c0.59842,-1.95292 0.74892,-4.05633 0.52317,-6.08808z" fill="url(#color-6_kuU7I7uPlHfo_gr6)"></path><path d="M63.32467,75.852v0c-0.17917,-1.06783 -1.01767,-1.96008 -2.14283,-2.14642c-6.91583,-1.15383 -13.55217,-3.76608 -18.7695,-8.00517c-5.16717,-4.32508 -8.45308,-10.4275 -9.57467,-17.04592c-0.59125,-3.30025 -0.79908,-6.70083 -0.59842,-10.11217c0.1075,-1.70208 0.20067,-3.41133 0.43358,-5.11342c0.129,-1.02483 0.5805,-1.82392 1.27567,-2.408c0.69517,-0.55542 1.52292,-0.82775 2.3865,-0.77758c1.69492,0.215 3.70158,0.31175 5.02383,0.5375c0.17558,0.01433 0.33325,0.04658 0.473,0.07883c-0.4085,1.10008 -1.25058,2.4295 -2.021,3.73025l-0.04658,0.07883c-0.35833,0.602 -0.34758,1.38317 0.086,1.98875c0.58767,0.817 1.72358,1.00333 2.54058,0.41925c1.59817,-1.14667 3.09958,-2.28975 4.48992,-4.37883c0.32608,-0.55542 0.66292,-1.22192 0.83492,-2.1715c0.20067,-0.92092 0,-2.365 -0.72742,-3.37908c-1.53367,-1.97083 -2.90967,-2.20017 -3.98108,-2.64092c-2.22883,-0.65933 -3.87717,-0.91733 -5.79783,-1.23983c-2.76992,-0.43717 -5.73333,0.44433 -7.83317,2.23958c-2.14283,1.7415 -3.50808,4.41108 -3.80908,7.01617c-0.22933,1.92783 -0.43,3.87 -0.42283,5.82292c-0.02508,3.90225 0.35833,7.84392 1.30075,11.69958c1.86333,7.68983 6.26008,15.007 12.58108,19.83375c5.70467,4.61892 12.54525,7.11292 19.36075,8.70033c0.10033,0.78117 0.13617,1.5695 0.04658,2.36142c-0.07167,0.69158 -0.24725,1.37242 -0.47658,2.03533c-0.21142,0.63425 -0.60558,1.36883 -0.86717,1.77733l-0.172,0.26517c-0.44433,0.688 -0.3655,1.61608 0.2365,2.21808c0.69158,0.69517 1.82033,0.69875 2.5155,0.00358c0.87433,-0.87075 1.38317,-1.60533 1.91708,-2.50833c0.50167,-0.87792 0.9245,-1.80958 1.21475,-2.79142c0.59842,-1.95292 0.74892,-4.05633 0.52317,-6.08808z" fill="url(#color-7_kuU7I7uPlHfo_gr7)"></path><path d="M63.32467,75.852v0c-0.17917,-1.06783 -1.01767,-1.96008 -2.14283,-2.14642c-6.91583,-1.15383 -13.55217,-3.76608 -18.7695,-8.00517c-5.16717,-4.32508 -8.45308,-10.4275 -9.57467,-17.04592c-0.59125,-3.30025 -0.79908,-6.70083 -0.59842,-10.11217c0.1075,-1.70208 0.20067,-3.41133 0.43358,-5.11342c0.129,-1.02483 0.5805,-1.82392 1.27567,-2.408c0.69517,-0.55542 1.52292,-0.82775 2.3865,-0.77758c1.69492,0.215 3.70158,0.31175 5.02383,0.5375c0.17558,0.01433 0.33325,0.04658 0.473,0.07883c-0.4085,1.10008 -1.25058,2.4295 -2.021,3.73025l-0.04658,0.07883c-0.35833,0.602 -0.34758,1.38317 0.086,1.98875c0.58767,0.817 1.72358,1.00333 2.54058,0.41925c1.59817,-1.14667 3.09958,-2.28975 4.48992,-4.37883c0.32608,-0.55542 0.66292,-1.22192 0.83492,-2.1715c0.20067,-0.92092 0,-2.365 -0.72742,-3.37908c-1.53367,-1.97083 -2.90967,-2.20017 -3.98108,-2.64092c-2.22883,-0.65933 -3.87717,-0.91733 -5.79783,-1.23983c-2.76992,-0.43717 -5.73333,0.44433 -7.83317,2.23958c-2.14283,1.7415 -3.50808,4.41108 -3.80908,7.01617c-0.22933,1.92783 -0.43,3.87 -0.42283,5.82292c-0.02508,3.90225 0.35833,7.84392 1.30075,11.69958c1.86333,7.68983 6.26008,15.007 12.58108,19.83375c5.70467,4.61892 12.54525,7.11292 19.36075,8.70033c0.10033,0.78117 0.13617,1.5695 0.04658,2.36142c-0.07167,0.69158 -0.24725,1.37242 -0.47658,2.03533c-0.21142,0.63425 -0.60558,1.36883 -0.86717,1.77733l-0.172,0.26517c-0.44433,0.688 -0.3655,1.61608 0.2365,2.21808c0.69158,0.69517 1.82033,0.69875 2.5155,0.00358c0.87433,-0.87075 1.38317,-1.60533 1.91708,-2.50833c0.50167,-0.87792 0.9245,-1.80958 1.21475,-2.79142c0.59842,-1.95292 0.74892,-4.05633 0.52317,-6.08808z" fill="url(#color-8_kuU7I7uPlHfo_gr8)" opacity="0.4"></path><path d="M106.3605,74.78417v1.3975c1.8275,1.03917 3.83417,0.82417 5.01667,1.505c0,-0.1075 0,-0.215 0.03583,-0.28667c14.62,-2.23242 6.31742,0.95317 20.22433,-7.63608c6.59333,-3.9775 11.825,-14.0825 13.40167,-21.24917c0.86,-3.5475 1.075,-7.13083 0.89583,-10.6425c-0.03583,-0.86 -0.1075,-1.72 -0.215,-2.58c-0.14333,-0.93167 -0.14333,-1.54083 -0.46583,-2.9025c-0.60917,-2.365 -2.2575,-4.515 -4.55083,-5.87667c-1.14667,-0.68083 -2.4725,-1.1825 -3.83417,-1.3975c-1.29,-0.25083 -3.01,-0.14333 -3.90583,0.03583c-1.505,0.215 -3.04583,0.43 -4.87333,0.93167c0.645,1.64833 1.68417,4.1925 2.32917,5.76917c1.075,-0.1075 2.32917,-0.17917 3.58333,-0.3225c0.86,-0.07167 0.9675,-0.03583 1.46917,0.03583c0.39417,0.1075 0.78833,0.215 1.14667,0.46583c0.71667,0.43 1.29,1.11083 1.505,1.935c0.07167,0.25083 0.17917,1.29 0.25083,1.97083c0.1075,0.7525 0.14333,1.505 0.17917,2.2575c0.17917,3.04583 -0.41208,9.8255 -1.12875,12.65633c-1.43333,5.62583 -4.46125,11.782 -9.80042,15.222c-5.23167,3.47583 -12.26933,6.59692 -19.04183,8.06608l-0.35833,0.07167c-1.00333,0.25083 -1.72,-0.3225 -1.86333,0.57333z" fill="url(#color-9_kuU7I7uPlHfo_gr9)"></path><path d="M109.20208,81.94367c0.29025,0.98183 0.71308,1.9135 1.21475,2.79142c0.53392,0.903 1.04275,1.63758 1.91708,2.50833c0.69517,0.69158 1.82033,0.69158 2.5155,-0.00358c0.602,-0.602 0.68083,-1.53008 0.2365,-2.21808l-0.172,-0.26517c-0.26517,-0.4085 -0.65575,-1.14308 -0.86717,-1.77733c-0.23292,-0.66292 -0.4085,-1.34375 -0.47658,-2.03533c-0.09317,-0.79192 -0.05375,-1.58025 0.04658,-2.36142c6.81908,-1.58742 13.65608,-4.08142 19.36075,-8.70033c6.321,-4.83033 10.71775,-12.14392 12.58108,-19.83375c0.93883,-3.85208 1.32583,-7.79733 1.30075,-11.69958c0.00358,-1.95292 -0.1935,-3.89508 -0.42283,-5.82292c-0.301,-2.60867 -1.66625,-5.27467 -3.8055,-7.01617c-2.10342,-1.79525 -5.06325,-2.67675 -7.83317,-2.23958c-1.92067,0.3225 -3.569,0.5805 -5.79783,1.23983c-1.07142,0.44075 -2.44742,0.67008 -3.98108,2.64092c-0.731,1.01408 -0.93167,2.46175 -0.72742,3.37908c0.172,0.94958 0.50883,1.61608 0.83492,2.1715c1.39033,2.09267 2.89175,3.23217 4.48992,4.37883c0.817,0.58767 1.95292,0.39775 2.54058,-0.41925c0.43358,-0.60558 0.44433,-1.38675 0.086,-1.98875l-0.05375,-0.08242c-0.77042,-1.29717 -1.6125,-2.63017 -2.02458,-3.73025c0.13975,-0.03225 0.301,-0.0645 0.473,-0.07883c1.32225,-0.22575 3.32892,-0.3225 5.02383,-0.5375c0.86358,-0.05017 1.69133,0.22217 2.39008,0.78117c0.69517,0.58767 1.14667,1.38317 1.27567,2.408c0.22933,1.6985 0.3225,3.41133 0.43358,5.11342c0.19708,3.40775 -0.00717,6.81192 -0.59842,10.11217c-1.12158,6.622 -4.41108,12.72442 -9.57467,17.04592c-5.21733,4.23908 -11.85725,6.85133 -18.7695,8.00517c-1.12517,0.18633 -1.96367,1.07858 -2.14283,2.14283v0c-0.22575,2.03175 -0.07525,4.13517 0.52675,6.09167z" fill="#fedd30"></path><path d="M109.20208,81.94367c0.29025,0.98183 0.71308,1.9135 1.21475,2.79142c0.53392,0.903 1.04275,1.63758 1.91708,2.50833c0.69517,0.69158 1.82033,0.69158 2.5155,-0.00358c0.602,-0.602 0.68083,-1.53008 0.2365,-2.21808l-0.172,-0.26517c-0.26517,-0.4085 -0.65575,-1.14308 -0.86717,-1.77733c-0.23292,-0.66292 -0.4085,-1.34375 -0.47658,-2.03533c-0.09317,-0.79192 -0.05375,-1.58025 0.04658,-2.36142c6.81908,-1.58742 13.65608,-4.08142 19.36075,-8.70033c6.321,-4.83033 10.71775,-12.14392 12.58108,-19.83375c0.93883,-3.85208 1.32583,-7.79733 1.30075,-11.69958c0.00358,-1.95292 -0.1935,-3.89508 -0.42283,-5.82292c-0.301,-2.60867 -1.66625,-5.27467 -3.8055,-7.01617c-2.10342,-1.79525 -5.06325,-2.67675 -7.83317,-2.23958c-1.92067,0.3225 -3.569,0.5805 -5.79783,1.23983c-1.07142,0.44075 -2.44742,0.67008 -3.98108,2.64092c-0.731,1.01408 -0.93167,2.46175 -0.72742,3.37908c0.172,0.94958 0.50883,1.61608 0.83492,2.1715c1.39033,2.09267 2.89175,3.23217 4.48992,4.37883c0.817,0.58767 1.95292,0.39775 2.54058,-0.41925c0.43358,-0.60558 0.44433,-1.38675 0.086,-1.98875l-0.05375,-0.08242c-0.77042,-1.29717 -1.6125,-2.63017 -2.02458,-3.73025c0.13975,-0.03225 0.301,-0.0645 0.473,-0.07883c1.32225,-0.22575 3.32892,-0.3225 5.02383,-0.5375c0.86358,-0.05017 1.69133,0.22217 2.39008,0.78117c0.69517,0.58767 1.14667,1.38317 1.27567,2.408c0.22933,1.6985 0.3225,3.41133 0.43358,5.11342c0.19708,3.40775 -0.00717,6.81192 -0.59842,10.11217c-1.12158,6.622 -4.41108,12.72442 -9.57467,17.04592c-5.21733,4.23908 -11.85725,6.85133 -18.7695,8.00517c-1.12517,0.18633 -1.96367,1.07858 -2.14283,2.14283v0c-0.22575,2.03175 -0.07525,4.13517 0.52675,6.09167z" fill="url(#color-10_kuU7I7uPlHfo_gr10)"></path><path d="M109.20208,81.94367c0.29025,0.98183 0.71308,1.9135 1.21475,2.79142c0.53392,0.903 1.04275,1.63758 1.91708,2.50833c0.69517,0.69158 1.82033,0.69158 2.5155,-0.00358c0.602,-0.602 0.68083,-1.53008 0.2365,-2.21808l-0.172,-0.26517c-0.26517,-0.4085 -0.65575,-1.14308 -0.86717,-1.77733c-0.23292,-0.66292 -0.4085,-1.34375 -0.47658,-2.03533c-0.09317,-0.79192 -0.05375,-1.58025 0.04658,-2.36142c6.81908,-1.58742 13.65608,-4.08142 19.36075,-8.70033c6.321,-4.83033 10.71775,-12.14392 12.58108,-19.83375c0.93883,-3.85208 1.32583,-7.79733 1.30075,-11.69958c0.00358,-1.95292 -0.1935,-3.89508 -0.42283,-5.82292c-0.301,-2.60867 -1.66625,-5.27467 -3.8055,-7.01617c-2.10342,-1.79525 -5.06325,-2.67675 -7.83317,-2.23958c-1.92067,0.3225 -3.569,0.5805 -5.79783,1.23983c-1.07142,0.44075 -2.44742,0.67008 -3.98108,2.64092c-0.731,1.01408 -0.93167,2.46175 -0.72742,3.37908c0.172,0.94958 0.50883,1.61608 0.83492,2.1715c1.39033,2.09267 2.89175,3.23217 4.48992,4.37883c0.817,0.58767 1.95292,0.39775 2.54058,-0.41925c0.43358,-0.60558 0.44433,-1.38675 0.086,-1.98875l-0.05375,-0.08242c-0.77042,-1.29717 -1.6125,-2.63017 -2.02458,-3.73025c0.13975,-0.03225 0.301,-0.0645 0.473,-0.07883c1.32225,-0.22575 3.32892,-0.3225 5.02383,-0.5375c0.86358,-0.05017 1.69133,0.22217 2.39008,0.78117c0.69517,0.58767 1.14667,1.38317 1.27567,2.408c0.22933,1.6985 0.3225,3.41133 0.43358,5.11342c0.19708,3.40775 -0.00717,6.81192 -0.59842,10.11217c-1.12158,6.622 -4.41108,12.72442 -9.57467,17.04592c-5.21733,4.23908 -11.85725,6.85133 -18.7695,8.00517c-1.12517,0.18633 -1.96367,1.07858 -2.14283,2.14283v0c-0.22575,2.03175 -0.07525,4.13517 0.52675,6.09167z" fill="url(#color-11_kuU7I7uPlHfo_gr11)"></path><path d="M109.20208,81.94367c0.29025,0.98183 0.71308,1.9135 1.21475,2.79142c0.53392,0.903 1.04275,1.63758 1.91708,2.50833c0.69517,0.69158 1.82033,0.69158 2.5155,-0.00358c0.602,-0.602 0.68083,-1.53008 0.2365,-2.21808l-0.172,-0.26517c-0.26517,-0.4085 -0.65575,-1.14308 -0.86717,-1.77733c-0.23292,-0.66292 -0.4085,-1.34375 -0.47658,-2.03533c-0.09317,-0.79192 -0.05375,-1.58025 0.04658,-2.36142c6.81908,-1.58742 13.65608,-4.08142 19.36075,-8.70033c6.321,-4.83033 10.71775,-12.14392 12.58108,-19.83375c0.93883,-3.85208 1.32583,-7.79733 1.30075,-11.69958c0.00358,-1.95292 -0.1935,-3.89508 -0.42283,-5.82292c-0.301,-2.60867 -1.66625,-5.27467 -3.8055,-7.01617c-2.10342,-1.79525 -5.06325,-2.67675 -7.83317,-2.23958c-1.92067,0.3225 -3.569,0.5805 -5.79783,1.23983c-1.07142,0.44075 -2.44742,0.67008 -3.98108,2.64092c-0.731,1.01408 -0.93167,2.46175 -0.72742,3.37908c0.172,0.94958 0.50883,1.61608 0.83492,2.1715c1.39033,2.09267 2.89175,3.23217 4.48992,4.37883c0.817,0.58767 1.95292,0.39775 2.54058,-0.41925c0.43358,-0.60558 0.44433,-1.38675 0.086,-1.98875l-0.05375,-0.08242c-0.77042,-1.29717 -1.6125,-2.63017 -2.02458,-3.73025c0.13975,-0.03225 0.301,-0.0645 0.473,-0.07883c1.32225,-0.22575 3.32892,-0.3225 5.02383,-0.5375c0.86358,-0.05017 1.69133,0.22217 2.39008,0.78117c0.69517,0.58767 1.14667,1.38317 1.27567,2.408c0.22933,1.6985 0.3225,3.41133 0.43358,5.11342c0.19708,3.40775 -0.00717,6.81192 -0.59842,10.11217c-1.12158,6.622 -4.41108,12.72442 -9.57467,17.04592c-5.21733,4.23908 -11.85725,6.85133 -18.7695,8.00517c-1.12517,0.18633 -1.96367,1.07858 -2.14283,2.14283v0c-0.22575,2.03175 -0.07525,4.13517 0.52675,6.09167z" fill="url(#color-12_kuU7I7uPlHfo_gr12)" opacity="0.4"></path><rect x="22" y="28" transform="scale(3.58333,3.58333)" width="4" height="7" fill="url(#color-13_kuU7I7uPlHfo_gr13)"></rect><path d="M93.16667,121.83333h-14.33333l-0.00717,-0.00717c-2.16792,-3.25008 -2.16792,-14.64867 0,-17.89875l0.00717,-0.01075h14.33333l0.00717,0.00717c2.16792,3.25008 2.16792,14.64867 0,17.89875z" fill="url(#color-14_kuU7I7uPlHfo_gr14)"></path><path d="M96.75,126.90375h-10.75h-10.75c0,0 -8.84367,4.45767 -10.75,8.2345c0,0 0,2.11417 0,2.5155c0,3.58333 17.91667,3.58333 21.5,3.58333c3.58333,0 21.5,0 21.5,-3.58333c0,-0.39775 0,-2.5155 0,-2.5155c-1.88125,-3.77683 -10.75,-8.2345 -10.75,-8.2345z" fill="url(#color-15_kuU7I7uPlHfo_gr15)"></path><path d="M107.5,135.1275c0,2.4725 -10.4275,3.08167 -16.94917,3.225c-2.0425,0.03583 -3.69083,0.03583 -4.55083,0.03583c-2.07833,0 -9.03,0 -14.47667,-0.645c-3.90583,-0.46583 -7.02333,-1.25417 -7.02333,-2.61583c0,-3.225 10.965,-9.71083 10.965,-9.71083h21.07c0,0 10.965,6.48583 10.965,9.71083z" fill="url(#color-16_kuU7I7uPlHfo_gr16)"></path><path d="M107.5,135.1275c0,2.4725 -10.4275,3.08167 -16.94917,3.225c-2.0425,0.03583 -3.69083,0.03583 -4.55083,0.03583c-2.07833,0 -9.03,0 -14.47667,-0.645c-3.90583,-0.46583 -7.02333,-1.25417 -7.02333,-2.61583c0,-3.225 10.965,-9.71083 10.965,-9.71083h21.07c0,0 10.965,6.48583 10.965,9.71083z" fill="url(#color-17_kuU7I7uPlHfo_gr17)" opacity="0.7"></path><path d="M78.83333,96.75h14.33333c1.978,0 3.58333,1.60533 3.58333,3.58333v0c0,1.978 -1.60533,3.58333 -3.58333,3.58333h-14.33333c-1.978,0 -3.58333,-1.60533 -3.58333,-3.58333v0c0,-1.978 1.60533,-3.58333 3.58333,-3.58333z" fill="url(#color-18_kuU7I7uPlHfo_gr18)"></path><path d="M77.78342,121.83333h16.42958c1.40108,0 2.537,1.13592 2.537,2.53342v0c0,1.40108 -1.13592,2.53342 -2.53342,2.53342h-16.42958c-1.40108,0 -2.53342,-1.13592 -2.53342,-2.53342v0c-0.00358,-1.3975 1.13233,-2.53342 2.52983,-2.53342z" fill="url(#color-19_kuU7I7uPlHfo_gr19)"></path><path d="M78.83333,96.75h14.33333c1.978,0 3.58333,1.60533 3.58333,3.58333v0c0,1.978 -1.60533,3.58333 -3.58333,3.58333h-14.33333c-1.978,0 -3.58333,-1.60533 -3.58333,-3.58333v0c0,-1.978 1.60533,-3.58333 3.58333,-3.58333z" fill="url(#color-20_kuU7I7uPlHfo_gr20)" opacity="0.2"></path><path d="M77.78342,121.83333h16.42958c1.40108,0 2.537,1.13592 2.537,2.53342v0c0,1.40108 -1.13592,2.53342 -2.53342,2.53342h-16.42958c-1.40108,0 -2.53342,-1.13592 -2.53342,-2.53342v0c-0.00358,-1.3975 1.13233,-2.53342 2.52983,-2.53342z" fill="url(#color-21_kuU7I7uPlHfo_gr21)" opacity="0.3"></path><path d="M90.55083,138.31667v0.03583c-2.0425,0.03583 -3.69083,0.03583 -4.55083,0.03583c-2.07833,0 -9.03,0 -14.47667,-0.645c9.49583,-5.375 8.77917,-10.8575 8.77917,-10.8575c0.43,-0.50167 0.71667,-1.00333 0.89583,-1.46917c0.86,-2.11417 -0.78833,-3.58333 -0.78833,-3.58333c3.61917,-4.085 0.89583,-17.91667 0.89583,-17.91667c1.462,-1.96367 0.63425,-5.70825 0.63425,-5.70825h4.63325c-2.46175,3.34325 -0.57333,5.70825 -0.57333,5.70825c-2.83083,6.5575 0.25083,17.98833 0.25083,17.98833c-1.11083,1.29 -1.25417,2.58 -1.075,3.51167c0.1075,0.82417 0.46583,1.3975 0.46583,1.3975c-2.75917,7.23833 4.90917,11.5025 4.90917,11.5025z" fill="url(#color-22_kuU7I7uPlHfo_gr22)" opacity="0.9"></path><path d="M93.16667,121.83333h-14.33333l-0.00717,-0.00717c-2.16792,-3.25008 -2.16792,-14.64867 0,-17.89875l0.00717,-0.01075h14.33333l0.00717,0.00717c2.16792,3.25008 2.16792,14.64867 0,17.89875z" fill="url(#color-23_kuU7I7uPlHfo_gr23)" opacity="0.7"></path><path d="M125.4525,17.91667c0,1.11083 -0.03583,2.22167 -0.03583,3.29667c-0.07167,1.11083 -0.1075,2.22167 -0.17917,3.29667v0.03583c-0.07167,1.6125 -0.215,3.225 -0.39417,4.80167c-3.83417,37.41 -25.44167,68.87167 -35.22417,68.87167h-7.16667c-9.63917,0 -30.8525,-30.745 -35.045,-67.4025c-0.28667,-2.11417 -0.46583,-4.22833 -0.57333,-6.41417v-0.03583c-0.14333,-2.15 -0.215,-4.26417 -0.215,-6.45c0,-1.11083 0.5375,-2.15 1.46917,-3.08167c0.78833,-0.78833 1.8275,-1.505 3.08167,-2.11417c0.60917,-0.3225 1.29,-0.60917 2.00667,-0.93167c7.77583,-3.08167 21.07,-4.6225 32.82333,-4.6225c15.12167,0 32.7875,2.54417 37.9475,7.66833c0.9675,0.89583 1.505,1.935 1.505,3.08167z" fill="url(#color-24_kuU7I7uPlHfo_gr24)"></path><path d="M119.6475,25.47392v0.25083c-0.1075,31.82 -23.18417,56.58083 -33.07417,56.58083h-6.62917c-9.89,0 -33.0025,-24.76083 -33.11,-56.58083v-0.25083c0,-3.87 14.0825,-9.71083 39.16583,-9.71083c4.33583,0 8.9225,0.39417 13.33,1.11083c0.07167,0 0.14333,0.03583 0.215,0.03583c11.25167,2.6875 20.1025,4.69417 20.1025,8.56417z" fill="url(#color-25_kuU7I7uPlHfo_gr25)"></path><path d="M119.6475,21.93v0.25083c-0.1075,31.82 -23.18417,56.58083 -33.07417,56.58083h-6.62917c-9.89,0 -33.0025,-24.76083 -33.11,-56.58083v-0.25083c0,-3.87 14.0825,-9.71083 39.16583,-9.71083c4.33583,0 8.9225,0.39417 13.33,1.11083c11.35917,2.6875 20.3175,4.69417 20.3175,8.6z" fill="url(#color-26_kuU7I7uPlHfo_gr26)" opacity="0.7"></path><path d="M125.2375,24.51c-0.07167,1.6125 -0.215,3.26083 -0.39417,4.8375h-5.19583c-8.0625,-0.07167 -22.575,-0.1075 -30.06417,-0.1075h-7.16667c-9.49583,0 -30.35083,1.43333 -35.00917,1.57667c-0.28667,-2.11417 -0.46583,-4.22833 -0.57333,-6.41417c2.32917,-4.6225 22.07333,-8.6 39.16583,-8.6c17.2,0 37.12333,4.04917 39.2375,8.7075z" fill="url(#color-27_kuU7I7uPlHfo_gr27)" opacity="0.7"></path><path d="M125.41667,17.91667c0,1.29 -0.03583,5.9125 -0.07167,7.16667c0.05733,-1.95292 -9.66783,-9.245 -40.04733,-9.245c-26.17267,0 -38.63908,6.71875 -38.42408,8.84008c0,0 -0.29025,-5.47175 -0.29025,-6.76175c0,-7.16667 21.5,-10.75 39.41667,-10.75c17.91667,0 39.41667,3.58333 39.41667,10.75z" fill="url(#color-28_kuU7I7uPlHfo_gr28)" opacity="0.7"></path><path d="M125.41667,17.91667v3.29667c-0.07167,1.11083 -0.1075,2.22167 -0.17917,3.29667c-2.18583,-4.65833 -22.71833,-8.7075 -39.2375,-8.7075c-16.34,0 -36.6575,3.94167 -39.16583,8.56417c-0.14333,-2.15 -0.215,-4.26417 -0.215,-6.45c0,-1.11083 0.5375,-2.15 1.46917,-3.08167c0.78833,-0.78833 1.8275,-1.505 3.08167,-2.11417c0.60917,-0.3225 1.29,-0.60917 2.00667,-0.93167c7.77583,-3.08167 21.07,-4.6225 32.82333,-4.6225c15.12167,0 32.7875,2.54417 37.9475,7.66833c0.93167,0.93167 1.46917,1.97083 1.46917,3.08167z" fill="url(#color-29_kuU7I7uPlHfo_gr29)" opacity="0.7"></path><path d="M86.03583,7.16667c-17.91667,0 -39.41667,3.58333 -39.41667,10.75c0,43 25.08333,80.29175 35.83333,80.29175h7.16667c10.75,0 35.83333,-37.29175 35.83333,-80.29175c0,-7.16667 -21.5,-10.75 -39.41667,-10.75z" fill="url(#color-30_kuU7I7uPlHfo_gr30)" opacity="0.6"></path><path d="M86.03583,10.75c-17.91667,0 -39.41667,0 -39.41667,7.16667c0,43 25.08333,80.29175 35.83333,80.29175h7.16667c10.75,0 35.83333,-37.29175 35.83333,-80.29175c0,-7.16667 -21.5,-7.16667 -39.41667,-7.16667z" fill="url(#color-31_kuU7I7uPlHfo_gr31)" opacity="0.2"></path></g></g></svg>